<svg width="18" height="18" viewBox="0 0 18 18" fill="none" xmlns="http://www.w3.org/2000/svg">
<path d="M5.123 5.90625L5.914 0H1.8L0.081 5.0625C0.028 5.2425 0 5.42925 0 5.625C0 6.867 1.15 7.875 2.571 7.875C3.881 7.875 4.964 7.0155 5.123 5.90625ZM9 7.875C10.42 7.875 11.571 6.867 11.571 5.625C11.571 5.57888 11.568 5.53275 11.566 5.48888L11.057 0H6.943L6.433 5.48438C6.431 5.5305 6.429 5.57662 6.429 5.625C6.429 6.867 7.58 7.875 9 7.875ZM14 9.05175V13.5H4V9.0585C3.562 9.23625 3.08 9.3375 2.571 9.3375C2.376 9.3375 2.187 9.31163 2 9.28238V16.425C2 17.2913 2.629 18 3.398 18H14.6C15.37 18 16 17.2901 16 16.425V9.2835C15.811 9.31615 15.6202 9.33457 15.429 9.33862C14.9414 9.33807 14.4577 9.24096 14 9.05175ZM17.92 5.0625L16.199 0H12.086L12.876 5.89725C13.03 7.011 14.113 7.875 15.429 7.875C16.849 7.875 18 6.867 18 5.625C18 5.42925 17.972 5.2425 17.92 5.0625Z" fill="#ADADAD"/>
</svg>
