<svg width="18" height="18" viewBox="0 0 18 18" fill="none" xmlns="http://www.w3.org/2000/svg">
<path d="M5.65196 0.000146522C6.21895 0.0182975 6.76794 0.122506 7.29984 0.312924H7.35294C7.38894 0.330924 7.41594 0.350818 7.43394 0.368818C7.63283 0.43608 7.82093 0.511868 8.00093 0.616077L8.34293 0.777127C8.47793 0.852915 8.63992 0.994071 8.72992 1.05186C8.81992 1.10775 8.91892 1.16554 8.99992 1.23091C9.99981 0.426606 11.2139 -0.00917574 12.4649 0.000146522C13.0328 0.000146522 13.5998 0.0846122 14.1389 0.27503C17.4607 1.41185 18.6577 5.24863 17.6578 8.60226C17.0908 10.316 16.1638 11.8801 14.9498 13.1581C13.2119 14.9296 11.3048 16.5022 9.25192 17.8569L9.02692 18L8.79292 17.8475C6.73284 16.5022 4.81496 14.9296 3.06088 13.1486C1.8549 11.8706 0.927005 10.316 0.351011 8.60226C-0.665978 5.24863 0.53101 1.41185 3.88887 0.255136C4.14987 0.1604 4.41897 0.0940857 4.68897 0.0571389H4.79696C5.04986 0.0182975 5.30096 0.000146522 5.55296 0.000146522H5.65196ZM13.6709 2.99393C13.3019 2.86036 12.8969 3.06972 12.7619 3.46761C12.6359 3.8655 12.8339 4.30128 13.2119 4.44243C13.7888 4.6698 14.1749 5.26758 14.1749 5.92978V5.95915C14.1578 6.17609 14.2199 6.38546 14.3459 6.5465C14.4719 6.70755 14.6609 6.80134 14.8589 6.82124C15.2279 6.81082 15.5429 6.49914 15.5699 6.1003V5.98757C15.5969 4.66033 14.8328 3.45814 13.6709 2.99393Z" fill="#ADADAD"/>
</svg>
