<svg width="20" height="20" viewBox="0 0 20 20" fill="none" xmlns="http://www.w3.org/2000/svg">
<path d="M10 0C10 0 3.814 5.93333 0.357 9.14667C0.246997 9.25316 0.15837 9.38416 0.0968683 9.53117C0.0353666 9.67818 0.00236362 9.83791 0 10C0 10.2947 0.105357 10.5773 0.292893 10.7857C0.48043 10.994 0.734784 11.1111 1 11.1111H3V18.8889C3 19.1836 3.10536 19.4662 3.29289 19.6746C3.48043 19.8829 3.73478 20 4 20H7C7.26522 20 7.51957 19.8829 7.70711 19.6746C7.89464 19.4662 8 19.1836 8 18.8889V14.4444H12V18.8889C12 19.1836 12.1054 19.4662 12.2929 19.6746C12.4804 19.8829 12.7348 20 13 20H16C16.2652 20 16.5196 19.8829 16.7071 19.6746C16.8946 19.4662 17 19.1836 17 18.8889V11.1111H19C19.2652 11.1111 19.5196 10.994 19.7071 10.7857C19.8946 10.5773 20 10.2947 20 10C19.9986 9.8348 19.9634 9.67212 19.897 9.52427C19.8307 9.37643 19.7349 9.2473 19.617 9.14667C16.184 5.93333 10 0 10 0Z" fill="#CBCBCB"/>
</svg>
