<svg xmlns="http://www.w3.org/2000/svg" viewBox="0 0 100.03 81.5"><defs><style>.cls-1{fill:#fff;}</style></defs><g id="Layer_2" data-name="Layer 2"><g id="Layer_1-2" data-name="Layer 1"><path class="cls-1" d="M42.53,81a2.45,2.45,0,0,1-1.76-.73,2.5,2.5,0,0,1,0-3.54l10-10a2.5,2.5,0,0,1,3.53,3.54l-10,10A2.49,2.49,0,0,1,42.53,81Z"/><path class="cls-1" d="M100,46.5A22.49,22.49,0,0,1,88.36,66.22,2.5,2.5,0,0,1,86,61.84,17.5,17.5,0,0,0,77.53,29h0a17,17,0,0,0-3.48.36L71,30V26.5a21.5,21.5,0,0,0-42.92-1.79,22.67,22.67,0,0,1,15.15,13A2.49,2.49,0,0,1,41.93,41a2.41,2.41,0,0,1-1,.2,2.49,2.49,0,0,1-2.3-1.53A17.65,17.65,0,0,0,26.27,29.41q-.56-.12-1.11-.21h0A17.5,17.5,0,0,0,13.78,61.67,2.5,2.5,0,1,1,11.28,66,22.5,22.5,0,0,1,23.15,24a26.5,26.5,0,0,1,52.77,0c.53,0,1.07-.06,1.6-.06h0A22.5,22.5,0,0,1,100,46.5Z"/><path class="cls-1" d="M16,77.5a2.45,2.45,0,0,1-1.76-.73,2.5,2.5,0,0,1,0-3.54l17-17a2.5,2.5,0,0,1,3.53,3.54l-17,17A2.49,2.49,0,0,1,16,77.5Z"/><path class="cls-1" d="M61,81.5a2.45,2.45,0,0,1-1.76-.73,2.5,2.5,0,0,1,0-3.54l17-17a2.5,2.5,0,0,1,3.53,3.54l-17,17A2.49,2.49,0,0,1,61,81.5Z"/><path class="cls-1" d="M64.53,61a2.45,2.45,0,0,1-1.76-.73,2.5,2.5,0,0,1,0-3.54l10-10a2.5,2.5,0,0,1,3.53,3.54l-10,10A2.49,2.49,0,0,1,64.53,61Z"/><path class="cls-1" d="M42.53,64a2.45,2.45,0,0,1-1.76-.73,2.5,2.5,0,0,1,0-3.54l10-10a2.5,2.5,0,0,1,3.53,3.54l-10,10A2.49,2.49,0,0,1,42.53,64Z"/></g></g></svg>