<svg xmlns="http://www.w3.org/2000/svg" viewBox="0 0 121.58 76.16"><defs><style>.cls-1{fill:#26adf8;}.cls-2{fill:#fff;}</style></defs><g id="Layer_2" data-name="Layer 2"><g id="Layer_1-2" data-name="Layer 1"><path class="cls-1" d="M121.58,37a17.91,17.91,0,0,1-17.89,17.89H59.93a17.9,17.9,0,0,1,0-35.79h.54a21.07,21.07,0,0,1,42,0c.42,0,.85-.05,1.28-.05A17.92,17.92,0,0,1,121.58,37Z"/><path class="cls-2" d="M93.42,37.76a22.44,22.44,0,0,0-15.9-6.6c-.54,0-1.08,0-1.61.06a26.5,26.5,0,0,0-52.77,0h-.67a22.5,22.5,0,0,0,0,45h55a22.49,22.49,0,0,0,15.9-38.4Zm-15.9,33.4h-55a17.5,17.5,0,0,1,0-35h0a16.68,16.68,0,0,1,2.64.21h0l1.12.2A17.63,17.63,0,0,1,38.65,46.86,2.51,2.51,0,0,0,41,48.39a2.6,2.6,0,0,0,1-.2,2.5,2.5,0,0,0,1.32-3.28,22.66,22.66,0,0,0-15.15-13A21.5,21.5,0,0,1,71,33.66v3.49l3-.63a17.82,17.82,0,0,1,3.49-.36,17.5,17.5,0,1,1,0,35Z"/></g></g></svg>