<svg xmlns="http://www.w3.org/2000/svg" xmlns:xlink="http://www.w3.org/1999/xlink" viewBox="0 0 85.82 92.56"><defs><style>.cls-1{fill:url(#linear-gradient);}.cls-2{fill:url(#radial-gradient);}.cls-3{fill:url(#radial-gradient-2);}</style><linearGradient id="linear-gradient" x1="-15.59" y1="-29.19" x2="37.97" y2="71.36" gradientUnits="userSpaceOnUse"><stop offset="0" stop-color="#fff"/><stop offset="1" stop-color="#8960ff"/></linearGradient><radialGradient id="radial-gradient" cx="77.02" cy="35.2" r="8.8" gradientUnits="userSpaceOnUse"><stop offset="0" stop-color="#fff"/><stop offset="0.14" stop-color="#e3daff"/><stop offset="0.34" stop-color="#c3aeff"/><stop offset="0.53" stop-color="#aa8cff"/><stop offset="0.7" stop-color="#9874ff"/><stop offset="0.87" stop-color="#8d65ff"/><stop offset="1" stop-color="#8960ff"/></radialGradient><radialGradient id="radial-gradient-2" cx="53.55" cy="11.73" r="11.73" xlink:href="#radial-gradient"/></defs><g id="Layer_2" data-name="Layer 2"><g id="Layer_1-2" data-name="Layer 1"><path class="cls-1" d="M50.47,87a31.83,31.83,0,0,1-17.53,5.56H31.51a32,32,0,0,1,.72-64A32,32,0,0,1,50.47,87Z"/><polygon class="cls-2" points="79.24 32.98 85.82 35.2 79.24 37.42 77.02 44 74.79 37.42 68.22 35.2 74.79 32.98 77.02 26.4 79.24 32.98"/><polygon class="cls-3" points="56.51 8.77 65.28 11.73 56.51 14.7 53.55 23.47 50.59 14.7 41.82 11.73 50.59 8.77 53.55 0 56.51 8.77"/></g></g></svg>