<svg xmlns="http://www.w3.org/2000/svg" viewBox="0 0 79.04 75.72"><defs><style>.cls-1{fill:#fff;}.cls-2{fill:#ff7a56;}</style></defs><g id="Layer_2" data-name="Layer 2"><g id="Layer_1-2" data-name="Layer 1"><path class="cls-1" d="M28.28,29.82a11.08,11.08,0,0,1-3.46-.55L4,23.15a2.5,2.5,0,1,1,1.41-4.79L26.29,24.5a6.31,6.31,0,0,0,5-.44,7,7,0,0,0,2.95-9.12A6.23,6.23,0,0,0,30.5,11.7a6.61,6.61,0,0,0-8.21,4.42c-.07.24-.14.49-.19.74a2.5,2.5,0,0,1-4.9-1q.14-.63.33-1.26A11.62,11.62,0,0,1,32,6.94a11.17,11.17,0,0,1,6.66,5.8,11.95,11.95,0,0,1-5.09,15.74A11.36,11.36,0,0,1,28.28,29.82Z"/><path class="cls-1" d="M59.34,42.91c-1.6,0-3.21-.09-4.86-.19a47.36,47.36,0,0,1-8.94-1.37,2.5,2.5,0,1,1,1.22-4.85,43.33,43.33,0,0,0,8,1.23c4.92.29,8.79.51,12.68-1.54C71.71,34,73.92,31.38,74,28.57a7,7,0,0,0-3.25-6.1,6.55,6.55,0,0,0-3.45-.82c-3.78.14-6.25,4.32-6.23,7a3.63,3.63,0,0,0,.06.64,2.5,2.5,0,0,1-4.93.82,8.52,8.52,0,0,1-.13-1.42c0-4.76,3.88-11.79,11-12.06a11.43,11.43,0,0,1,6.18,1.51A12,12,0,0,1,79,28.76c-.13,3.25-1.83,8-9.25,11.85A21.32,21.32,0,0,1,59.34,42.91Z"/><path class="cls-1" d="M46.28,75.72a7.53,7.53,0,0,1-2.87-.56,6.23,6.23,0,0,1-3.52-3.77,9.23,9.23,0,0,1,.58-7.14,6.78,6.78,0,0,1,.55-.88,2.5,2.5,0,1,1,4.07,2.9,2.18,2.18,0,0,0-.2.33,4.21,4.21,0,0,0-.29,3.1,1.25,1.25,0,0,0,.73.84,2.8,2.8,0,0,0,1.49.13,5.34,5.34,0,0,0,3.33-2.76c.68-1.41.35-3-1-4.84-1.14-1.56-2.83-2.11-5.7-3A22.78,22.78,0,0,0,39,59.3a2.5,2.5,0,1,1,.38-5,26.37,26.37,0,0,1,5.52,1c3,.88,6.13,1.79,8.34,4.8,3.12,4.27,2.52,7.77,1.46,10a10.28,10.28,0,0,1-6.79,5.47A7.57,7.57,0,0,1,46.28,75.72Z"/><path class="cls-2" d="M51,19.6a2.42,2.42,0,0,1-1.29-.36,2.5,2.5,0,0,1-.85-3.43l2-3.35H46.41l-.79-1.24a2.57,2.57,0,0,1-.09-2.52l3.83-7.36A2.5,2.5,0,0,1,53.8,3.66l-2,3.8h4.81l.78,1.3a2.57,2.57,0,0,1,0,2.6l-4.27,7A2.5,2.5,0,0,1,51,19.6Z"/><path class="cls-2" d="M66.4,67.36A2.48,2.48,0,0,1,65.1,67a2.51,2.51,0,0,1-.84-3.44l2-3.34H61.84L61.05,59A2.57,2.57,0,0,1,61,56.46l3.83-7.36a2.5,2.5,0,0,1,4.44,2.31l-2,3.81h4.82l.78,1.31a2.6,2.6,0,0,1,0,2.6l-4.26,7A2.51,2.51,0,0,1,66.4,67.36Z"/><path class="cls-2" d="M26.38,59.38a2.49,2.49,0,0,1-2.14-3.79l4.11-6.78H21.71A2.6,2.6,0,0,1,19.4,45l5.66-10.88a2.5,2.5,0,0,1,4.44,2.31l-3.85,7.38h7a2.6,2.6,0,0,1,2.24,3.94L28.52,58.18A2.49,2.49,0,0,1,26.38,59.38Z"/><path class="cls-1" d="M2.5,61.5a2.5,2.5,0,0,1-.88-4.84l4.89-1.85a48.72,48.72,0,0,1,9.06-2.75A2.5,2.5,0,0,1,16.4,57a44.75,44.75,0,0,0-8.12,2.5L3.39,61.34A2.54,2.54,0,0,1,2.5,61.5Z"/></g></g></svg>