<svg xmlns="http://www.w3.org/2000/svg" xmlns:xlink="http://www.w3.org/1999/xlink" viewBox="0 0 92.03 96.33"><defs><style>.cls-1{fill:#fff;}.cls-2{fill:url(#linear-gradient);}</style><linearGradient id="linear-gradient" x1="27.43" y1="25.54" x2="27.43" y2="82.12" gradientUnits="userSpaceOnUse"><stop offset="0" stop-color="#fff"/><stop offset="1" stop-color="#409fff"/></linearGradient></defs><g id="Layer_2" data-name="Layer 2"><g id="Layer_1-2" data-name="Layer 1"><path class="cls-1" d="M47.07,49.69l-.45-.44v-30c-.41-13.09-10.24-19-19.2-19s-18.76,6-19.18,19V49.25l-.45.44C0,57.3-2.12,68.59,2.19,79.14S16,96.33,26.86,96.33H28c10.89,0,20.34-6.58,24.66-17.18S54.83,57.31,47.07,49.69Zm-4,34.66a22.16,22.16,0,0,1-15.71,6.7A22.27,22.27,0,0,1,12.64,52.34a2.63,2.63,0,0,0,.87-2V19.19a13.92,13.92,0,0,1,27.83,0v31.2a2.63,2.63,0,0,0,.89,2,22.28,22.28,0,0,1,.89,32Z"/><path class="cls-2" d="M37.54,72.6a11,11,0,0,1-10.11,7.17,10.94,10.94,0,0,1-3.62-21.21l1-.36V50.47a2.64,2.64,0,0,1,2.64-2.64h0a2.64,2.64,0,0,1,2.64,2.64V58.2l1,.36a10.92,10.92,0,0,1,6.49,14Z"/><path class="cls-1" d="M91.34,30a2.61,2.61,0,0,0-2-.87,2.65,2.65,0,0,0-1.77.68l-7.88,7.84v-35a2.64,2.64,0,1,0-5.28,0v35l-7.94-7.89a2.64,2.64,0,0,0-3.73,3.73L75.2,45.89a2.64,2.64,0,0,0,3.73,0l12.59-12.6A2.61,2.61,0,0,0,91.34,30Z"/></g></g></svg>