<svg xmlns="http://www.w3.org/2000/svg" xmlns:xlink="http://www.w3.org/1999/xlink" viewBox="0 0 86.74 96.3"><defs><style>.cls-1{fill:#fff;}.cls-2{fill:url(#linear-gradient);}</style><linearGradient id="linear-gradient" x1="59.68" y1="8.32" x2="59.17" y2="91.69" gradientUnits="userSpaceOnUse"><stop offset="0" stop-color="#fff"/><stop offset="1" stop-color="#409fff"/></linearGradient></defs><g id="Layer_2" data-name="Layer 2"><g id="Layer_1-2" data-name="Layer 1"><path class="cls-1" d="M79,49.66l-.45-.44v-30C78.09,6.12,68.26.16,59.3.16s-18.76,6-19.18,19V49.22l-.45.44c-7.76,7.61-9.91,18.9-5.6,29.45S47.85,96.3,58.74,96.3h1.14c10.89,0,20.34-6.58,24.66-17.18S86.71,57.28,79,49.66ZM75,84.32a22.11,22.11,0,1,1-30.48-32,2.63,2.63,0,0,0,.87-2V19.16a13.92,13.92,0,0,1,27.83,0v31.2a2.63,2.63,0,0,0,.89,2,22.28,22.28,0,0,1,.89,32Z"/><path class="cls-2" d="M69.42,72.57a10.81,10.81,0,1,1-13.73-14l1-.36V18.71a2.64,2.64,0,0,1,5.28,0V58.17l1,.36a10.92,10.92,0,0,1,6.49,14Z"/><path class="cls-1" d="M37.23.78a2.75,2.75,0,0,0-3.92.08L28.69,5.4,24.16.87a2.77,2.77,0,0,0-3.85,0,2.76,2.76,0,0,0-.07,3.89l3.89,3.9a6.14,6.14,0,0,0,1.38,1.05L26,10,26,15.06l-.81.12A11.88,11.88,0,0,0,19,18.05l-.5.43-4.69-2.72v-.54a6.56,6.56,0,0,0-.22-1.7L12.22,8.2A2.79,2.79,0,0,0,9.54,6.13a2.9,2.9,0,0,0-.71.1,2.76,2.76,0,0,0-2,3.38l1.6,6.28L2.21,17.55a1.77,1.77,0,0,0-.31.08A2.76,2.76,0,0,0,2.76,23a3.07,3.07,0,0,0,.92-.14L9,21.45a6.72,6.72,0,0,0,1.58-.64l.46-.27,4.5,2.61-.18.69a12.22,12.22,0,0,0,0,6.24l.18.68-4.47,2.59-.46-.26A6.49,6.49,0,0,0,9,32.44L3.56,31a2.44,2.44,0,0,0-.66-.09,2.77,2.77,0,0,0-.63,5.46l6.26,1.71L6.87,44.3a2.76,2.76,0,0,0,2,3.37,2.48,2.48,0,0,0,.71.1,2.79,2.79,0,0,0,2.68-2.06l1.4-5.33a6.05,6.05,0,0,0,.21-1.7v-.53l4.58-2.67.51.45a11.94,11.94,0,0,0,6.3,3L26,39v5.33l-.47.27a6.33,6.33,0,0,0-1.36,1L20.3,49.55a2.8,2.8,0,0,0-.8,1.9,2.77,2.77,0,0,0,.8,2,2.73,2.73,0,0,0,1.94.84,2.78,2.78,0,0,0,2-.81l4.2-4.18h.38a2.77,2.77,0,0,0,2.77-2.76V36.25a2.77,2.77,0,0,0-2.77-2.77H26.93a6.45,6.45,0,0,1,0-12.9h1.84a2.77,2.77,0,0,0,2.77-2.77L31.49,10,32,9.7a6.29,6.29,0,0,0,1.36-1l4-4A2.75,2.75,0,0,0,37.23.78Z"/></g></g></svg>