<svg xmlns="http://www.w3.org/2000/svg" viewBox="0 0 1024 1019" xml:space="preserve"><path fill="#FEF202" d="M910.417 960.949s.032-.04-.218-.328c-1.194.097-2.14.483-3.361.812-1.845 1.114-3.413 2.284-4.978 3.453.004 0-.018-.033-.38.002-6.403 3.375-12.442 6.717-18.866 10.068-6.167 2.574-11.952 5.139-18.148 7.726-15.093 3.469-29.772 6.914-44.909 10.289-9.744.586-19.031 1.803-28.32 1.814-103.653.13-207.305.072-310.958.07-83.155-.003-166.31.057-249.466-.077-9.282-.015-18.563-1.113-28.22-1.774-1.642-.171-2.907-.277-4.331-.639-1.203-.343-2.247-.43-3.668-.611-3.423-.67-6.468-1.246-9.74-2.075-1.11-.363-1.993-.474-3.2-.672-.768-.078-1.212-.07-1.905-.155-.602-.092-.954-.089-1.53-.374-12.247-4.553-24.27-8.817-36.542-13.235-.626-.235-1.004-.316-1.55-.694-4.173-2.263-8.177-4.23-12.334-6.356-.153-.16-.57-.307-.697-.61-1.468-.942-2.809-1.582-4.334-2.372-.185-.15-.647-.268-.76-.574-1.424-.991-2.735-1.677-4.193-2.508-.146-.147-.542-.269-.68-.576-2.824-1.982-5.511-3.657-8.32-5.488-.12-.157-.481-.32-.606-.633-12.38-11.955-24.722-23.508-36.841-35.289-3.651-3.549-6.688-7.73-10.027-11.768-.021-.146-.222-.361-.248-.696-.694-1.142-1.362-1.95-2.056-2.728-.025.029.05.015.04-.317-.673-1.13-1.336-1.93-2.027-2.699-.028.032.056.023.038-.312-.68-1.16-1.34-1.986-2.083-3.19-.349-.816-.616-1.254-.828-1.666.054.026-.002.041-.227-.221-.753-1.015-1.281-1.768-1.813-2.77-.378-.745-.753-1.242-1.269-2.098-.68-1.23-1.219-2.101-1.667-3.039.09-.067-.251-.266-.33-.631-1.358-1.565-2.638-2.763-3.917-3.962 0 0 .052-.046.357-.344-.586-1.421-1.476-2.545-2.367-3.669 0 0 .059-.033.354-.34-.256-.763-.809-1.22-1.361-1.677 0 0 .062-.018.407-.343-.165-1.862-.675-3.4-1.103-5.044.056-.319-.064-.437-.298-.842-1.18-3.23-2.231-6.132-3.567-8.896-.396-.819-1.597-1.249-2.43-1.857 0 0 .058-.035.354-.258.206-.741.116-1.26.01-2.194-.29-1.715-.44-3.06-.864-4.309-7.516-22.11-10.754-44.875-10.751-68.183.021-186.558-.019-373.117.034-559.675.008-28.268 5.174-55.595 16.544-81.565 3.99-9.111 8.66-17.924 13.185-27.246-.059-.795-.282-1.218-.505-1.64 0 0 .046.029.243.322 2.138-2.17 4.079-4.633 6.325-7.236 2.596-3.143 4.966-6.089 7.15-9.166 2.069-2.914 3.943-5.966 5.91-9.307-.209-.434-.426-.519-.642-.604l.424.214c.447-.293.53-.771.614-1.25 0 0 .029.063.16.362.37.282.61.266 1.214.188 2.679-2.795 4.993-5.53 7.652-8.532.26-.999.175-1.73.09-2.46 0 0 .199-.359.56-.022 1.102-.011 1.842-.359 2.927-.82 3.642-3.18 6.937-6.248 10.355-9.348.29-.127.38-.271.739-.578 3.021-2.29 5.696-4.466 8.678-6.695.734-.47 1.162-.885 1.92-1.35 11.382-6.619 22.376-13.292 33.522-19.699 4.408-2.534 9.157-4.475 14.01-6.69.58-.138.902-.27 1.577-.382 1.566-.574 2.78-1.17 4.285-1.755.656-.126 1.02-.262 1.747-.354 6.26-1.85 12.154-3.744 18.439-5.6 1.644-.255 2.898-.548 4.466-.727 1.27-.357 2.227-.827 3.493-1.234.935-.027 1.558-.118 2.398-.07.954-.21 1.693-.56 2.62-.794.19.115.632.116.632.116s.409-.167.715-.013c1.996-.33 3.685-.812 5.68-1.22.921-.01 1.538-.096 2.407-.092 1.063-.046 1.874-.181 3.03-.251 1.48-.148 2.614-.36 4.13-.482 3.766-.37 7.15-.832 11.005-1.252 5.802.03 11.133.009 16.465.01 188.936.007 377.872.018 567.027.327 2.512.471 4.806.643 7.485.988 1.786.196 3.185.218 5.013.369 2.503.12 4.577.11 6.651.1 0 0-.066.017.023.357 5.786 1.509 11.464 2.785 17.187 3.802 2.881.512 5.846.556 8.772.812 0 0-.05.044-.11.359 1.335.84 2.73 1.366 4.466 2.113.875.308 1.408.393 1.961.602.02.124.373.209.373.209s.283-.223.508-.111c.553.1.882.088 1.398.333 1.582.699 2.976 1.14 4.665 1.706.712.206 1.13.287 1.693.66 3.093 1.334 6.04 2.376 9.241 3.649.9.402 1.546.572 2.39 1.022 1.595.867 2.992 1.455 4.789 2.26 1.81.212 3.219.207 4.629.202 0 0-.048.047-.321.258.175.743.624 1.276 1.184 2.045.816.527 1.521.817 2.39 1.232.164.124.571.195.571.195s.38-.16.49.092c.987.746 1.866 1.242 2.912 1.867.566.255.966.38 1.553.79 1.187.743 2.187 1.2 3.582 1.865 1.139.02 1.883-.166 2.627-.353 0 0-.019.041-.361.22.287.867.917 1.557 1.704 2.557 2.941 2.012 5.725 3.714 8.525 5.389.015-.026-.036-.01.072.31 1.424 1.131 2.741 1.944 4.244 2.995 1.337 1.025 2.487 1.813 3.78 2.913 1.105.87 2.07 1.43 3.412 2.196.792-.059 1.205-.323 1.618-.588 0 0-.031.062-.222.428.291.446.773.527 1.255.608 0 0-.06.032-.354.249.8 1.426 1.895 2.635 3.129 4.145 1.147 1.078 2.154 1.856 3.162 2.634 0 .001.002.002.089.33 1.711 1.556 3.336 2.784 5.354 4.131.614-.046.833-.212 1.052-.377 0 0-.024-.023-.015.444.53.454 1.052.442 1.574.43 0 0-.054.04-.25.414.289.446.772.519 1.255.591 0 0-.057.036-.257.41.285.447.771.519 1.257.59 0 0-.057.036-.252.409.287.446.77.519 1.252.592 0 0-.059.037-.397.341.901 1.082 2.14 1.86 3.378 2.638 0 0-.01.037-.395.2-.26.709-.132 1.255.064 2.141 1.56 1.72 3.05 3.1 4.949 4.487.557-.22.706-.45.854-.678 0 0 .356.199.046.647-.116 1.038.078 1.63.374 2.525.447.54.791.776 1.44 1.104.425-.079.548-.25.671-.422 0 0-.043.054-.244.354 1.114 2 2.43 3.701 3.752 5.487.007.085.162.169.214.51.76 1.158 1.468 1.974 2.183 2.773.006-.018-.034.007.062.333a71.35 71.35 0 0 0 3.827 4.77c.027-.039-.065-.058-.036.273.722 1.115 1.414 1.9 2.125 2.649.02-.036-.06-.052-.03.288.693 1.203 1.355 2.068 2.19 3.28.764.325 1.357.303 1.95.282 0 0-.029.048-.349.272.165 1.427.65 2.63 1.207 4.164.74 1.178 1.409 2.024 2.201 3.176 1.218 2.339 2.31 4.372 3.366 6.687.521 1.003 1.081 1.724 1.743 2.847.248.639.394.874.466 1.222-.072.112.1.319.1.319s.268-.025.344.307c.42.92.765 1.507 1.102 2.458 2.17 4.942 4.349 9.52 6.556 14.41.472 1.28.915 2.247 1.333 3.597 1.193 3.276 2.41 6.169 3.61 9.321.078.596.173.931.13 1.526.636 2.387 1.414 4.514 2.193 6.945.076.493.149.682.171 1.216.455 1.58.962 2.813 1.45 4.307.082.594.182.928.173 1.449.054.736.217 1.286.34 2.187.132.782.305 1.212.383 2.012.499 2.771 1.09 5.173 1.634 7.953.087.862.224 1.347.255 2.174.353 2.097.812 3.852 1.246 6.001.11 1.437.244 2.48.238 3.794.557 5.427 1.253 10.581 1.91 16.202-.033 187.648-.026 374.83-.014 562.012 0 5.16.064 10.32-.122 15.67-.12 1.082-.018 1.975.021 3.231-.027 1.098.008 1.833-.291 2.684-.476 2.047-.619 3.979-.941 6.257-.175 1.114-.17 1.882-.315 2.918-.156 1.425-.16 2.58-.254 4.095-.098 1.098-.106 1.836-.332 2.866-1.5 6.96-2.387 13.733-4.137 20.276-4.953 18.52-11.548 36.42-21.324 53.029-1.587 2.695-2.835 5.59-4.212 8.403.028.01.006-.04-.296.09-.771 1.085-1.24 2.04-1.867 3.205-.49.825-.823 1.438-1.464 2.193-1.04 1.228-1.77 2.314-2.79 3.53-.916 1.16-1.543 2.193-2.465 3.358-1.214 1.6-2.132 3.066-3.332 4.65-.717.762-1.152 1.405-1.842 2.249-.782.86-1.307 1.521-1.983 2.207-.354.162-.4.34-.445.653-.154.093-.298.423-.549.491-.47.524-.69.98-.895 1.438.014.003-.004-.02-.317.103-.896 1.061-1.479 1.999-2.285 3.325.078.791.38 1.194.682 1.598 0 0-.053-.024-.437-.232-.454.283-.524.775-.593 1.267 0 0-.037-.055-.41-.254-.446.285-.519.77-.592 1.255 0 0-.035-.056-.41-.254-.446.285-.518.77-.59 1.254 0 0-.035-.056-.407-.247-.445.289-.519.768-.592 1.247 0 0-.034-.056-.5-.169-.518.458-.568 1.03-.619 1.6 0 0-.212.378-.768.188-.747.339-.94.866-1.133 1.394 0 0-.012-.065-.459-.142-.51.469-.573 1.014-.636 1.56 0 0-.209.374-.693.082-1.383.964-2.282 2.22-3.18 3.477 0 0-.05-.048-.42-.236-.444.29-.518.768-.593 1.247 0 0-.035-.057-.408-.246-.446.288-.52.766-.592 1.244 0 0-.04-.052-.216-.419-.733-.25-1.289-.132-2.182.07-1.427 1.156-2.515 2.226-3.82 3.588-.197.534-.176.776-.155 1.018l-.219.222s-.326-.006-.819-.004c-2.197 1.442-3.902 2.883-5.956 4.366-1.873 1.318-3.397 2.593-5.26 3.933-2.074 1.426-3.81 2.788-5.812 4.429-.238.749-.21 1.219-.18 1.689M146.08 710.302c-.253-.211-.505-.422-1.046-1.257-8.23-7.181-18.614-3.945-21.602 6.364-1.97 6.796-4.863 13.322-7.222 20.011-.418 1.188-.384 2.594-.313 3.886.515 9.402.974 18.81 1.735 28.194.185 2.275 1.43 4.464 2.515 7.247 1.146.56 2.29 1.12 3.88 2.124.948.424 1.896.848 3.247 1.83 5.389 4.562 6.102 10.287 1.695 19.089-1.43 1.639-4.176 3.388-4.05 4.897.408 4.866 1.874 9.642 3.093 15.07 1.155.9 2.31 1.8 3.822 3.176.665.418 1.33.835 2.288 1.784.807.595 1.614 1.19 2.805 2.262.862.524 1.725 1.048 3.205 2.048 3.17.468 6.338.937 9.955 2.088 3.098 6.202 2.143 8.682-3.752 11.227-1.02.44-1.506 2.507-1.903 3.918-1.048 3.722-1.912 7.497-3.374 11.547-.704.711-1.408 1.422-2.796 2.422-.23 2.055-.46 4.11-.251 6.784 6.61 2.084 9.902.394 11.357-6.657 3.105.703 6.426.927 9.25 2.23 3.515 1.62 5.946 1.39 8.465-2.333.432-1.837 5.667.757 3.146-4.205-.577-.839-1.154-1.678-2.007-3.21.035-2.834.07-5.668.556-8.733.144-.3.288-.6 1.073-1.167 1.412-.856 2.722-2.047 4.253-2.513 8.374-2.551 16.775-5.026 25.222-7.324 5.96-1.621 6.892-.976 7.749 5.112.37 2.629 1.443 3.477 3.975 2.805 5.63-1.496 11.44-2.582 12.845-9.783.33-1.692 1.725-3.176 3.064-5.175.495-.877.99-1.754 2-3.13.445-.582.891-1.164 1.93-1.945 2.053 1.196 4.38 2.084 6.116 3.633 36.108 32.206 76.57 57.34 121.452 75.448 39.675 16.008 80.887 25.506 123.47 28.54 34.48 2.455 68.851.768 102.97-5.447 31.906-5.813 62.721-15.05 92.416-28.05 42.615-18.655 81.031-43.8 115.067-75.463 33.775-31.42 61.662-67.43 83.447-108.205 19.2-35.938 32.902-73.819 40.759-113.711 6.778-34.419 9.957-69.268 6.907-104.32-1.77-20.343-5.053-40.564-7.98-60.794-1.093-7.55-3.107-14.966-4.168-22.957 1.08-2.07 2.94-4.08 3.101-6.218.641-8.504.037-16.832-4.559-24.514-2.36-3.947-3.88-9.263-.108-12.4 2.123-1.765 3.291-3.719 4.216-4.6-6.188-12.752 3.057-21.803 5.68-32.104-1.046-.717-2.131-1.462-3.524-2.96-.47-4.356-2.272-9.177-.969-12.914.96-2.755 5.978-4.094 9.63-6.336-2.008-3.45-4.209-7.233-6.62-11.46-.199-.277-.462-.462-1.095-1.245-.408-1.694-.783-3.397-1.234-5.079-.392-1.46-.87-2.897-1.643-4.825-.599-.496-1.197-.993-2.179-2.085-2.065-3.852-4.028-7.793-8.946-8.763-.4-.08-.942-.623-1.012-1.022-.742-4.24-4.43-4.916-7.515-6.342-4.212-1.948-8.414-3.92-12.616-5.889-5.028-2.355-7.938-.938-8.84 4.55-.314 1.918.303 4.004-.097 5.889-.424 2-1.052 4.438-2.473 5.648-2.999 2.55-6.573 4.423-10.52 6.804-1.58 1.17-3.161 2.339-5.427 3.23-.959-1.131-2.024-2.19-2.862-3.404-26.824-38.853-59.295-72.27-97.469-99.982-36.638-26.598-76.63-46.704-119.945-60.147-34.382-10.671-69.578-16.642-105.477-18.162-35.417-1.5-70.474 1.75-105.162 9.268-39.155 8.485-76.217 22.459-111.213 41.853-53.53 29.664-98.267 69.378-134.304 118.816-22.672 31.102-40.541 64.768-53.719 100.993-9.997 27.484-17.302 55.622-21.056 84.559-3.276 25.256-4.833 50.644-3.37 76.213 1.366 23.84 4.246 47.425 9.47 70.68 7.845 34.913 19.916 68.333 36.6 100.049.928 1.765 1.058 3.95.882 5.426-.251-.133-.502-.265-.89-.884z"/><path fill="#FEFBC6" d="M53.287 117.977c-4.36 8.949-9.03 17.762-13.02 26.873-11.37 25.97-16.536 53.297-16.544 81.565-.053 186.558-.013 373.117-.034 559.675-.003 23.308 3.235 46.073 10.751 68.183.425 1.25.573 2.594.575 4.31-.467.415-.66.415-.852.414-2.513-8.257-5.165-16.476-7.504-24.782-2.958-10.505-4.957-21.183-4.666-33.104.002-38.385.011-75.841-.036-113.297-.002-1.593-.523-3.185-.803-4.777-.048-19.042-.097-38.083.187-57.911.446-1.772.658-2.757.658-3.742-.005-135.833-.026-271.666-.045-407.499 1.644-34.38 11.596-66.217 29.957-95.805.909-.113 1.143-.108 1.376-.103z"/><path fill="#FBF89C" d="M202.968 993.069c9.282.596 18.563 1.694 27.845 1.709 83.155.134 166.31.074 249.466.076 103.653.003 207.305.061 310.958-.069 9.289-.011 18.576-1.228 28.329-1.548.469.514.473.692.477.87-6.342.963-12.683 2.764-19.025 2.77-168.772.159-337.544.267-506.315.015-30.294-.045-60.672 2.209-91.325-2.275-.424-.766-.417-1.157-.41-1.548z"/><path fill="#FFF" d="M804.696 19.22c-188.937-.01-377.873-.02-566.81-.028-5.33 0-10.662.02-16.447-.32-.47-.56-.485-.767-.5-.974 1.35-.3 2.7-.86 4.051-.86 194.051-.04 388.102-.038 582.153-.032.829 0 1.658.092 2.438.815-1.661.916-3.273 1.158-4.885 1.4zM1000.766 800.972c-.035-.735-.07-1.47.234-2.736.2-1.439.06-2.345-.078-3.252-.034-5.16-.097-10.321-.098-15.481-.012-187.182-.02-374.364.282-562.204.218-2.202.127-3.747.036-5.292.608.36 1.651.635 1.741 1.096.25 1.285.116 2.648.116 3.98.001 192.604.003 385.208-.028 577.812 0 1.743-.434 3.486-1.176 5.597-.684.406-.856.443-1.029.48z"/><path fill="#F8F8F7" d="M21.565 214.099c.408 135.62.429 271.452.434 407.285 0 .985-.212 1.97-.586 3.277-.316-1.007-.42-2.335-.42-3.663-.001-134.402.005-268.804.02-403.206 0-1.16.106-2.32.552-3.693z"/><path fill="#FDFABE" d="M968.89 898.92c1.404-2.802 2.652-5.696 4.239-8.391 9.776-16.609 16.37-34.51 21.324-53.03 1.75-6.542 2.637-13.316 4.395-20.255.65-.262.821-.252.993-.243-1.747 9.659-3.13 19.403-5.37 28.945-1.513 6.444-3.772 12.815-6.516 18.846-5.068 11.14-10.737 22.006-16.772 33.21-1.175.456-1.734.687-2.293.919z"/><path fill="#FEFAB9" d="M61.356 908.521c3.318 3.892 6.355 8.073 10.006 11.622 12.12 11.781 24.46 23.334 36.413 35.371-1.167.446-2.031.496-2.896.547 0 0 .094-.02-.005-.229-.397-.412-.695-.616-.993-.819 0 0 .121-.001-.042-.22-.763-.392-1.36-.564-1.96-.736 0 0 .096-.019-.005-.228-.403-.409-.704-.609-1.006-.809 0 0 .115-.003.013-.204-.404-.4-.706-.6-1.007-.8 0 0 .101.01.06-.304-1.046-.76-2.05-1.205-3.053-1.651 0 0 .092-.023-.015-.237-.422-.413-.737-.614-1.052-.814-.883-.76-1.766-1.518-2.79-2.935-1.186-1.134-2.231-1.611-3.277-2.088-.304.039-.531-.075-.819-.815-.446-.702-.755-.93-1.063-1.16 0 0 .106.01.086-.296-1.04-1.091-2.058-1.877-3.078-2.663 0 0 .097-.022 0-.23a5.404 5.404 0 0 0-1.003-.806s.116-.003.01-.2c-.408-.4-.71-.6-1.01-.8 0 0 .116-.003.01-.2a6.115 6.115 0 0 0-1.01-.8s.116-.003.01-.2c-.408-.4-.71-.6-1.01-.8 0 0 .116-.003.01-.2a6.104 6.104 0 0 0-1.01-.8s.116-.003.01-.201a6.066 6.066 0 0 0-1.01-.798s.115-.003.01-.202c-.406-.4-.708-.598-1.01-.798 0 0 .092.01.097-.268-.368-.762-.742-1.245-1.115-1.729-5.565-6.441-11.129-12.883-16.53-19.841.454-.898.744-1.278 1.034-1.659z"/><path fill="#FDFABE" d="M154.539 33.297c-4.594 2.211-9.343 4.152-13.75 6.686-11.147 6.407-22.14 13.08-33.554 19.42-.692-.654-1.026-1.08-1.36-1.506 7.007-4.634 13.813-9.615 21.079-13.797 6.122-3.523 12.778-6.12 19.798-8.97 2.995-.508 5.391-1.17 7.787-1.833z"/><path fill="#F4F4F2" d="M21.078 683.497c.356 1.132.877 2.724.88 4.317.046 37.456.037 74.912.018 112.845-.342-.86-.94-2.197-.943-3.535-.047-37.722-.035-75.444.045-113.627z"/><path fill="#FDFABD" d="M820.494 994.055c-.455-.126-.46-.304-.472-.747 14.672-3.712 29.351-7.157 44.489-10.26.484.587.51.83.535 1.073-14.27 5.214-28.66 9.893-44.552 9.934z"/><path fill="#FCFADB" d="M202.592 993.004c.369.456.362.847.342 1.532-6.046-.65-12.144-1.294-18.095-2.609-7.61-1.682-15.188-3.63-22.617-5.977-6.474-2.046-12.723-4.805-18.832-7.608 2.118.19 4.007.709 5.876 1.292 9.728 3.035 19.452 6.086 29.177 9.132.352-.003.704-.006 1.477.333.982.519 1.544.694 2.488.895 1.146-.004 1.91-.033 2.674-.062 3.044.576 6.089 1.152 9.746 2.126 1.605.454 2.599.509 3.592.564 1.266.105 2.531.21 4.172.382zM127.223 967.886s.417.148.659.617c4.299 2.426 8.356 4.384 12.413 6.343.378.08.756.162 1.397.703a9.749 9.749 0 0 1 .389 2.304c-10.269-3.326-19.499-8.566-27.696-15.532 1.15-.384 2.016-.422 2.882-.46 0 0 .396.121.621.581 1.56 1.14 2.893 1.82 4.227 2.5 0 0 .462.119.737.579 1.64 1.095 3.006 1.73 4.37 2.365z"/><path fill="#FEFAB9" d="M142.256 977.932c-.217-.694-.26-1.308-.316-2.23 12.008 3.959 24.032 8.223 36.279 12.776-9.501-2.758-19.225-5.81-28.953-8.844a80.577 80.577 0 0 0-6.045-1.63c-.407.02-.79.006-.965-.072z"/><path fill="#FEF9CA" d="M61.335 908.375c-.27.527-.56.907-1.149 1.486-5.08-7.449-9.878-15.087-14.618-22.761-.395-.64-.402-1.52-.605-2.671 1.264.816 2.544 2.014 3.934 3.632.11.419.207.645.207.645.54.87 1.078 1.742 1.78 3.277.525 1.123.888 1.583 1.25 2.042.529.753 1.057 1.506 1.808 2.498.221.24.174.218.174.218.267.438.534.876.88 2.034.754 1.54 1.429 2.362 2.104 3.183 0 0-.084.009-.054.31.698 1.1 1.367 1.899 2.036 2.698 0 0-.076.014-.044.32.713 1.112 1.394 1.92 2.075 2.728 0 0 .2.215.222.361z"/><path fill="#FDFABE" d="M72.568 90.926c-1.96 2.992-3.834 6.044-5.903 8.958-2.184 3.077-4.554 6.023-7.213 9.108-.37.083-.494-.034-.478-.385 0-.818-.017-1.286-.034-1.754 3.76-5.225 7.521-10.449 12.026-15.777 1.03-.12 1.316-.135 1.602-.15z"/><path fill="#FDFBBA" d="M882.998 974.947c6.04-3.342 12.08-6.684 18.528-9.729.428.74.448 1.184.467 1.628-6.089 3.315-12.177 6.63-18.628 9.649-.364-.713-.366-1.13-.367-1.548z"/><path fill="#FEFAB6" d="M882.614 974.956c.385.408.387.826.39 1.557-5.728 2.704-11.456 5.094-17.57 7.546-.413-.181-.44-.424-.51-1.034 5.738-2.93 11.523-5.495 17.69-8.069z"/><path fill="#FEFAC8" d="M203.005 21.08c-.617.084-1.234.17-2.607.127-2.349.289-3.941.704-5.534 1.12l-.41.166s-.441-.001-1.002-.17c-1.195.124-1.83.417-2.465.71-.624.09-1.247.18-2.538.161-1.595.316-2.523.742-3.45 1.167-1.255.293-2.509.586-4.595.792-4.062.544-7.293 1.174-10.523 1.805 4.182-1.585 8.246-3.765 12.572-4.615 6.454-1.27 13.092-1.602 20.099-2.028.447.306.453.764.453.764z"/><path fill="#FDFABE" d="M849.881 25.589c-2.762.103-5.727.06-8.608-.453a207.794 207.794 0 0 1-17.19-3.836c8.482 1.061 17.058 2.496 25.798 4.289z"/><path fill="#FEF9CA" d="M41.153 872.735c.51 1.538 1.02 3.076 1.166 4.964-2.686-5.056-5.01-10.463-7.355-16.268.809.211 2.01.641 2.406 1.46 1.336 2.764 2.386 5.667 3.59 8.994.046.479.193.85.193.85z"/><path fill="#FDFABE" d="M95.805 68.337c-3.294 3.068-6.59 6.136-10.302 8.836-.468-.687-.518-1.004-.568-1.322 2.763-2.55 5.525-5.101 9.093-7.688 1.13.033 1.453.104 1.777.174zM169.492 26.973c3.62-.646 6.85-1.276 10.522-1.857-5.453 1.942-11.348 3.837-17.48 5.438-.004-.992.229-1.691.462-2.39.172-.046.343-.092.959.114.978-.206 1.513-.663 2.047-1.12 1.034-.056 2.067-.112 3.49-.185zM985.744 148.495c-2.18-4.578-4.358-9.156-6.277-13.969.967.009 1.674.253 2.381.497 0 0 .157.403.19.934.384 1.02.734 1.507 1.084 1.996 0 0-.097.026-.076.285.281.76.542 1.263.802 1.765.391.735.782 1.47 1.181 2.937.244 2.34.48 3.947.715 5.555zM1001.07 211.55c.163 2.002.254 3.547.076 5.283-.965-4.963-1.661-10.117-1.925-15.55.822-.281 1.212-.284 1.602-.288.059 3.366.117 6.732.247 10.555z"/><path fill="#FEFAC8" d="M162.619 28.2c.144.663-.089 1.362-.45 2.31-.49.384-.853.52-1.882.604-1.866.556-3.066 1.166-4.266 1.776a7.086 7.086 0 0 1-1.223.402c-2.655.668-5.05 1.33-7.666 1.792 4.89-2.417 10-4.633 15.487-6.884zM969.823 117.05c-.485-1.203-.97-2.406-1.113-3.85 3 4.156 5.656 8.553 8.3 13.376-.012.426-.101.513-.336.484-.547-.062-.86-.085-1.175-.098-1.093-2.033-2.186-4.066-3.418-6.76-.845-1.492-1.552-2.322-2.258-3.152z"/><path fill="#FDFABE" d="M105.04 61.086c-2.676 2.175-5.351 4.35-8.474 6.141-.51-.715-.572-1.046-.635-1.377 2.409-1.958 4.818-3.917 7.822-5.756.826.41 1.057.7 1.287.992zM81.652 81.223c-2.314 2.734-4.628 5.469-7.304 7.842-.378-.639-.394-.917-.41-1.195 1.761-2.23 3.523-4.46 6.049-6.742 1.065-.003 1.365.046 1.665.095z"/><path fill="#FEFAB9" d="M117.13 961.553c-.73.346-1.595.384-2.894.447-.433.025-.79.016-1.124-.278-.667-.44-1.002-.586-1.336-.732 0 0-.343.019-.651-.264-.616-.422-.923-.562-1.23-.702 0 0 .077.013.08-.292-.347-1.373-.696-2.442-1.044-3.51 2.687 1.674 5.374 3.349 8.198 5.33z"/><path fill="#FDFABE" d="M997.238 188.942c-.592-2.402-1.184-4.804-1.413-7.577.913-.37 1.461-.369 2.01-.368.38 2.397.76 4.793.8 7.596-.692.387-1.044.368-1.397.35zM910.888 55.135c-2.784-1.701-5.568-3.403-8.029-5.542.645-.506.966-.574 1.288-.643 0 0 .434.036.776.3.582.488.863.622 1.188.665 0 0-.078.058.048.252.413.387.7.58.987.772.89.446 1.782.893 2.877 1.919.424 1.145.645 1.711.865 2.277zM220.641 17.938c.313.167.329.374.328.893-3.402.772-6.786 1.233-10.564 1.307-.397-.585-.4-.782-.403-.98 1.361-.052 2.722-.105 4.787-.189 1.206-.296 1.708-.56 2.211-.824 0 0 .412-.154.956-.154.76-.016.975-.031 1.191-.047.4.012.799.023 1.494-.006zM873.987 35.237c-2.947-1.042-5.895-2.084-8.93-3.83-.045-.977-.004-1.25.037-1.524.425.037.85.074 1.724.372.687.487.967.622 1.29.668 0 0-.085.037.082.333 1.741.746 3.316 1.196 4.891 1.647 0 0-.084.092.021.289.365.813.625 1.429.885 2.045z"/><path fill="#FEFAC8" d="M985.772 148.807c-.264-1.92-.5-3.528-.73-5.54 1.602 2.735 3.2 5.876 4.518 9.357-.995.025-1.712-.289-2.43-.603-.443-.967-.886-1.934-1.358-3.214zM981.83 134.658c-.689.12-1.396-.123-2.354-.496-.597-.716-.942-1.303-1.414-2.289-.128-.398-.319-.672-.319-.672-.145-.236-.291-.471-.565-1.433a42.05 42.05 0 0 1-.27-2.68l.135-.13c1.62 2.416 3.194 4.875 4.787 7.7z"/><path fill="#FDFABE" d="M987.105 152.404c.743-.069 1.46.245 2.47.594.345.437.395.84.443 1.927.368 1.805.738 2.925 1.107 4.045 0 0-.077.006-.104.397-.114.96-.2 1.53-.287 2.099-1.218-2.893-2.436-5.786-3.629-9.062z"/><path fill="#FEFBC6" d="M922.02 950.855c1.704-1.44 3.409-2.88 5.538-4.41.702.362 1.265 1.171 1.216 1.21-2.306 1.832-4.665 3.597-7.277 5.133 0-.801.261-1.367.522-1.933z"/><path fill="#FDFABE" d="M59.146 109.132c-1.877 2.521-3.818 4.984-5.97 7.132 1.214-2.564 2.641-4.812 4.656-7.172.766-.12.946-.127 1.126-.134 0 0 .124.117.188.174z"/><path fill="#FEFBC6" d="M953.028 920.389c.526-.66 1.051-1.322 2.13-2.187.95-.237 1.346-.268 1.79-.254l.143.136c-1.79 2.252-3.58 4.505-5.725 6.846-.354.089-.44.021-.419-.308.027-.768.032-1.207.038-1.646 0 0 .018.023.222-.1.445-.543.687-.964.928-1.386 0 0 .144-.33.365-.523.222-.193.528-.578.528-.578z"/><path fill="#FDFABE" d="M804.914 19.52c1.394-.541 3.006-.783 4.888-1.32.858-.154 1.445-.015 2.133.653.1.846.092 1.164.078 1.482-2.293-.172-4.587-.344-7.099-.815z"/><path fill="#FEFAC8" d="M918.858 61.015c-1.15-.788-2.3-1.576-3.755-2.897-.92-1.37-1.535-2.207-2.117-3.087.032-.043.099-.127.099-.127 2.582 1.79 5.164 3.58 7.838 5.73.093.358.028.44-.32.42-.814-.027-1.28-.033-1.745-.04zM968.925 112.608c-.482.358-1.075.38-1.91-.277-.876-1.549-1.512-2.418-2.148-3.288 0 0 .078.016.06-.29-.73-1.083-1.443-1.86-2.155-2.638 0 0 .092.019.128-.336.074-.882.111-1.41.15-1.936 1.92 2.81 3.841 5.618 5.875 8.765z"/><path fill="#FDFABE" d="M998.715 197.1c-.46-1.754-.918-3.51-1.116-5.5.585-.029.909.178 1.233.384.388 1.419.776 2.838.805 4.658-.547.42-.735.439-.922.459zM1000.432 801.088a6.02 6.02 0 0 1 1.115-.252c-.01 1.774-.286 3.574-.831 5.772-.529.403-.787.4-1.045.39.142-1.931.285-3.863.76-5.91zM949.249 88.762c-1.49-1.38-2.98-2.76-4.215-4.373.87.033 1.483.3 2.097.567.582.456 1.165.912 1.863 2.115.162 1.062.208 1.377.255 1.691z"/><path fill="#FEFAC8" d="M856.342 28.899c-.533-.086-1.066-.171-1.953-.647-.368-.62-.374-.849-.372-1.078 2.572.341 5.145.682 7.86 1.419.143.395.072.484-.363.468-1.31.034-2.185.085-3.06.135-.329.012-.658.024-1.38-.104a4.699 4.699 0 0 0-.732-.193z"/><path fill="#FDFBBA" d="M910.864 958.98c1.736-1.36 3.472-2.723 5.62-4.08.412.004.558.142.54.446-.027.71-.033 1.117-.04 1.524-.433.336-.866.672-1.884 1.105-1.074.45-1.564.804-2.054 1.158 0 0-.018-.082-.352-.092-.832-.026-1.331-.043-1.83-.06z"/><path fill="#FEFBC6" d="M956.986 915.84c.917-1.466 1.835-2.933 3.21-4.412.642.191.775.425.855.688-1.107 1.906-2.214 3.812-3.64 5.843-.32.125-.415.034-.432-.353a56.684 56.684 0 0 1 .007-1.766z"/><path fill="#FDFABE" d="M956.545 97.702c-1.316-1.7-2.632-3.401-3.727-5.431 1.483.774 2.745 1.878 4.007 3.746-.092 1.071-.186 1.378-.28 1.685z"/><path fill="#FDFBBA" d="M921.67 950.898c.088.523-.172 1.089-.534 1.948-.55.875-1 1.456-2.07 2.103-1.089.075-1.556.084-2.024.093l-.22-.207a45.36 45.36 0 0 1 4.848-3.937z"/><path fill="#FDFABE" d="M962.947 103.558c.064.812.027 1.339-.074 2.26-1.299-1.102-2.533-2.596-3.561-4.45.408-.378.61-.394.812-.41.907.772 1.813 1.544 2.823 2.6zM993.036 169.893c-.777-2.128-1.555-4.255-1.96-6.492.838.457 1.304 1.023 1.768 1.59.051.433.102.866.175 1.994.02 1.433.018 2.17.017 2.908z"/><path fill="#FAFAF5" d="M108.81 956.065c.47 1.225.818 2.294 1.153 3.705-1.618-.8-3.223-1.94-4.956-3.395.737-.365 1.601-.415 2.893-.548.428-.082.789.081.91.238z"/><path fill="#FEFAC8" d="M874.24 35.468c-.513-.847-.773-1.463-1.1-2.326 1.858.55 3.782 1.346 5.402 2.507-.906.43-1.508.496-2.11.562-.646-.17-1.293-.341-2.192-.743zM993.038 170.196a189.4 189.4 0 0 1 .014-2.884c.985 1.403 1.958 3.174 2.574 5.265-1.026-.29-1.696-.9-2.366-1.51-.073-.189-.146-.378-.222-.87z"/><path fill="#FDFABE" d="M999.011 813.998c.004-1.155.009-2.31.412-3.737.4-.27.897-.27.897-.27h.498c-.013 1.24-.025 2.48-.649 3.874-.793.147-.976.14-1.158.133zM876.63 36.49c.404-.345 1.006-.41 2.059-.51 1.021.085 1.591.202 2.25.88.087.93.083 1.301.08 1.672-1.397-.587-2.794-1.175-4.389-2.042zM929.036 945.004c1.088-1.07 2.176-2.14 3.614-2.881.39.875.429 1.42.468 1.965 0 0-.053-.074-.259.03-.5.243-.72.46-.865.752 0 0-.417.143-.987.149-1.037 0-1.504-.008-1.971-.015z"/><path fill="#FEFAC8" d="M812.4 20.508c-.373-.491-.366-.809-.359-1.366 1.383-.204 2.76-.168 4.542.211.403.694.401 1.045.4 1.395-1.4-.022-2.798-.044-4.584-.24zM927.699 68.064c-1.095-1.209-2.19-2.418-2.965-3.867 1.643.857 2.968 1.954 3.986 3.428-.545.397-.783.418-1.021.44z"/><path fill="#FDFABE" d="M817.412 20.877c-.428-.48-.426-.83-.423-1.444a27.76 27.76 0 0 1 6.923 1.18c-1.923.374-3.997.383-6.5.264zM961.33 912.023c-.36-.17-.492-.404-.838-.728.465-1.152 1.092-2.184 2.08-3.286.362-.07.506.047.485.394-.015.81-.01 1.274-.005 1.737-.481.597-.962 1.193-1.722 1.883z"/><path fill="#FEFAC8" d="M209.592 19.084c.413.272.416.47.431.964-1.122.509-2.256.721-3.934.652-1.105-.436-1.666-.591-2.228-.746 1.774-.315 3.547-.63 5.73-.87zM881.419 38.75c-.397-.589-.393-.96-.38-1.61 1.593.19 3.179.658 4.886 1.47-1.287.347-2.697.352-4.506.14zM886.8 41.018c-.449-.532-.898-1.065-1.048-1.83 2.233.546 4.167 1.323 5.769 2.545-.644.56-.956.675-1.268.79l-.38.16s-.408-.072-.757-.508c-1.005-.676-1.66-.917-2.316-1.157zM992.923 164.61c-.543-.186-1.009-.752-1.706-1.469-.329-.485-.424-.82-.501-1.416.104-.828.191-1.397.314-2.395.682 1.347 1.326 3.123 1.893 5.28z"/><path fill="#FEFBC6" d="M105.346 61.032c-.536-.237-.767-.529-1.243-.956.24-.748.726-1.36 1.492-2.075.614.322.948.748 1.311 1.453-.398.693-.826 1.108-1.56 1.578z"/><path fill="#FDFABE" d="M927.838 68.365c.099-.322.337-.343.933-.387.932.088 1.507.2 2.164.95.077 1.117.071 1.594.065 2.07-1.008-.777-2.015-1.555-3.162-2.633z"/><path fill="#FEF9CA" d="M42.957 880.391a8.64 8.64 0 0 1 2.324 3.337c-.988-.778-1.647-1.878-2.324-3.337z"/><path fill="#FEFBC6" d="M965.598 904.28c.333-.615.666-1.228 1.422-2.159.918-.6 1.412-.885 1.949-1.137l.126.1c-.795 1.596-1.59 3.192-2.806 4.455-.512-.643-.601-.951-.69-1.26z"/><path fill="#FDFABE" d="M965.29 904.42c.398.168.487.476.677 1.256.1.471.05.897-.324 1.132-1.105.573-1.835.91-2.565 1.248l-.216-.176a22.493 22.493 0 0 1 2.428-3.46z"/><path fill="#FEFBF6" d="M84.929 939.405c.964.434 1.983 1.22 3.013 2.364-.978-.432-1.968-1.222-3.013-2.364z"/><path fill="#FEFAC8" d="M960.072 100.6c-.15.374-.352.39-.856.442-.302.035-.262.01-.28-.318-.754-1.141-1.489-1.955-2.223-2.768 0 0-.155-.084-.162-.17.088-.39.182-.698.39-1.471 1.103.997 2.091 2.461 3.13 4.284z"/><path fill="#FDFABE" d="M993.21 171.412c.72.265 1.39.875 2.338 1.526.324.216.37.39.11 1.024a342.7 342.7 0 0 0-.981 1.497c-.506-1.234-1.013-2.467-1.468-4.047zM853.681 27.026c.334.377.34.607.366 1.004-1.383-.357-2.777-.883-4.101-1.755 1.18-.03 2.29.287 3.735.751z"/><path fill="#FEFAC8" d="M872.94 32.57c-1.434-.118-3.009-.568-4.73-1.356 1.433.116 3.01.569 4.73 1.355zM944.968 81.635c-1.167-.47-2.405-1.249-3.278-2.353 1.312.465 2.26 1.256 3.278 2.353z"/><path fill="#FEFAC2" d="M1000.904 809.624c-.086.368-.584.368-.584.368s-.497-.002-.745 0c-.253-.765-.26-1.533-.084-2.647.438-.336.696-.334 1.15-.34.246.75.298 1.5.263 2.619z"/><path fill="#FDFABE" d="M890.361 42.774c.204-.366.516-.481 1.313-.711.83-.106 1.09.046 1.33.984.077.916.09 1.19.104 1.464-.88-.495-1.76-.99-2.747-1.737z"/><path fill="#FEFBC6" d="M907.115 961.49c.945-.386 1.89-.772 3.11-.867-.954 1.332-2.183 2.373-3.803 3.412-.39-.002-.468-.081-.318-.386.437-.924.724-1.542 1.011-2.16z"/><path fill="#FEFAC2" d="M998.69 197.495c.212-.414.4-.434.87-.476.6 1.073.915 2.168 1.247 3.62-.374.36-.764.363-1.446.372-.427-1.036-.56-2.079-.67-3.516zM998.91 191.615c-.402.163-.726-.044-1.205-.356-.292-.592-.429-1.077-.516-1.94.402-.358.754-.339 1.372-.317.319.75.373 1.497.349 2.613z"/><path fill="#FEFAC8" d="M893.274 44.641c-.18-.404-.193-.678-.217-1.365 1.247.052 2.506.516 3.864 1.345.1.365.03.455-.355.442-.899.02-1.412.05-1.926.082-.4-.125-.8-.25-1.366-.504z"/><path fill="#FEFAC2" d="M997.866 180.7c-.58.296-1.128.295-1.947.296-.442-.429-.615-.86-.478-1.64.669-.35 1.029-.35 1.388-.35.356.465.712.932 1.037 1.695z"/><path fill="#FDFABE" d="M996.903 178.672c-.433.333-.793.334-1.422.333-.432-.551-.595-1.1-.333-1.832.844-.181 1.264-.18 1.685-.179.048.449.096.897.07 1.678z"/><path fill="#FEFAC8" d="M996.908 176.665c-.496.328-.916.327-1.652.32-.415-.338-.515-.672-.597-1.266.244-.607.47-.953.934-1.494.623.573 1.007 1.343 1.315 2.44zM900.937 46.612c-.645.518-1.39.705-2.632.417-.785-.967-1.07-1.46-1.354-1.953 0 0 .07-.09.107-.134 1.284.416 2.532.877 3.879 1.67zM904.016 48.641c-.19.378-.512.446-1.314.641-1.11-.562-1.74-1.252-2.006-2.128 1.305.268 2.247.723 3.32 1.487z"/><path fill="#FDFABE" d="M203.64 19.98c.783.129 1.344.284 2.104.655-.613.352-1.424.487-2.487.533-.252-.089-.258-.547-.257-.777 0-.229.418-.386.64-.411z"/><path fill="#FEFBC6" d="M937.375 939.96c.573-1.168 1.472-2.425 2.747-3.363-.556 1.304-1.489 2.29-2.747 3.363z"/><path fill="#FEFBF6" d="M89.91 944.296c.883.168 1.928.645 3.026 1.496-.92-.146-1.892-.667-3.027-1.496z"/><path fill="#FEFAC8" d="M931 71c.006-.478.012-.955.036-1.79.955.118 1.891.593 2.907 1.419.08.351.004.452-.364.434-1.104-.032-1.84-.047-2.577-.062l-.002-.002z"/><path fill="#FAFAF5" d="M97.005 950.37c.88.137 1.883.582 2.92 1.392-.911-.118-1.854-.6-2.92-1.392z"/><path fill="#FEFBC6" d="M963.057 908.403c.751-.684 1.481-1.022 2.513-1.393-.44.94-1.18 1.916-2.22 3.01-.303-.343-.308-.807-.293-1.617z"/><path fill="#FEFAC8" d="M864.954 29.565c.1.592.058.865-.041 1.55-.477.331-.895.25-1.715-.213-.685-.863-.967-1.344-1.249-1.825 0 0 .07-.089.107-.133.943.072 1.85.187 2.898.621z"/><path fill="#FEFBC6" d="M968.917 898.932c.532-.243 1.09-.474 1.94-.794-.189.844-.666 1.776-1.453 2.827-.31.119-.393.052-.418-.324-.037-.833-.05-1.291-.063-1.749 0 0 .022.05-.006.04zM949.388 927.945c-.62-.327-.923-.73-.688-1.612 1.1-.78 1.663-1.081 2.227-1.382l.127.102c-.422.962-.885 1.889-1.666 2.892z"/><path fill="#FEFAC8" d="M991.072 158.589c-.316-.739-.686-1.859-1.036-3.358.34.739.661 1.858 1.036 3.358zM937.28 74.802c-.004.446-.223.612-.95.322-.806-1.328-1.105-2.2-1.356-3.11.048-.04.133-.127.133-.127.653.878 1.306 1.755 2.173 2.915z"/><path fill="#FEFBC6" d="M902.317 966.859c-.343-.457-.363-.9-.428-1.675-.047-.33-.025-.298.357-.262 1.155.021 1.926.007 2.737.044.04.052.131.143.131.143-.824.588-1.648 1.175-2.797 1.75z"/><path fill="#FEFAC8" d="M923.95 62.617c-.333.583-.746.847-1.632.604-.771-1.054-1.07-1.6-1.367-2.147l.098-.122c.963.421 1.893.884 2.902 1.665zM947.076 84.627c-.56.062-1.173-.205-2.111-.578-.452-.652-.58-1.198-.302-1.909 1.057.61 1.708 1.384 2.413 2.487zM910.904 55.109a33.735 33.735 0 0 1-.77-1.962c.843.185 1.78.661 2.834 1.447.117.31.05.394-.33.421-.843.046-1.307.065-1.77.085 0 0 .051-.017.036.009zM953.031 91.586c-.11.531-.234.703-.795.5-.76-.626-1.083-.877-1.406-1.127-.194-.59-.388-1.182-.249-2.117 1.035.566 1.736 1.475 2.45 2.744z"/><path fill="#FEFAC2" d="M998.922 814.358c.271-.353.454-.346.91-.328.235.755.197 1.498.084 2.606-.247.356-.419.346-.85.317-.25-.759-.242-1.497-.144-2.595z"/><path fill="#FEFBC6" d="M81.997 80.955c-.645.219-.945.17-1.696.048.122-.74.696-1.407 1.527-2.292.344.514.428 1.245.169 2.244z"/><path fill="#FEFAC8" d="M165.707 27.125c-.24.49-.774.947-1.494 1.22.275-.54.737-.897 1.494-1.22z"/><path fill="#FEFBC6" d="M95.65 65.967c.344.214.406.545.57 1.375.09.692 0 .836-.29.963-.449-.038-.773-.109-1.585-.27.015-.712.52-1.332 1.305-2.068zM910.598 959.26c.765-.262 1.264-.245 2.135-.202-.283.665-.94 1.304-1.955 1.917-.39-.496-.418-.966-.18-1.715zM917.023 955.346c.487-.313.954-.322 1.773-.312-.164.644-.68 1.27-1.504 1.865-.301-.436-.295-.843-.269-1.553zM84.63 75.99c.355.179.405.496.527 1.295-.668.83-1.408 1.177-2.405 1.164.351-1.015.962-1.668 1.877-2.46zM933.398 943.995c-.32-.452-.359-.997-.41-1.957.544-.532 1.1-.65 1.848-.37-.258 1.009-.708 1.62-1.438 2.327zM58.974 108.607c-.196.358-.376.366-.826.361-.117-.63.036-1.249.49-1.991.319.344.336.812.336 1.63z"/><path fill="#FEFBF6" d="M76.922 930.339c.303.166.677.65 1.035 1.456-.33-.164-.648-.651-1.035-1.456z"/><path fill="#FEFBC6" d="M928.818 945.296c.685-.285 1.152-.278 1.97-.26-.246.62-.843 1.23-1.781 1.559-.364-.523-.385-.765-.189-1.299z"/><path fill="#FDFABE" d="M53.452 117.604c-.398.368-.632.363-1.216.34-.199-.617-.047-1.214.408-1.896.526.338.749.761.808 1.556z"/><path fill="#FEFAC8" d="M983.923 139.686c-.335-.185-.596-.688-.842-1.484.315.193.616.68.842 1.484zM216.68 18.073c-.183.336-.685.6-1.482.87.19-.31.676-.626 1.482-.87zM983.072 137.63c-.3-.166-.65-.654-1.007-1.459.315.167.636.651 1.007 1.458z"/><path fill="#FAFAF5" d="M102.003 954.36c.475-.131 1.073.04 1.835.493-.461.124-1.086-.033-1.835-.493z"/><path fill="#FEFBC6" d="M913.37 959.082c.166-.303.656-.657 1.464-1.018-.167.318-.654.643-1.464 1.018z"/><path fill="#FEF9CA" d="M34.088 859.313c.267-.315.46-.315.941-.315.38.518.471 1.037.242 1.802-.632-.226-.945-.699-1.183-1.487zM41.958 878.338c.525.135 1.078.592 1.314 1.382-.64-.131-.964-.596-1.314-1.382z"/><path fill="#FEFBF6" d="M87.96 942.292c.213-.05.522.178.94.681-.21.05-.528-.176-.94-.68z"/><path fill="#FEFBC6" d="M935.307 942.01c-.197-.43-.124-.909.35-1.18.241.516.08.825-.35 1.18zM936.307 941.011c-.195-.43-.121-.909.352-1.18.239.515.078.824-.352 1.18zM906.07 964.072c-.131.322-.301.604-.714.962-.242.075-.334-.016-.252-.273.287-.512.543-.695.85-.807l.116.118z"/><path fill="#FEFAC8" d="M219.048 17.67c-.117.29-.333.305-.874.297.042-.206.409-.388.874-.296z"/><path fill="#FEFBC6" d="M932.263 944.922c-.124-.344.096-.56.616-.768.035.228-.156.525-.616.768z"/><path fill="#FAFAF5" d="M95.922 949.277c.207-.067.522.134.95.595-.205.064-.523-.132-.95-.595zM99.957 952.286c.218-.07.52.13.923.588-.212.066-.526-.125-.923-.588zM100.955 953.29c.215-.07.516.13.923.588-.208.065-.522-.127-.923-.588z"/><path fill="#FEFAC8" d="M868.029 30.658c-.244.219-.524.084-.899-.333.182-.106.5-.019.899.333z"/><path fill="#FAFAF5" d="M111.907 961.272c.203-.136.538.01 1.044.373-.19.114-.551.012-1.044-.373zM109.983 960.31c.22-.146.526-.006.987.34-.197.12-.548.032-.987-.34zM103.961 955.285c.218-.069.516.135.917.595-.21.063-.523-.13-.917-.595z"/><path fill="#FEFAC8" d="M940.011 76.693c-.435.197-.918.124-1.187-.35.523-.241.831-.08 1.187.35zM925.012 63.701c-.43.189-.913.108-1.185-.367.517-.23.825-.066 1.185.367zM934.067 70.935c.326.126.608.296.965.71.075.242-.01.33-.262.252-.508-.273-.698-.52-.823-.816 0 0 .076-.1.12-.146zM938.94 75.615c-.408.354-.93.366-1.476-.089.437-.395.9-.325 1.477.089zM941.011 77.693c-.438.198-.924.126-1.191-.348.527-.243.835-.082 1.191.348zM942.012 78.693c-.435.197-.918.124-1.187-.35.521-.241.83-.08 1.187.35zM949.658 88.77c-.456-.322-.502-.637-.58-1.428.313-.23.656.016 1.216.506.07.473-.079.702-.636.922z"/><path fill="#FEFBC6" d="M73.686 87.955c.268.193.284.471.298 1.171-.243.439-.483.455-.868.142.01-.63.164-.929.57-1.313zM72.703 88.99c.184.426.1.904-.373 1.178-.225-.511-.06-.818.373-1.178zM72.576 90.577c-.294.364-.58.38-1.294.367-.243-.318-.058-.609.389-.935.478.05.695.134.905.568zM946.307 931.01c-.198-.437-.126-.92.348-1.189.242.525.082.834-.348 1.19z"/><path fill="#FEFBF6" d="M82.957 937.287c.214-.07.515.13.922.587-.208.065-.522-.126-.922-.587zM81.957 936.287c.214-.07.515.13.922.587-.208.065-.522-.126-.922-.587z"/><path fill="#FEFBC6" d="M941.167 936.277c-.18-.334-.118-.88.425-1.343.26.432.04.782-.425 1.343z"/><path fill="#FEFBF6" d="M80.957 935.287c.214-.07.515.13.922.587-.208.065-.522-.126-.922-.587z"/><path fill="#FEFBC6" d="M942.33 934.986c-.12-.443.074-.97.712-1.282.164.543-.118.87-.712 1.282z"/><path fill="#FEFBF6" d="M79.957 934.287c.214-.07.515.13.922.588-.208.064-.522-.127-.922-.588zM78.957 933.287c.214-.07.516.13.922.587-.208.066-.522-.126-.922-.587z"/><path fill="#FEFBC6" d="M944.169 933.283c-.2-.365-.149-.936.399-1.382.281.475.066.826-.399 1.382z"/><path fill="#FEFBF6" d="M77.957 932.288c.215-.07.517.129.922.585-.209.066-.522-.125-.922-.585z"/><path fill="#FEFBC6" d="M945.307 932.011c-.196-.432-.122-.911.351-1.182.24.517.08.826-.35 1.182z"/><path fill="#FEFBF6" d="M83.957 938.287c.215-.07.517.13.923.585-.21.066-.523-.125-.923-.585z"/><path fill="#FEFBC6" d="M947.307 930.011c-.197-.438-.124-.923.35-1.19.24.526.08.835-.35 1.19zM948.308 929.01c-.2-.445-.13-.937.343-1.2.245.538.085.846-.343 1.2z"/><path fill="#FEFAC8" d="M906.029 49.652c-.243.22-.524.086-.9-.33.181-.107.5-.02.9.33zM907.059 50.68c-.2.066-.487-.126-.886-.559.192-.06.496.121.886.56z"/><path fill="#F0FCD0" d="M147.648 711.7c-.502-1.99-.632-4.175-1.56-5.94-16.684-31.716-28.755-65.136-36.6-100.049-5.224-23.255-8.104-46.84-9.47-70.68-1.463-25.569.094-50.957 3.37-76.213 3.754-28.937 11.059-57.075 21.056-84.559 13.178-36.225 31.047-69.891 53.719-100.993 36.037-49.438 80.774-89.152 134.304-118.816 34.996-19.394 72.058-33.368 111.213-41.853 34.688-7.517 69.745-10.768 105.162-9.268 35.9 1.52 71.095 7.49 105.477 18.162 43.315 13.443 83.307 33.55 119.945 60.147 38.174 27.712 70.645 61.13 97.469 99.982.838 1.215 1.903 2.273 3.09 3.767.126.682.022 1-.065 1.328.017.008-.015.004-.23.089-.48.284-.613.55-.861.994-.702.39-1.158.669-1.743.644-79.644-113.826-188.386-175.085-327.022-181.307-73.697-3.308-143.79 12.82-207.948 49.217-125.915 71.431-197.355 179.71-212.001 324.044-7.413 73.05 6.143 143.018 37.351 209.463 4.86 10.346 10.855 20.159 16.352 30.38.027.162.097.483-.11.618-.398.412-.51.72-.704 1.144-.16.089-.363.391-.324.478.04.086-.104-.039-.383.11-.894.223-1.509.296-2.132.39-.01.02.034.01-.056-.302a43.626 43.626 0 0 0-2.785-3.81c-.02.07.078-.039.042-.357a15.605 15.605 0 0 0-2.064-2.611c-.025.077.07-.055.041-.372-.725-1.071-1.422-1.825-2.122-2.6-.002-.02.005-.063.02-.235-.073-.476-.222-.75-.431-.993z"/><path fill="#F1FCD0" d="M910.812 408.173c1.594 7.477 3.608 14.894 4.7 22.443 2.928 20.23 6.211 40.451 7.981 60.795 3.05 35.05-.129 69.9-6.907 104.319-7.857 39.892-21.559 77.773-40.759 113.71-21.785 40.775-49.672 76.786-83.447 108.206-34.036 31.663-72.452 56.808-115.067 75.463-29.695 13-60.51 22.237-92.417 28.05-34.118 6.215-68.489 7.902-102.97 5.446-42.582-3.033-83.794-12.531-123.47-28.539-44.88-18.108-85.343-43.242-121.45-75.448-1.738-1.55-4.064-2.437-6.423-3.651-.307-.019-.44-.228-.43-.281.01-.053-.09-.112.24-.267.59-.833.853-1.51 1.003-2.206-.112-.02-.077.204.165.068.37-.477.499-.817.866-1.232.673-.28 1.107-.485 1.634-.383 1.29 1.463 2.432 2.68 3.688 3.768C348.319 914.128 475.14 945.564 616.703 910c101.66-25.541 180.708-85.078 238.374-172.545 32.949-49.976 53.116-104.993 61.638-164.209 6.169-42.868 5.45-85.72-2.033-128.375-2.005-11.426-5.225-22.64-7.84-34.209.16-.587.276-.916.7-1.325 1.296-.442 2.283-.803 3.27-1.164z"/><path fill="#2E6707" d="M911.078 407.916c-1.253.618-2.24.979-3.473 1.067 6.799-4.302 6.206-11.01 4.957-17.287-1.21-6.079-4.08-11.817-5.462-17.878-.702-3.079-.984-7.724.758-9.562 2.967-3.13 4.785-5.345 2.234-9.374-.38-.6-.289-1.697-.056-2.453 2.08-6.758 3.988-13.588 6.508-20.182.954-2.497 1.244-4.29-.432-6.34l.346-.29 3.217 2.206c-2.623 10.301-11.868 19.352-5.68 32.104-.925.881-2.093 2.835-4.216 4.6-3.771 3.137-2.253 8.453.108 12.4 4.596 7.682 5.2 16.01 4.559 24.514-.161 2.139-2.022 4.149-3.368 6.475z"/><path fill="#1F5C07" d="M119.82 774.193c-.758-2.229-2.003-4.418-2.188-6.693-.761-9.384-1.22-18.792-1.735-28.194-.07-1.292-.105-2.698.313-3.886 2.359-6.69 5.252-13.215 7.222-20.011 2.988-10.31 13.372-13.545 21.658-5.96.056.403-.123.583-.448.427-1.353-.694-2.359-1.281-3.413-1.763-6.465-2.952-13.351.009-15.692 6.72-2.376 6.816-4.889 13.588-7.059 20.47-.62 1.968-.482 4.265-.304 6.38.494 5.869 1.377 11.71 1.75 17.584.31 4.87.114 9.774.08 14.729-.06.066-.184.197-.184.197z"/><path fill="#2E6707" d="M860.63 281.563c3.339-2.15 6.913-4.023 9.912-6.573 1.421-1.21 2.049-3.648 2.473-5.648.4-1.885-.217-3.971.098-5.89.901-5.487 3.81-6.904 8.839-4.549 4.202 1.97 8.404 3.941 12.616 5.889 3.086 1.426 6.773 2.102 7.515 6.342.07.399.611.943 1.012 1.022 4.918.97 6.881 4.91 9.027 9.187.08.423-.144.674-.442.51a585.48 585.48 0 0 1-10.026-8.821c-.485-.437-.788-1.078-1.274-1.514-1.995-1.786-3.812-3.917-6.1-5.197-3.3-1.848-6.871-3.32-10.481-4.468-2.471-.787-6.596-1.914-7.512-.82-1.582 1.888-1.144 5.406-1.743 8.2-.457 2.129-.556 5.048-1.958 6.12-3.506 2.681-7.663 4.512-11.657 6.565l-.298-.355z"/><path fill="#1F5C07" d="M226.525 824.479c-.905 1.58-2.3 3.064-2.63 4.756-1.405 7.201-7.214 8.287-12.845 9.783-2.532.672-3.605-.176-3.975-2.805-.857-6.088-1.79-6.733-7.749-5.112-8.447 2.298-16.848 4.773-25.222 7.324-1.53.466-2.841 1.657-4.641 2.583-.388.07-.525-.056-.462-.403 1.278-1.382 2.336-2.952 3.735-3.363 9.771-2.874 19.558-5.75 29.484-7.986 1.693-.38 4.357 2.032 6.036 3.696.975.966.88 3.011 1.243 4.474 6.76-.71 11.94-3.024 13.551-10.242.273-1.221 1.926-2.135 3.072-3.066.13.124.403.36.403.36z"/><path fill="#2E6707" d="m918.402 294.597 6.41 11.016c-3.652 2.242-8.67 3.581-9.63 6.336-1.303 3.737.5 8.558 1.123 13.29.153.378-.077.572-.512.483-6.056-8.33-3.528-16.56 6.352-20.854-1.388-3.272-2.781-6.559-4.066-9.95l.323-.32z"/><path fill="#1F5C07" d="M141.582 855.51c.938-3.753 1.802-7.528 2.85-11.25.397-1.41.884-3.478 1.903-3.918 5.895-2.545 6.85-5.025 3.622-11.682-.131-.454.057-.678.425-.594 4.22 4.87 3.547 12.782-1.1 13.7-3.352.661-3.481 2.383-3.268 4.786.346 3.895-.8 7.097-4.11 9.333l-.322-.374zM166.48 858.547c-1.916 3.429-4.347 3.658-7.862 2.038-2.824-1.302-6.145-1.526-9.25-2.23-1.455 7.052-4.748 8.742-11.462 6.245-.105-.413.12-.626.557-.616 4.287-.013 8.672 1.089 9.261-5.005.074-.758 2.303-1.907 3.47-1.836 2.414.147 5.002.571 7.123 1.654 2.946 1.504 5.308 1.293 7.799-.66.119.138.365.41.365.41zM129.619 797.536c3.757-8.548 3.044-14.273-2.499-19.17-.153-.336-.06-.452.308-.424 7.46 3.075 8.566 13.032 2.494 19.96-.102-.121-.303-.366-.303-.366zM127.85 817.14c-1.057-4.81-2.523-9.587-2.93-14.453-.127-1.509 2.618-3.258 4.374-5.024.325-.127.526.118.454.543-1.876 2.12-4.45 3.057-3.429 6.677 1.092 3.867 1.229 8.003 1.72 12.08l-.189.177z"/><path fill="#FEFAB9" d="M140.127 974.55a139.43 139.43 0 0 1-12.092-5.888c3.916 1.657 7.92 3.624 12.092 5.887z"/><path fill="#2E6707" d="M914.552 283.485c.44 1.447.92 2.884 1.31 4.344.452 1.682.827 3.385 1.281 5.529.047.45-.165.662-.484.478-1.11-3.392-1.9-6.6-2.542-9.94.15-.132.435-.411.435-.411z"/><path fill="#1F5C07" d="M168.327 842.336c-.035 2.834-.07 5.668-.1 8.969.006.466-.252.713-.557.54-3.581-3.625-3.075-6.841.392-9.785l.265.276zM149.733 828.319c-3.263-.355-6.432-.824-9.785-1.67-.184-.378.06-.661.5-.657 3.481.666 6.524 1.328 9.566 1.99l-.281.337z"/><path fill="#2E6707" d="M854.742 286.706c.103-.319.207-.637.424-1.18a68.818 68.818 0 0 1 5.16-3.847c.305-.116.503.12.435.53-2.052 1.772-4.036 3.134-6.02 4.497z"/><path fill="#FDFABE" d="M933.579 71.063c.493.314.683.56 1.143.873.503.988.802 1.86 1.214 3.069-1.511-.892-3.136-2.12-4.847-3.676.65-.313 1.386-.298 2.49-.266z"/><path fill="#FDFBBA" d="M906.104 963.649c-.457.417-.713.6-1.039 1.06-.893.22-1.664.234-2.822.213 1.182-1.205 2.75-2.375 4.595-3.49-.01.675-.297 1.293-.734 2.217z"/><path fill="#FDFABE" d="M195.17 22.48c1.287-.569 2.88-.984 4.924-1.347-1.239.535-2.928 1.017-4.924 1.347z"/><path fill="#1F5C07" d="M170.424 854.63c2.326 4.38-2.91 1.786-3.642 3.77-.301.147-.547-.125-.514-.553 1.255-1.23 2.477-2.032 3.814-2.928.115-.095.342-.289.342-.289z"/><path fill="#FDFABE" d="M861.514 29.061c.717.497 1 .978 1.39 1.716-1.287-.184-2.681-.625-4.263-1.324.688-.307 1.563-.358 2.873-.392z"/><path fill="#FEFAB9" d="M122.002 964.637c-1.22-.374-2.555-1.055-3.967-2.049 1.232.372 2.543 1.058 3.967 2.049zM127.096 967.583c-1.238-.332-2.604-.967-4.06-1.911 1.251.33 2.592.969 4.06 1.911z"/><path fill="#FDFABE" d="M910.976 55.418c.355-.338.819-.357 1.63-.36.962.853 1.578 1.69 2.31 2.823-1.199-.518-2.516-1.33-3.94-2.463z"/><path fill="#1F5C07" d="M131.477 820.457c-1.155-.9-2.31-1.8-3.546-3.008-.08-.309.045-.427.423-.422 1.473.987 2.567 1.97 3.526 3.071-.135.118-.403.359-.403.359zM137.687 864.29c.115-1.95.345-4.006.962-6.158.387-.097.477-.003.392.359-.395 2.069-.705 3.776-1.015 5.483 0 0-.225.213-.34.317z"/><path fill="#FDFABE" d="M156.375 32.911c.846-.63 2.046-1.24 3.619-1.809-.84.638-2.053 1.235-3.62 1.81zM185.312 24.475c.614-.54 1.542-.965 2.826-1.344-.6.517-1.556.987-2.826 1.344zM1000.702 795.173c.359.718.498 1.624.36 2.7-.378-.725-.48-1.618-.36-2.7z"/><path fill="#FBF89C" d="M198.262 992.365c-.835.202-1.829.147-3.056-.212.81-.218 1.853-.13 3.056.212z"/><path fill="#1F5C07" d="M123.583 776.426c-1.145-.56-2.29-1.12-3.6-1.956-.163-.277-.04-.408.362-.452 1.492.623 2.583 1.29 3.564 2.07l-.326.338z"/><path fill="#FDFABE" d="M976.674 127.06c.282.68.329 1.331.402 2.305-.534-.397-1.094-1.118-1.615-2.12.352-.27.666-.247 1.213-.185z"/><path fill="#FEFAB9" d="M57.082 901.623c-.657-.486-1.332-1.308-2.004-2.47.664.484 1.325 1.31 2.004 2.47z"/><path fill="#FDFABE" d="M968.621 899.023c.315.327.328.785.323 1.585-.512.628-1.006.912-1.767 1.302.203-.848.673-1.803 1.444-2.887zM896.566 45.063c.67.506.954.999 1.343 1.758-.895-.19-1.895-.647-3.082-1.39.327-.318.84-.349 1.739-.368z"/><path fill="#1F5C07" d="M139.639 826.41c-.987-.383-1.85-.907-2.783-1.802-.07-.371.168-.64.484-.6 1.1.687 1.885 1.333 2.669 1.98 0 0-.245.283-.37.423z"/><path fill="#FDFABE" d="M956.765 98.297c.682.472 1.417 1.286 2.164 2.445-.696-.47-1.404-1.287-2.164-2.445zM962.801 106.446c.683.446 1.395 1.224 2.107 2.342-.693-.442-1.385-1.227-2.107-2.342zM950.947 924.622c-.584.63-1.148.93-2.024 1.322.27-.846.853-1.784 1.749-2.845.307.316.302.755.275 1.523z"/><path fill="#FEFAB9" d="M59.072 904.634c-.659-.467-1.328-1.266-1.998-2.398.661.467 1.324 1.267 1.998 2.398z"/><path fill="#FDFABE" d="M969.894 117.381c.635.499 1.342 1.33 2.063 2.515-.654-.49-1.323-1.337-2.063-2.515zM920.603 61.053c.646.567.944 1.114 1.336 1.962-.87-.258-1.834-.817-2.94-1.688.324-.306.79-.3 1.604-.274z"/><path fill="#FEFAB9" d="M61.087 907.679c-.655-.473-1.336-1.28-2.023-2.423.661.473 1.33 1.28 2.023 2.423z"/><path fill="#FDFABE" d="M886.911 41.255c.545.003 1.2.244 2.041.796-.52.021-1.225-.269-2.04-.796zM956.703 915.958c.275.341.267.8.229 1.602-.428.374-.824.405-1.518.442.137-.639.572-1.282 1.29-2.044zM964.896 109.383c.607.53 1.243 1.4 1.948 2.6-.593-.532-1.255-1.397-1.948-2.6z"/><path fill="#1F5C07" d="M138.991 857.988a24.74 24.74 0 0 1 2.329-2.329c.262-.148.477.1.441.507-.902.925-1.768 1.444-2.635 1.963l-.135-.141zM168.366 851.651c.709.72 1.286 1.558 1.96 2.688.098.291-.129.485-.524.43-.873-.953-1.35-1.852-1.827-2.75 0 0 .258-.248.39-.368zM228.442 821.429c-.494.877-.988 1.754-1.7 2.84-.217.21-.49-.027-.587-.47.544-1.233 1.185-2.023 1.94-2.702.115.112.347.332.347.332z"/><path fill="#2E6707" d="M912.313 281.64c.71.371 1.308.868 2.073 1.604.166.24-.12.52-.576.588-.915-.56-1.373-1.188-1.832-1.815 0 0 .224-.25.335-.377z"/><path fill="#FDFABE" d="M191.203 23.171c.419-.431 1.054-.724 2.06-.962-.367.403-1.106.752-2.06.962z"/><path fill="#1F5C07" d="M126.92 778.086a21.682 21.682 0 0 1-3.115-1.437c-.222-.223-.005-.449.42-.524 1.228.547 2.03 1.168 2.834 1.79 0 0-.092.115-.14.171zM136.665 824.369c-.929-.463-1.736-1.057-2.63-1.982-.088-.33.032-.456.345-.41 1.09.695 1.867 1.343 2.644 1.992 0 0-.238.268-.36.4z"/><path fill="#1F5C07" d="M133.888 822.121c-.724-.353-1.389-.77-2.232-1.426-.179-.238.089-.479.536-.545.923.55 1.399 1.165 1.875 1.78l-.179.191zM230.142 818.739s.134.21.144.327c-.436.7-.882 1.282-1.586 2.114-.258.249-.49.029-.546-.416.626-.971 1.307-1.498 1.988-2.025zM147.309 711.442c.548.5.697.774.448 1.26-.83-.432-1.321-1.045-1.744-1.722l.204-.192c.251.133.502.265 1.092.654z"/><path fill="#FEFAB9" d="M52.13 893.777c-.358-.211-.72-.671-1.105-1.436.353.193.728.69 1.106 1.436z"/><path fill="#FBF89C" d="M184.855 989.68c-.537.28-1.301.31-2.463.096-.397-.244-.414-.682-.414-.682.883.11 1.766.222 2.877.585z"/><path fill="#FDFABE" d="M951.884 921.558c.01.354-.232.775-.691 1.316.001-.337.22-.792.691-1.316z"/><path fill="#FEFAB9" d="M181.654 989.007c.324.087.34.525.356.744-.546.042-1.108-.133-1.84-.557.272-.256.716-.265 1.484-.187z"/><path fill="#1F5C07" d="M145.234 709.76c.34.12.593.33.915.785.068.243-.067.371-.343.313-.531-.264-.72-.52-.84-.826 0 0 .18-.18.268-.271z"/><path fill="#2E6707" d="M917.296 293.702c.434-.011.697.174 1.001.673.105.222-.11.437-.425.42-.575-.218-.767-.471-.894-.775l.318-.318z"/><path fill="#FDFABE" d="M977.67 131.313c.073-.112.264.162.316.228.052.066-.217.09-.217.09s-.171-.206-.099-.318zM856.362 29.022c-.02-.123.318-.069.487-.041.169.027-.114.25-.114.25s-.352-.085-.373-.209zM950.932 91.264c.22-.055.544.196 1.001.729-.21.047-.554-.189-1.001-.73zM952.878 920.414c.15-.025-.156.36-.223.46-.178-.12-.13-.298.223-.46z"/><path fill="#FEFAB9" d="M54.17 896.767c-.054-.026-.007-.004-.004.018.003.023.06.008.005-.018zM49.195 888.639c-.09.067-.188-.16-.22-.213-.031-.053.31.146.22.213zM41.235 872.629c-.082.106-.229-.265-.253-.363.19-.074.309.044.253.363z"/><path fill="#1F5C07" d="M169.142 841.141c-.076.364-.22.664-.59 1.08-.225.115-.402-.069-.377-.372.216-.569.462-.767.763-.897 0 0 .137.125.204.19z"/><path fill="#166826" d="M169 840.605c-.363.477-.609.675-.913 1.152-3.492 3.247-3.998 6.463-.417 10.089.782 1.071 1.259 1.97 2.016 3.018-.941.951-2.163 1.753-3.537 2.844-2.524 2.382-4.886 2.593-7.832 1.09-2.121-1.084-4.709-1.508-7.123-1.655-1.167-.07-3.396 1.078-3.47 1.836-.589 6.094-4.974 4.992-9.26 5.005-.128-1.717.182-3.424.577-5.493.952-.881 1.818-1.4 2.827-2.2 3.347-2.642 4.492-5.844 4.146-9.74-.213-2.402-.084-4.124 3.269-4.785 4.646-.918 5.319-8.83 1.099-13.7-3.41-.746-6.453-1.408-9.934-2.074-1.223-.65-2.007-1.297-3.108-1.983-1.093-.689-1.87-1.337-2.96-2.031-.789-.663-1.265-1.279-2.053-1.946-1.406-1.035-2.5-2.018-3.91-3.064-.87-4.082-1.006-8.218-2.098-12.085-1.022-3.62 1.553-4.557 3.53-6.556 6.145-7.353 5.04-17.31-2.421-20.385-1.172-.65-1.975-1.27-3.094-1.93-1.406-.704-2.497-1.37-3.928-2.06-.368-4.911-.172-9.814-.481-14.685-.374-5.875-1.257-11.715-1.75-17.585-.179-2.114-.318-4.411.303-6.38 2.17-6.88 4.683-13.653 7.06-20.469 2.34-6.711 9.226-9.672 15.691-6.72 1.054.482 2.06 1.07 3.413 1.763.445.462.633.718 1.095 1.045.699.736 1.19 1.35 2.005 1.953.322-.01.315.032.305.42.714 1.109 1.438 1.83 2.163 2.55 0 0-.095.132-.116.43.702 1.051 1.424 1.803 2.146 2.554 0 0-.098.108-.127.415.956 1.454 1.94 2.6 2.924 3.746 0 0-.043.01.018.303.478.627.896.96 1.313 1.293l1.046-2.145s.143.125.39.113c.532-.25.82-.487 1.096-1.006-.056-.462-.101-.643-.147-.825 0 0-.07-.32.264-.571 4.505-3.245 6.569-7.69 5.883-12.4-1.043-7.158-2.978-14.226-5.021-21.189-2.611-8.897-.537-14.464 8.236-17.313 6.417-2.084 13.23-3.032 19.922-4.16 7.172-1.207 8.348-3.287 7.507-10.414-.754-6.398-2.558-13.074 1.923-19.231 1.866-2.563-.304-4.583-2.863-5.016-5.826-.986-12.199-4.359-16.624 3.018-.536.894-1.83 1.431-2.878 1.902-4.138 1.859-8.415.87-10.138-2.252-4.307-7.8-3.483-11.122 3.98-16.133.686-.461 1.53-.886 1.929-1.55 4.285-7.157 11.372-9.885 18.806-12.185 6.977-2.158 10.034-1.14 13.844 4.936 3.01 4.799 5.88 5.18 8.615.423 5.204-9.047 10.206-18.246 14.627-27.694 3.009-6.43 6.113-9.028 13.26-9.06 4.118-.018 8.673.494 12.26-1.039 7.847-3.352 16.443-5.391 22.779-11.925 3.029-3.124 6.725-1.967 6.653 2.123-.134 7.618 5.943 7.529 10.423 10.467 1.461-5.878 3.814-10.863-1.068-15.87-7.507-7.702-5.642-17.607 3.991-22.61 4.868-2.527 10.054-4.508 14.7-7.38 4.455-2.753 7.54-6.528 7.43-12.565-.21-11.687 2.673-22.57 11.054-31.46h9.735l7.55 9.768c3.448-5.102 6.1-9.174 8.926-13.124.881-1.232 2.473-3.198 3.323-3.004 4.736 1.082 9.961 1.08 13.319 5.752 3.942 5.487 6.252 7.253 11.239 1.534.745-.855 1.852-1.404 2.818-2.056 9.08-6.124 16.72-5.811 25.725.73 1.494 1.086 3.64 1.724 5.505 1.774 10.587.285 16.276 6.422 15.277 16.736-.092.947-.27 2.186.207 2.839 3.724 5.09 7.467 10.18 11.48 15.041 2.157 2.615 4.857 4.781 7.615 7.441l11.764-3.781c-.075.457.16-.194.115-.824-.307-4.213-.29-7.99 4.433-10.355 1.826-.914 3.586-3.253 1.42-6.325-.812-1.15.185-3.966.963-5.76 1.304-3.01 3.7-5.64 4.567-8.73 2.79-9.943 9.807-14.91 19.172-17.34 5.237-1.36 9.846-3.345 13.815-7.417 2.615-2.683 6.531-4.916 10.186-5.58 5.821-1.056 11.91-.717 17.887-.815 4.315-.07 9.485-1.501 9.503 4.084 9.506-3.103 18.67-6.362 27.998-9.061 8.45-2.446 17.272-3.708 25.584-6.518 13.384-4.526 24.967-11.14 33.262-23.883 7.534-11.573 20.52-17.043 33.758-20.66 5.196-1.42 10.966-.703 15.47-4.635 2.878-2.513 6.435-4.358 8.936-7.17 4.288-4.822 9.745-9.246 7.45-17.31-.415-1.46 2.208-4.862 4.157-5.73 8.961-3.99 18.233-7.276 27.282-11.079 3.482-1.463 7.318-3.011 9.81-5.641 2.531-2.67 5.106-4.073 8.486-4.312 2.87-.204 4.099-1.403 4.117-4.382.045-7.599.735-8.356 8.016-9.737 2.607-.494 5.265-.714 7.878-1.185 5.22-.94 9.196-3.301 11.196-8.683 1.103-2.967 3.213-5.558 4.868-8.32l.448 1.842 13.737 3.447c-.333 2.148-.263 4.733-1.164 6.919-2.201 5.338-4.851 10.492-7.44 15.837.087.165.294.213.852.195 8.859-3.4 16.368-8.281 18.875-17.466 1.856-6.8 6.161-11.547 10.161-16.787 3.386-4.435 6.712-8.342 13.145-5.98.785.287 2.099-.076 2.846-.598 5.889-4.11 11.7-8.332 17.535-12.52.455-.278.91-.556 1.753-.765.57-.374.753-.818.936-1.261 0 0 .032.004.015-.004 1.967-1.372 3.95-2.734 6.102-4.388 4.063-2.462 8.22-4.293 11.726-6.974 1.402-1.072 1.5-3.991 1.958-6.12.6-2.794.161-6.312 1.743-8.2.916-1.094 5.04.033 7.512.82 3.61 1.148 7.182 2.62 10.482 4.468 2.287 1.28 4.104 3.41 6.099 5.197.486.436.789 1.077 1.274 1.514a585.48 585.48 0 0 0 10.026 8.821c.757.791 1.215 1.419 1.98 2.112 1.099 3.272 1.889 6.48 2.999 9.87.446.489.638.742 1.104 1.066 1.6 3.408 2.994 6.695 4.382 9.967-9.88 4.294-12.408 12.525-6.468 20.95 2.111 2.139 1.821 3.932.867 6.429-2.52 6.594-4.428 13.424-6.508 20.182-.233.756-.323 1.853.056 2.453 2.551 4.029.733 6.245-2.234 9.374-1.742 1.838-1.46 6.483-.758 9.562 1.382 6.061 4.252 11.8 5.462 17.878 1.25 6.278 1.842 12.985-5.265 17.368-.179.682-.294 1.011-.835 1.576-5.574 2.517-10.693 4.873-15.885 7.055-3.506 1.472-7.752 4.565-10.532 3.614-4.57-1.563-7.785.116-11.307 1.478-13.733 5.31-29.266-.007-36.82-12.655-1.953-3.27-4.139-6.476-6.667-9.311-5.52-6.193-7.22-6.27-12.525.05-5.598 6.67-12.257 8.349-20.55 6.502-3.946-.878-8.228-.882-12.282-.494-5.718.547-6.34 1.75-5.246 7.525.745 3.93.192 7.173-3.562 9.51-1.307.814-3.052 2.74-2.832 3.787.381 1.814 1.795 3.999 3.398 4.835 2.592 1.352 5.72 1.643 8.555 2.586.954.318 1.974 1.091 2.487 1.944 1.011 1.682 1.69 3.564 2.831 6.08-3.498 1.206-7.357 3.606-11.222 3.614-5.548.011-6.623 2.076-6.428 6.99.157 3.92 1.443 5.943 5.362 6.242.783.06 1.991.24 2.236.741 1.826 3.735 4.813 2.624 7.24 1.437 4.3-2.105 8.755-4.251 12.38-7.293 5.373-4.51 8.348-4.523 9.043 2.272.703 6.87 3.614 12.493 5.982 18.538.606 1.546 1.332 3.146 1.43 4.756.062 1.041-.796 2.979-1.451 3.074-2.506.366-5.097.148-7.657.148l.018-1.296 7.341-1.286.58-1.504-9.154-8.774-1.17.951c.15.766.474 1.546.418 2.297-.163 2.19-.478 4.37-.734 6.553-2.22-.647-4.605-.978-6.615-2.027-2.18-1.138-3.893-3.147-6.039-4.376-1.094-.628-3.247-.99-3.92-.375-.863.787-1.342 2.943-.878 4.041 1.004 2.379 2.714 4.46 4.615 7.407-.708.48-1.86.978-2.628 1.823-7.192 7.907-3.99 18.576 6.284 20.96 4.258.988 5.427 3.423 3.787 7.365-2.174 5.223-1.81 10.121 2.081 14.418 2.354 2.598 1.324 4.066-1.004 6.076-1.639 1.414-3.188 3.888-3.276 5.953-.21 4.937.582 9.909.754 14.874.194 5.57.15 11.148.222 17.82-.26.538-2.183 2.647-1.802 4.185.486 1.96 2.836 3.458 4.863 5.684-2.909 0-5.645.025-8.38-.007-2.644-.031-5.78-1.084-7.85-.025-10.763 5.51-20.024-.234-29.604-3.416-1.292-.429-2.975-2.409-2.939-3.624.143-4.727-3.158-5.429-6.426-6.125-4.753-1.013-8.632-2.678-12.243-6.576-7.682-8.291-15.805-7.187-20.512 2.07-1.548 3.043-2.396 6.54-2.964 9.93-.196 1.17 1.146 3.024 2.294 3.89 1.55 1.167 3.544 1.824 5.43 2.447 4.537 1.499 6.99 4.235 5.999 9.263-.684 3.467 1.052 5.366 4.187 6.203 9.482 2.533 13.785 9.42 16.474 18.282 1.028 3.386 3.465 7.546 6.392 8.895 5.515 2.541 7.22 6.855 8.627 11.315-4.92 2.508-9.837 4.657-14.387 7.413-7.575 4.587-15.072 9.07-24.389 8.856-.86-.02-2.02 1.066-2.569 1.935-1.236 1.958-1.865 4.359-3.308 6.114-2.526 3.076-5.141 6.28-8.344 8.544-3.346 2.366-7.78 3.22-11.045 5.66-1.65 1.234-2.337 4.52-2.306 6.862.013.941 3.051 2.413 4.838 2.636 3.447.428 7.001-.062 10.473.25 1.365.123 2.837 1.153 3.896 2.155 2.541 2.404 4.531 5.523 7.354 7.465 4.719 3.245 8.306 6.77 9.468 12.757.389 2.002 3.203 4.809 5.1 4.968 3.601.303 8.186 2.483 10.945-1.766 2.298-3.54 5.435-4.316 9.39-4.541.118 1.125.232 1.93.282 2.74.426 6.985 2.314 8.59 9.322 8.17 1.257-.075 3.147-.023 3.725.742 2.97 3.926 7.041 3.133 10.976 3.011 4.696-.144 8.833.87 12.245 5.728-2.222 1.21-4.287 2.082-6.041 3.374-1.315.97-3 2.368-3.203 3.767-1.517 10.43-6.387 15.033-16.79 16.237-2.45.284-5.13 1.913-6.94 3.697-4.092 4.033-7.271 8.67-2.934 15.48-4.676.308-8.107.7-11.54.718-4.337.022-7.292 2.054-9.172 5.757-1.201 2.365-2.71 4.778-3.09 7.318-1.153 7.677-7.638 4.022-11.582 5.417-.88.312-3.808-2.961-4.62-5.042-3.655-9.362-7.097-10.679-15.61-5.205a16.024 16.024 0 0 0-4 3.717c-2.924 3.845-6.798 5.89-11.499 5.909-4.769.019-6.94 2.09-7.28 6.808-.37 5.14-4.581 3.065-7.361 3.456-2.692.378-4.794-.536-4.58-3.69.358-5.308-3.223-7.137-7.217-8.882-4.557-1.99-9.021-4.196-13.514-6.332-2.968-1.41-2.721-3.505-.99-5.672 3.372-4.224 6.627-8.574 10.335-12.488 3.513-3.708 2.642-6.991-.345-10.04-3.254-3.32-6.5-6.954-10.457-9.219-9.978-5.71-10.313-13.636-6.256-22.825 1.56-3.532 3.11-7.493 5.826-10 5.505-5.084 5.997-7.282.375-12.4-7.099-6.46-16.359-7.84-25.11-10.378-.429-.124-1.067-.032-1.437.215-5.861 3.921-13.395 4.733-18.246 10.857-2.042 2.577-6.5 3.178-9.765 4.863-3.557 1.836-9.583 3.459-9.993 5.928-1.045 6.305-4.83 6.988-9.465 7.923-1.725.347-3.275 1.497-4.958 2.142-2.227.854-4.507 1.572-6.764 2.348-2.524-7.538-3.546-8.226-10.94-8.385-13.907-.3-26.4 4.794-38.716 10.322-7.658 3.437-15.022 7.526-22.623 11.097-2.53 1.189-5.476 1.473-8.065 2.565-1.399.59-3.45 1.98-3.489 3.068-.252 7.167-4.502 8.504-10.456 7.953-.945-.088-2.044.165-2.895.604-6.9 3.558-12.743 4.601-18.238-3.196-3.315-4.703-10.318-2.065-11.738 3.687-.678 2.743-.716 5.884-2.156 8.132-1.502 2.344-4.232 3.992-6.636 5.637-1.754 1.2-5.347 1.703-5.503 2.867-.418 3.12-.266 6.893 1.207 9.547 1.95 3.511 16.93 3.794 20.35 1.022 6.682-5.412 7.302-5.502 13.939-.183 2.716 2.177 5.4 4.547 7.495 7.29 1.25 1.639 1.887 4.189 1.822 6.298-.147 4.766-1.414 9.529-1.265 14.262.155 4.913-2.09 6.84-6.376 6.848-7.129.012-13.272 2.372-18.988 6.523-3.882 2.82-12.58 1.463-15.103-1.904-2.29-3.054-4.187-6.639-7.096-8.92-2.464-1.931-6.129-3.193-9.261-3.19-3.77.003-3.241 3.74-3.487 6.572-.442 5.097-7.383 12.51-11.053 11.764-7.829-1.594-14.697-4.783-19.013-12.076-3.001-5.073-5.461-5.916-10.449-3.942-.755-1.438-1.292-3.093-2.335-4.318-2.432-2.858-4.681-7.113-7.767-7.933-8.029-2.133-8.558-1.905-10.31-10.188-.303-1.431-.626-3.287-1.626-4.069-5.296-4.136-2.638-7.01 1.073-10.188 3.12-2.673 2.679-6.143-1.142-7.752-2.137-.9-4.863-.966-7.217-.64-2.952.408-5.278.795-7.338-2.237-1.948-2.868-6.545-2.32-6.884.86-.458 4.3-3.151 6.14-5.65 8.812-2.465 2.638-3.329 1.639-5.469-.167-1.996-1.685-5.448-3.83-7.272-3.145-7.178 2.697-14.61 5.25-18.78 12.868-2.232 4.078-5.507 7.727-8.863 11.003-2.703 2.639-4.347 4.661-1.92 8.415 1.003 1.55.783 3.89 1.12 5.87-1.858.153-3.783.698-5.561.392-9.288-1.601-20.265 3.962-23.47 12.102-.433.204-.867.409-1.791.816-.612.549-.735.895-.857 1.241 0 0-.035-.224-.29-.078-.49.842-.728 1.539-.966 2.235 0 0 .1.059.09.112-.692.58-1.373 1.107-2.113 1.966-.7 1.124-1.341 1.914-2.015 3.023-1.049 1.374-2.702 2.288-2.975 3.509-1.61 7.218-6.79 9.531-13.55 10.242-.364-1.463-.27-3.508-1.244-4.474-1.679-1.664-4.343-4.077-6.036-3.696-9.926 2.235-19.713 5.112-29.484 7.986-1.399.411-2.457 1.981-3.735 3.363z"/><path fill="#42AD48" d="M851.924 288.442c-5.705 4.491-11.516 8.713-17.405 12.823-.747.522-2.06.885-2.846.597-6.433-2.361-9.76 1.546-13.145 5.981-4 5.24-8.305 9.987-10.161 16.787-2.507 9.185-10.016 14.066-18.968 17.37-.445-.031-.64-.216-.64-.216 2.47-5.228 5.12-10.382 7.321-15.72.901-2.186.831-4.771 1.164-6.92l-13.737-3.446-.448-1.841c-1.655 2.76-3.765 5.352-4.868 8.319-2 5.382-5.977 7.743-11.196 8.683-2.613.47-5.271.69-7.878 1.185-7.28 1.381-7.97 2.138-8.016 9.737-.018 2.98-1.246 4.178-4.117 4.382-3.38.239-5.955 1.642-8.485 4.312-2.493 2.63-6.329 4.178-9.81 5.641-9.05 3.803-18.322 7.09-27.283 11.079-1.95.868-4.572 4.27-4.157 5.73 2.295 8.064-3.162 12.488-7.45 17.31-2.501 2.812-6.058 4.657-8.937 7.17-4.503 3.932-10.273 3.215-15.469 4.635-13.238 3.617-26.224 9.087-33.758 20.66-8.295 12.743-19.878 19.357-33.262 23.883-8.312 2.81-17.133 4.072-25.584 6.518-9.327 2.7-18.492 5.958-27.998 9.061-.018-5.585-5.188-4.155-9.503-4.084-5.978.098-12.066-.241-17.887.815-3.655.664-7.57 2.897-10.186 5.58-3.969 4.072-8.578 6.057-13.815 7.416-9.365 2.43-16.382 7.398-19.172 17.342-.867 3.09-3.263 5.719-4.567 8.729-.778 1.794-1.775 4.61-.964 5.76 2.167 3.072.407 5.41-1.419 6.325-4.723 2.365-4.74 6.142-4.433 10.355.046.63-.19 1.28-.115.824l-11.764 3.781c-2.758-2.66-5.458-4.826-7.616-7.44-4.012-4.863-7.755-9.952-11.479-15.042-.477-.653-.299-1.892-.207-2.839.999-10.314-4.69-16.451-15.277-16.736-1.866-.05-4.01-.688-5.505-1.774-9.005-6.541-16.645-6.854-25.725-.73-.966.652-2.073 1.201-2.818 2.056-4.987 5.719-7.297 3.953-11.24-1.534-3.357-4.672-8.582-4.67-13.318-5.752-.85-.194-2.442 1.772-3.323 3.004-2.825 3.95-5.478 8.022-8.925 13.124l-7.55-9.769h-9.736c-8.38 8.89-11.264 19.774-11.053 31.46.109 6.038-2.976 9.813-7.432 12.567-4.645 2.871-9.831 4.852-14.699 7.38-9.633 5.002-11.498 14.907-3.99 22.608 4.88 5.008 2.528 9.993 1.067 15.87-4.48-2.937-10.557-2.848-10.423-10.466.072-4.09-3.624-5.247-6.653-2.123-6.336 6.534-14.932 8.573-22.78 11.925-3.586 1.533-8.141 1.021-12.259 1.04-7.147.031-10.251 2.63-13.26 9.06-4.42 9.447-9.423 18.646-14.627 27.693-2.736 4.757-5.606 4.376-8.615-.423-3.81-6.076-6.867-7.094-13.844-4.936-7.434 2.3-14.521 5.028-18.806 12.184-.398.665-1.243 1.09-1.93 1.551-7.462 5.01-8.286 8.334-3.98 16.133 1.724 3.121 6.001 4.11 10.14 2.252 1.047-.47 2.341-1.008 2.877-1.902 4.425-7.377 10.798-4.004 16.624-3.018 2.56.433 4.729 2.453 2.863 5.016-4.48 6.157-2.677 12.833-1.923 19.231.84 7.127-.335 9.207-7.507 10.415-6.692 1.127-13.505 2.075-19.922 4.16-8.773 2.848-10.847 8.415-8.236 17.312 2.043 6.963 3.978 14.031 5.02 21.19.687 4.71-1.377 9.154-5.909 12.237-5.83-9.971-11.826-19.784-16.686-30.13-31.208-66.445-44.764-136.413-37.351-209.463 14.646-144.333 86.086-252.613 212-324.044 64.159-36.396 134.252-52.525 207.949-49.217 138.636 6.222 247.378 67.481 327.022 181.307m-346.423 33.31c6.314-.27 12.628-.54 19.63-1.106.29-1.737.824-3.473.83-5.21.065-15.994.196-31.991-.058-47.981-.074-4.716.682-7.371 6.172-6.58 1.193.171 2.608-1.196 4.033-2.786-.064-5.258-.128-10.516-.654-16.461-1.272-.209-2.59-.738-3.808-.568-4.672.653-5.998-1.35-5.733-5.822.352-5.912.212-11.864 0-17.789-.054-1.506-1.181-2.974-2.764-4.455h-18.865v29.597h-10.528c.454 5.927.864 11.283 1.51 17.359.701.342 1.464 1.067 2.097.967 5.368-.844 5.765 2.136 5.714 6.429-.194 16.446-.128 32.897-.005 49.345.013 1.75 1.036 3.494 2.429 5.06m-227.303.006h48.491v-19.745c-8.523 0-16.639.052-24.753-.048-1.464-.018-2.92-.657-3.71-1.333.254-.916.728-1.83.73-2.747.04-26.356.054-52.712-.031-79.067-.004-1.251-.959-2.499-2.205-4.25-6.486-.157-12.972-.314-20.272-.328-.48 1.111-1.378 2.221-1.381 3.333-.076 33.573-.087 67.145.033 100.718.004 1.203 1.439 2.4 3.098 3.467m398.821-29.016c-1.866 8.832-6.369 12.64-14.703 12.435-7.798-.191-12.96-4.504-13.423-13.148-.782-14.601-.623-29.253-.85-43.884-.028-1.763-.004-3.526-.004-5.422H627.83c0 11.637-.1 22.937.042 34.233.072 5.814.203 11.674 1.005 17.416.61 4.375 1.703 8.902 3.65 12.832 6.668 13.46 21.818 19.258 39.583 15.668 14.112-2.852 23.953-14.106 24.746-29.89.817-16.273.63-32.597.853-48.898.006-.438-.335-.88-.775-1.963-6.437.316-13.01.639-20.297 1.418-.21.783-.602 1.565-.604 2.348-.04 14.283-.054 28.567.002 42.85.004 1.082.566 2.162.983 4.005m-255.25 28.685h19.345c0-2.033-.002-3.823 0-5.612.02-10.822-.042-21.644.088-32.465.087-7.244.913-14.332 6.317-19.934 4.24-4.394 9.502-5.566 15.131-4.002 5.413 1.503 7.888 5.835 8.512 11.202.404 3.466.737 6.96.774 10.444.123 11.986.093 23.974.15 35.96.007 1.434.194 2.866.303 4.366h19.177c0-19.301.077-38.247-.086-57.191-.023-2.753-.862-5.63-1.892-8.222-5.941-14.943-25.622-20.23-40.708-11.016-2.479 1.514-4.842 3.217-7.583 5.05-.18-2.846-.32-5.075-.479-7.616-6.087 0-11.727-.024-17.367.028-.793.007-1.583.383-2.978 1.167-.157.805-.451 1.609-.452 2.413-.026 23.782-.038 47.564.023 71.346.003 1.218.674 2.435 1.725 4.082m194.204-78.784h-19.14l-.664 7.732c-1.905-1.466-3.176-2.488-4.492-3.449-11.524-8.412-27.449-8.793-39.383-.955-14.67 9.635-21.454 28.474-16.994 47.194 4.875 20.459 24.046 33.901 43.55 29.688 6.083-1.315 11.64-5.065 17.46-7.71l.706 6.864c6.833-.307 13.277-.596 20.382-1.456.198-.79.566-1.58.567-2.371.033-23.92.048-47.84-.023-71.76-.004-1.185-.802-2.368-1.97-3.777M471.18 447.877c6.036-2.557 10.57-6.764 14.011-12.326 5.699-9.21 7.652-19.414 8.28-29.994.913-15.362 1.032-30.68-4.608-45.345-5.775-15.016-17.903-22.818-34.277-22.394-15.254.395-27.03 9.252-31.781 24.348-5.937 18.864-5.716 38.092-2.16 57.292.949 5.128 3.047 10.279 5.657 14.823 8.545 14.877 25.088 19.892 44.878 13.596M409.842 249.62v-6.98h-19.587l-.636 7.809c-1.349-1.046-2.124-1.632-2.884-2.239-14.024-11.186-32.97-10.482-46.117 1.716-12.18 11.299-16.697 31.147-10.6 47.545 10.058 27.054 40.558 34.125 58.136 17.403.367-.349 1.064-.351 1.678-.537l.382 7.033h19.628v-71.75m-80.306 97.354c-10.94-10.382-23.7-11.66-37.067-6.341-11.406 4.539-17.396 13.72-19.09 26.467 3.09 0 5.723.016 8.355-.003 5.81-.044 11.538 1.123 15.467-5.746 2.558-4.47 9.223-4.802 14.106-2.552 3.908 1.801 5.64 5.05 5.6 9.218-.043 4.767-3.597 9.088-8.801 11.012-3.277 1.211-7.954 1.55-9.444 3.903-1.665 2.628-.435 7.09-.464 10.754-.002.166.019.335 0 .499-.354 3.1.855 4.41 4.135 4.677 3.43.279 7.004.926 10.13 2.293 6.181 2.702 10.397 7.374 10.47 14.513.066 6.623-3.213 11.592-9.254 14.18-7.42 3.18-19.387 2.453-23.356-10.135-.529-1.675-1.901-4.28-3.039-4.365-5.91-.442-11.871-.206-18.88-.206 1.314 5.3 1.959 9.928 3.607 14.165 5.25 13.498 17.631 21.337 33.054 21.415 15.907.08 30.286-8.493 35.52-21.406 6.072-14.981 1.959-32.408-14.699-39.382-.795-.332-1.484-.917-2.354-1.466 16.62-12.179 18.804-26.68 6.004-41.494m83.715 77.562c1.749-8.627.936-16.978-3.452-24.663-6.08-10.65-15.576-16.294-28.242-17.344l18.494-35.992-16.938-8.45c-.712.61-1.06.775-1.198 1.046-10.614 20.902-21.24 41.797-31.794 62.73-3.831 7.6-4.568 15.792-2.456 23.834 3.918 14.915 17.795 25.135 32.903 25.02 15.458-.119 28.266-10.104 32.683-26.18m124.384-35.146c12.099-6.056 17.507-17.311 14.038-29.213-3.29-11.285-14.879-19.174-26.457-17.644-9.87 1.304-16.964 6.567-20.48 16.055-3.455 9.325-1.575 17.727 5.137 24.951 7.561 8.139 16.842 9.298 27.762 5.85z"/><path fill="#1F5C07" d="M154.947 722.677c-.894-.834-1.878-1.98-2.813-3.504.94.813 1.832 2.002 2.813 3.504zM157.135 722.59c-.07.565-.418 1.28-.767 1.995-.417-.333-.835-.666-1.304-1.313.562-.387 1.177-.46 2.07-.682zM152.204 718.51c-.686-.433-1.408-1.185-2.085-2.313.713.415 1.381 1.205 2.085 2.313zM150.181 715.527c-.696-.404-1.42-1.124-2.132-2.212.71.387 1.407 1.14 2.132 2.212z"/><path fill="#2E6707" d="M854.529 286.804c.03.358-.152.802-.476 1.063-.138-.513-.005-.779.476-1.063z"/><path fill="#1F5C07" d="M158.91 721.828c-.287.238-.574.475-1.146.639-.285-.075-.081-.377.307-.458.389-.081.84-.181.84-.181z"/><path fill="#42AD48" d="M158.9 721.547c.01.28-.44.38-.67.373-.194-.344-.082-.65.315-1.063.254.047.3.228.355.69z"/><path fill="#41AD48" d="M234.061 814.666c3.111-8.446 14.088-14.009 23.376-12.408 1.778.306 3.703-.24 5.56-.392-.336-1.98-.116-4.32-1.118-5.87-2.428-3.754-.784-5.776 1.919-8.415 3.356-3.276 6.631-6.925 8.863-11.003 4.17-7.618 11.602-10.171 18.78-12.868 1.824-.686 5.276 1.46 7.272 3.145 2.14 1.806 3.004 2.805 5.47.167 2.498-2.673 5.19-4.512 5.649-8.812.339-3.18 4.936-3.728 6.884-.86 2.06 3.032 4.386 2.645 7.338 2.236 2.354-.325 5.08-.259 7.217.641 3.82 1.61 4.261 5.08 1.142 7.752-3.711 3.179-6.37 6.052-1.073 10.188 1 .782 1.323 2.638 1.626 4.069 1.752 8.283 2.281 8.055 10.31 10.188 3.086.82 5.335 5.075 7.767 7.933 1.043 1.225 1.58 2.88 2.335 4.318 4.988-1.974 7.448-1.13 10.45 3.942 4.315 7.293 11.183 10.482 19.012 12.076 3.67.746 10.61-6.667 11.053-11.764.246-2.832-.282-6.57 3.487-6.572 3.132-.003 6.797 1.259 9.261 3.19 2.91 2.281 4.807 5.866 7.096 8.92 2.523 3.367 11.221 4.724 15.103 1.904 5.716-4.151 11.859-6.51 18.988-6.523 4.287-.007 6.53-1.935 6.376-6.848-.15-4.733 1.118-9.496 1.265-14.262.065-2.11-.571-4.66-1.822-6.297-2.095-2.744-4.779-5.114-7.495-7.29-6.637-5.32-7.257-5.23-13.938.182-3.421 2.772-18.402 2.49-20.35-1.022-1.474-2.654-1.626-6.427-1.208-9.547.156-1.164 3.75-1.666 5.503-2.867 2.404-1.645 5.134-3.293 6.636-5.637 1.44-2.248 1.478-5.389 2.156-8.132 1.42-5.752 8.423-8.39 11.738-3.687 5.495 7.797 11.338 6.754 18.238 3.196.851-.439 1.95-.692 2.895-.604 5.954.55 10.204-.786 10.456-7.953.039-1.089 2.09-2.477 3.489-3.068 2.589-1.092 5.534-1.376 8.065-2.565 7.601-3.57 14.965-7.66 22.623-11.097 12.317-5.528 24.809-10.622 38.716-10.322 7.394.16 8.416.847 10.94 8.385 2.257-.776 4.537-1.494 6.764-2.348 1.683-.645 3.233-1.795 4.958-2.142 4.636-.935 8.42-1.618 9.465-7.923.41-2.47 6.436-4.092 9.993-5.928 3.264-1.685 7.723-2.286 9.765-4.863 4.851-6.124 12.385-6.936 18.246-10.857.37-.247 1.008-.34 1.438-.215 8.75 2.539 18.01 3.917 25.11 10.379 5.621 5.117 5.13 7.315-.376 12.398-2.716 2.508-4.266 6.47-5.826 10.001-4.057 9.189-3.722 17.115 6.256 22.825 3.956 2.265 7.203 5.899 10.457 9.22 2.987 3.048 3.858 6.331.345 10.04-3.708 3.913-6.963 8.263-10.336 12.487-1.73 2.167-1.977 4.262.99 5.672 4.494 2.136 8.958 4.341 13.515 6.332 3.994 1.745 7.575 3.574 7.216 8.882-.213 3.154 1.89 4.068 4.58 3.69 2.78-.39 6.992 1.684 7.362-3.456.34-4.718 2.511-6.79 7.28-6.808 4.701-.02 8.575-2.064 11.5-5.91a16.024 16.024 0 0 1 3.999-3.716c8.513-5.474 11.955-4.157 15.61 5.205.812 2.08 3.74 5.354 4.62 5.042 3.944-1.395 10.43 2.26 11.581-5.417.381-2.54 1.89-4.953 3.09-7.318 1.88-3.703 4.836-5.735 9.173-5.757 3.433-.017 6.864-.41 11.54-.719-4.337-6.809-1.158-11.446 2.934-15.479 1.81-1.784 4.49-3.413 6.94-3.697 10.403-1.204 15.273-5.806 16.79-16.237.203-1.4 1.888-2.798 3.203-3.767 1.754-1.292 3.819-2.163 6.04-3.374-3.411-4.859-7.548-5.872-12.244-5.728-3.935.122-8.005.915-10.976-3.011-.578-.765-2.468-.817-3.725-.742-7.008.42-8.896-1.185-9.322-8.17-.05-.81-.164-1.615-.282-2.74-3.955.225-7.092 1.001-9.39 4.541-2.759 4.249-7.344 2.069-10.945 1.766-1.897-.16-4.711-2.966-5.1-4.968-1.162-5.988-4.75-9.512-9.468-12.757-2.823-1.942-4.813-5.061-7.354-7.465-1.059-1.002-2.531-2.032-3.896-2.155-3.472-.312-7.026.178-10.473-.25-1.787-.223-4.825-1.695-4.838-2.636-.031-2.342.656-5.628 2.306-6.861 3.266-2.441 7.699-3.295 11.045-5.66 3.203-2.266 5.818-5.469 8.344-8.545 1.443-1.755 2.072-4.156 3.308-6.114.55-.87 1.71-1.955 2.57-1.935 9.316.213 16.813-4.269 24.388-8.856 4.55-2.756 9.467-4.905 14.387-7.413-1.407-4.46-3.112-8.774-8.627-11.315-2.927-1.35-5.364-5.51-6.392-8.895-2.69-8.863-6.992-15.75-16.474-18.282-3.135-.837-4.87-2.736-4.187-6.203.99-5.028-1.462-7.764-5.999-9.263-1.886-.623-3.88-1.28-5.43-2.448-1.148-.865-2.49-2.719-2.294-3.889.568-3.39 1.416-6.887 2.964-9.93 4.707-9.257 12.83-10.361 20.512-2.07 3.611 3.898 7.49 5.563 12.243 6.576 3.268.696 6.569 1.398 6.426 6.125-.036 1.215 1.647 3.195 2.94 3.624 9.579 3.182 18.84 8.926 29.604 3.416 2.069-1.059 5.205-.006 7.85.025 2.734.032 5.47.007 8.38.007-2.028-2.226-4.378-3.724-4.864-5.684-.381-1.538 1.541-3.647 1.802-4.186-.071-6.671-.028-12.25-.222-17.819-.172-4.965-.964-9.937-.754-14.874.088-2.065 1.637-4.539 3.276-5.953 2.328-2.01 3.358-3.478 1.004-6.076-3.89-4.297-4.255-9.195-2.081-14.418 1.64-3.942.471-6.377-3.787-7.365-10.274-2.384-13.476-13.053-6.284-20.96.769-.845 1.92-1.343 2.628-1.823-1.901-2.947-3.61-5.028-4.615-7.407-.464-1.098.015-3.254.878-4.041.673-.615 2.826-.253 3.92.375 2.146 1.23 3.86 3.238 6.039 4.376 2.01 1.05 4.395 1.38 6.615 2.027.256-2.184.57-4.363.734-6.553.056-.751-.267-1.53-.417-2.297l1.169-.951 9.154 8.774-.58 1.504-7.34 1.286-.019 1.296c2.56 0 5.15.218 7.657-.148.655-.095 1.513-2.033 1.45-3.074-.097-1.61-.823-3.21-1.429-4.756-2.368-6.045-5.28-11.668-5.982-18.538-.695-6.795-3.67-6.782-9.043-2.272-3.625 3.042-8.08 5.188-12.38 7.293-2.427 1.187-5.414 2.298-7.24-1.437-.245-.5-1.453-.682-2.236-.741-3.92-.299-5.205-2.322-5.362-6.243-.195-4.913.88-6.978 6.428-6.99 3.865-.007 7.724-2.407 11.222-3.613-1.141-2.516-1.82-4.398-2.831-6.08-.513-.853-1.533-1.626-2.487-1.944-2.834-.943-5.963-1.234-8.555-2.586-1.603-.836-3.017-3.02-3.398-4.835-.22-1.047 1.525-2.973 2.832-3.787 3.754-2.337 4.307-5.58 3.562-9.51-1.093-5.775-.472-6.978 5.246-7.525 4.054-.388 8.336-.384 12.282.494 8.293 1.847 14.952.168 20.55-6.502 5.305-6.32 7.004-6.243 12.525-.05 2.528 2.835 4.714 6.04 6.667 9.31 7.554 12.649 23.087 17.965 36.82 12.656 3.522-1.362 6.738-3.04 11.307-1.478 2.78.95 7.026-2.142 10.532-3.614 5.192-2.182 10.31-4.538 15.84-6.797 3.04 11.334 6.26 22.547 8.265 33.973 7.483 42.655 8.202 85.507 2.033 128.375-8.522 59.216-28.69 114.233-61.638 164.209C797.411 824.922 718.363 884.459 616.703 910c-141.562 35.565-268.384 4.128-378.954-91.566-1.256-1.087-2.398-2.305-3.688-3.768z"/><path fill="#1F5C07" d="M230.393 818.419c-.092-.541.145-1.238.749-2.06.104.55-.158 1.227-.75 2.06zM231.56 816.28c-.119-.209.004-.555.377-1.029.123.213-.006.553-.376 1.03z"/><path fill="#42AD48" d="M789.048 342.066c-.114.048-.321 0-.408-.165.12-.117.314.068.408.165z"/><path fill="#F9F207" d="M470.83 448.042c-19.44 6.13-35.983 1.116-44.528-13.761-2.61-4.544-4.708-9.695-5.658-14.823-3.555-19.2-3.776-38.428 2.161-57.292 4.751-15.096 16.527-23.953 31.78-24.348 16.375-.424 28.503 7.378 34.278 22.394 5.64 14.664 5.52 29.983 4.608 45.345-.628 10.58-2.581 20.784-8.28 29.994-3.44 5.562-7.975 9.77-14.361 12.49m-1.48-81.66c-2.855-5.766-6.949-9.797-13.898-9.424-6.355.342-10.332 4.019-12.735 9.653-.586 1.373-1.243 2.76-1.535 4.207-3.123 15.494-3.448 31.036-.084 46.514 1.962 9.026 8.505 14.355 16.266 13.91 6.5-.373 11.512-5.289 13.594-13.961 3.385-14.102 3.006-28.353.963-42.59-.372-2.595-1.462-5.086-2.572-8.309z"/><path fill="#FAFEFA" d="m616.738 321.12-19.722.886-.707-6.863c-5.818 2.644-11.376 6.394-17.46 7.709-19.503 4.213-38.674-9.23-43.549-29.688-4.46-18.72 2.323-37.56 16.994-47.194 11.934-7.838 27.86-7.457 39.383.955 1.316.96 2.587 1.983 4.492 3.45l.664-7.733c6.365 0 12.753 0 19.471.592.366 26.357.4 52.122.434 77.886m-38.534-62.185c-14.439-1.512-22.563 9.07-23.913 18.905-1.894 13.804 6.472 26.13 18.67 27.237 12.437 1.13 22.28-6.248 24.073-18.044 2.247-14.778-4.454-25.241-18.83-28.098z"/><path fill="#F9FEF9" d="M409.842 250.104v71.266h-19.628l-.382-7.033c-.614.186-1.31.188-1.678.537-17.578 16.722-48.078 9.651-58.136-17.403-6.097-16.398-1.58-36.246 10.6-47.545 13.148-12.198 32.093-12.902 46.117-1.716.76.607 1.535 1.193 2.884 2.239l.636-7.81h19.587v7.465m-25.837 14.363c-7.278-6.265-15.5-7.472-24.122-3.644-8.692 3.859-12.142 11.43-12.48 20.508-.49 13.138 8.721 23.548 20.853 23.852 13.248.332 22.491-9.061 22.662-22.947.08-6.597-1.809-12.421-6.913-17.77z"/><path fill="#F8F308" d="M329.787 347.227c12.55 14.562 10.364 29.062-6.255 41.24.87.55 1.56 1.135 2.354 1.467 16.658 6.974 20.771 24.4 14.699 39.382-5.234 12.913-19.613 21.486-35.52 21.406-15.423-.078-27.805-7.917-33.054-21.415-1.648-4.237-2.293-8.865-3.608-14.165 7.01 0 12.97-.236 18.881.206 1.138.085 2.51 2.69 3.039 4.365 3.97 12.588 15.937 13.315 23.356 10.136 6.04-2.59 9.32-7.558 9.253-14.18-.072-7.14-4.288-11.812-10.468-14.514-3.127-1.367-6.702-2.014-10.13-2.293-3.28-.267-4.49-1.578-4.136-4.677.019-.164-.002-.333 0-.5.03-3.663-1.2-8.125.464-10.753 1.49-2.352 6.167-2.692 9.444-3.903 5.204-1.924 8.758-6.245 8.802-11.012.038-4.167-1.693-7.417-5.601-9.218-4.883-2.25-11.548-1.919-14.106 2.552-3.93 6.869-9.656 5.702-15.467 5.746-2.632.02-5.264.003-8.355.003 1.694-12.747 7.684-21.928 19.09-26.467 13.366-5.32 26.128-4.041 37.318 6.594z"/><path fill="#F9F307" d="M413.17 424.949c-4.336 15.664-17.144 25.65-32.602 25.767-15.108.116-28.985-10.104-32.903-25.02-2.112-8.04-1.375-16.234 2.456-23.834 10.554-20.932 21.18-41.827 31.794-62.729.138-.271.486-.436 1.198-1.047l16.938 8.451-18.494 35.992c12.666 1.05 22.163 6.694 28.242 17.344 4.388 7.685 5.2 16.036 3.372 25.076m-19.45-5.074c.73-8.85-2.853-15.14-9.638-16.918-7.458-1.954-14.986 2.17-16.883 9.25-2.138 7.98 2.149 16.77 9.134 18.725 7.647 2.14 14.52-1.97 17.386-11.057z"/><path fill="#F8FEF8" d="M421.076 243.006c.792-.205 1.582-.581 2.375-.588 5.64-.052 11.28-.028 17.367-.028l.479 7.616c2.741-1.833 5.104-3.536 7.583-5.05 15.086-9.214 34.767-3.927 40.708 11.016 1.03 2.593 1.869 5.469 1.892 8.222.163 18.944.086 37.89.086 57.19h-19.177c-.109-1.5-.296-2.931-.303-4.364-.057-11.987-.027-23.975-.15-35.96-.037-3.485-.37-6.98-.774-10.445-.624-5.367-3.1-9.7-8.512-11.202-5.629-1.564-10.892-.392-15.131 4.002-5.404 5.602-6.23 12.69-6.317 19.934-.13 10.82-.068 21.643-.087 32.465-.003 1.79 0 3.579 0 5.612-6.812 0-13.08 0-19.644-.68-.33-26.366-.362-52.053-.395-77.74z"/><path fill="#F9FEF9" d="m677.352 243.082 19.583-.962c.44 1.083.78 1.525.775 1.963-.223 16.301-.036 32.625-.853 48.898-.793 15.784-10.634 27.038-24.746 29.89-17.765 3.59-32.915-2.208-39.583-15.668-1.947-3.93-3.04-8.457-3.65-12.832-.802-5.742-.933-11.602-1.005-17.416-.142-11.296-.042-22.596-.042-34.233h20.208c0 1.896-.024 3.66.003 5.422.228 14.63.07 29.283.851 43.884.463 8.644 5.625 12.957 13.423 13.148 8.334.205 12.837-3.603 14.752-13.274.128-16.832.206-32.826.284-48.82z"/><path fill="#FBFEFB" d="M297.557 300.954c1.46.353 2.915.992 4.379 1.01 8.114.1 16.23.048 24.753.048v19.745c-16.105 0-32.298 0-49.092-.37-.675-1.2-.813-2.027-.813-2.854-.009-33.5-.01-66.998.018-100.497.001-1.314.3-2.627.46-3.94 6.486.157 12.972.314 19.761 1.182.29 10.71.24 20.709.274 30.708.06 18.323.17 36.646.26 54.968z"/><path fill="#F8FDF8" d="M524.443 320.943c-6.314.27-12.628.539-19.46.44-.57-2.683-.653-4.996-.664-7.31-.09-18.03-.164-36.058-.266-54.36-.353-.339-.682-.405-1.452-.536-2.819-.025-5.195.014-7.571.054l-1.274-16.64h10.528v-29.597c6.68 0 12.772 0 19.403.463.538 9.81.538 19.158.538 28.858h11.691c.064 5.258.128 10.516-.318 16.257-3.544.538-6.578.593-9.906.583-.544.208-.794.481-1.193 1.154-.118 20.478-.087 40.556-.056 60.634z"/><path fill="#F5F30C" d="M537.274 389.555c-10.56 3.283-19.84 2.124-27.401-6.015-6.712-7.224-8.592-15.626-5.137-24.951 3.516-9.488 10.61-14.75 20.48-16.055 11.578-1.53 23.167 6.359 26.457 17.644 3.47 11.902-1.94 23.157-14.4 29.377m-.732-12.481c4.3-4.78 5.51-10.128 2.883-16.128-2.042-4.663-5.61-7.364-10.708-7.792-5.759-.484-10.656 2.797-12.782 8.394-2.21 5.816-.499 12.868 3.975 16.384 4.907 3.855 9.94 3.741 16.632-.858z"/><path fill="#339838" d="M276.855 214.168c.247 1.241-.052 2.554-.053 3.868-.028 33.499-.027 66.998-.018 100.497 0 .827.138 1.654.368 2.92-.613-.762-2.048-1.96-2.052-3.163-.12-33.573-.109-67.145-.033-100.718.003-1.112.9-2.222 1.788-3.404z"/><path fill="#2D9535" d="M297.892 300.793c-.424-18.161-.534-36.484-.595-54.807-.033-10 .017-19.999.094-30.458.575.79 1.53 2.038 1.534 3.289.085 26.355.071 52.711.03 79.067-.001.916-.475 1.831-1.063 2.909z"/><path fill="#33953A" d="M524.787 320.794c-.375-19.93-.406-40.007-.028-60.518.682-.64.954-.848 1.227-1.056 3.034-.055 6.068-.11 9.556-.183-.859.642-2.274 2.01-3.467 1.837-5.49-.79-6.246 1.865-6.172 6.58.254 15.99.123 31.988.059 47.982-.007 1.737-.54 3.473-1.175 5.358z"/><path fill="#3B9646" d="M420.775 243.296c.334 25.397.366 51.084.35 77.236-.407-.753-1.078-1.97-1.081-3.188-.061-23.782-.049-47.564-.023-71.346 0-.804.295-1.608.754-2.702z"/><path fill="#34943B" d="M617.068 320.835c-.364-25.48-.398-51.244-.395-77.488.467.704 1.265 1.887 1.269 3.072.07 23.92.056 47.84.023 71.76 0 .79-.37 1.58-.897 2.656z"/><path fill="#389340" d="M504.076 259.985c.08 18.03.154 36.059.243 54.088.011 2.314.095 4.627.245 7.4-.456-1.288-1.48-3.031-1.492-4.782-.123-16.448-.19-32.899.005-49.345.051-4.293-.346-7.273-5.714-6.429-.633.1-1.396-.625-2.216-1.327 2.259-.399 4.635-.438 7.585-.239.792.445 1.05.576 1.344.634z"/><path fill="#35933D" d="M535.685 241.971c-3.383.344-6.997.344-11.46.344 0-9.7 0-19.048-.064-28.86.57 1.02 1.698 2.488 1.752 3.994.212 5.925.352 11.877 0 17.789-.265 4.473 1.06 6.475 5.733 5.822 1.219-.17 2.536.36 4.04.911z"/><path fill="#37953D" d="M676.995 243.31c.28 15.766.2 31.76.016 48.211-.409-.623-.971-1.703-.975-2.785a6395.314 6395.314 0 0 1-.002-42.85c.002-.783.394-1.565.961-2.576z"/><path fill="#43AC45" d="M469.524 366.724c.935 2.88 2.025 5.371 2.397 7.965 2.043 14.238 2.422 28.49-.963 42.59-2.082 8.673-7.094 13.589-13.594 13.962-7.761.445-14.304-4.884-16.266-13.91-3.364-15.478-3.04-31.02.084-46.514.292-1.448.95-2.834 1.535-4.207 2.403-5.634 6.38-9.311 12.735-9.653 6.95-.373 11.043 3.658 14.072 9.767z"/><path fill="#42AB4A" d="M578.642 258.965c13.938 2.827 20.639 13.29 18.392 28.068-1.793 11.796-11.636 19.174-24.072 18.044-12.2-1.108-20.565-13.433-18.67-27.237 1.35-9.835 9.473-20.417 24.35-18.875z"/><path fill="#42AC4A" d="M384.28 264.707c4.83 5.108 6.719 10.932 6.638 17.529-.17 13.886-9.414 23.279-22.662 22.947-12.132-.304-21.343-10.714-20.853-23.852.338-9.078 3.788-16.65 12.48-20.508 8.623-3.828 16.844-2.621 24.397 3.884z"/><path fill="#44AC41" d="M393.612 420.269c-2.759 8.694-9.631 12.804-17.278 10.663-6.985-1.955-11.272-10.744-9.134-18.726 1.897-7.079 9.425-11.203 16.883-9.249 6.785 1.778 10.368 8.067 9.53 17.312z"/><path fill="#42AD48" d="M525.692 259.155c.021.273-.251.481-.784.722-.01-.24.24-.514.784-.722zM504.053 259.713c-.272.214-.529.083-.88-.297.198-.108.527-.042.88.297z"/><path fill="#46AC40" d="M536.258 377.321c-6.41 4.352-11.442 4.466-16.349.611-4.474-3.516-6.185-10.568-3.975-16.384 2.126-5.597 7.023-8.878 12.782-8.394 5.099.428 8.666 3.13 10.708 7.792 2.627 6 1.417 11.349-3.166 16.375z"/></svg>