<svg xmlns="http://www.w3.org/2000/svg" xmlns:xlink="http://www.w3.org/1999/xlink" viewBox="0 0 114.92 110.46"><defs><style>.cls-1{fill:#ffca4c;}.cls-2{fill:#fff;}.cls-3{fill:url(#linear-gradient);}.cls-4{fill:url(#linear-gradient-2);}.cls-5{fill:url(#linear-gradient-3);}.cls-6{fill:url(#linear-gradient-4);}.cls-7{fill:url(#linear-gradient-5);}.cls-8{fill:url(#linear-gradient-6);}.cls-9{fill:url(#linear-gradient-7);}</style><linearGradient id="linear-gradient" x1="61.92" y1="87.51" x2="70.02" y2="87.51" gradientUnits="userSpaceOnUse"><stop offset="0" stop-color="#fff"/><stop offset="1" stop-color="#409fff"/></linearGradient><linearGradient id="linear-gradient-2" x1="43.92" y1="97.41" x2="52.02" y2="97.41" xlink:href="#linear-gradient"/><linearGradient id="linear-gradient-3" x1="43.92" y1="77.61" x2="52.02" y2="77.61" xlink:href="#linear-gradient"/><linearGradient id="linear-gradient-4" x1="80.82" y1="77.61" x2="88.92" y2="77.61" xlink:href="#linear-gradient"/><linearGradient id="linear-gradient-5" x1="80.37" y1="96.96" x2="88.47" y2="96.96" xlink:href="#linear-gradient"/><linearGradient id="linear-gradient-6" x1="61.92" y1="106.41" x2="70.02" y2="106.41" xlink:href="#linear-gradient"/><linearGradient id="linear-gradient-7" x1="61.92" y1="69.51" x2="70.02" y2="69.51" xlink:href="#linear-gradient"/></defs><g id="Layer_2" data-name="Layer 2"><g id="Layer_1-2" data-name="Layer 1"><circle class="cls-1" cx="2.43" cy="40.47" r="2.43"/><circle class="cls-1" cx="4.08" cy="16.14" r="2.43"/><circle class="cls-1" cx="34.04" cy="32.29" r="23.51"/><circle class="cls-1" cx="23.05" cy="2.43" r="2.43"/><circle class="cls-1" cx="47.74" cy="3.34" r="2.43"/><path class="cls-2" d="M114.92,60.35a22.49,22.49,0,0,1-11.67,19.72,2.5,2.5,0,0,1-2.4-4.38,17.5,17.5,0,0,0-8.43-32.84,17,17,0,0,0-3.49.36l-3,.62V40.35A21.5,21.5,0,0,0,43,38.56a22.64,22.64,0,0,1,15.15,13,2.48,2.48,0,0,1-1.33,3.27,2.34,2.34,0,0,1-1,.2,2.49,2.49,0,0,1-2.3-1.53A17.65,17.65,0,0,0,41.16,43.26l-1.11-.21h0A17.5,17.5,0,0,0,28.67,75.52a2.5,2.5,0,0,1-2.5,4.34A22.5,22.5,0,0,1,38,37.86a26.5,26.5,0,0,1,52.77,0c.53,0,1.07-.06,1.61-.06a22.32,22.32,0,0,1,15.91,6.59A22.35,22.35,0,0,1,114.92,60.35Z"/><circle class="cls-3" cx="65.97" cy="87.51" r="4.05"/><circle class="cls-4" cx="47.97" cy="97.41" r="4.05"/><circle class="cls-5" cx="47.97" cy="77.61" r="4.05"/><circle class="cls-6" cx="84.87" cy="77.61" r="4.05"/><circle class="cls-7" cx="84.42" cy="96.96" r="4.05"/><circle class="cls-8" cx="65.97" cy="106.41" r="4.05"/><circle class="cls-9" cx="65.97" cy="69.51" r="4.05"/></g></g></svg>