<svg xmlns="http://www.w3.org/2000/svg" viewBox="0 0 113.71 82.85"><defs><style>.cls-1{fill:#ffca4c;}.cls-2{fill:#fff;}</style></defs><g id="Layer_2" data-name="Layer 2"><g id="Layer_1-2" data-name="Layer 1"><circle class="cls-1" cx="32.83" cy="32.29" r="23.51"/><circle class="cls-1" cx="2.43" cy="43.47" r="2.43"/><circle class="cls-1" cx="4.08" cy="19.14" r="2.43"/><circle class="cls-1" cx="21.84" cy="2.43" r="2.43"/><circle class="cls-1" cx="46.53" cy="3.34" r="2.43"/><path class="cls-2" d="M107.11,44.45a22.44,22.44,0,0,0-15.9-6.6c-.54,0-1.08,0-1.61.06a26.5,26.5,0,0,0-52.77,0h-.67a22.5,22.5,0,0,0,0,45h55a22.49,22.49,0,0,0,15.9-38.4Zm-15.9,33.4h-55a17.5,17.5,0,0,1,0-35h0a16.68,16.68,0,0,1,2.64.21h0l1.12.2A17.63,17.63,0,0,1,52.34,53.55a2.51,2.51,0,0,0,2.3,1.53,2.6,2.6,0,0,0,1-.2,2.5,2.5,0,0,0,1.32-3.28,22.66,22.66,0,0,0-15.15-13,21.5,21.5,0,0,1,42.92,1.79v3.49l3-.63a17.82,17.82,0,0,1,3.49-.36,17.5,17.5,0,1,1,0,35Z"/></g></g></svg>