<svg xmlns="http://www.w3.org/2000/svg" xmlns:xlink="http://www.w3.org/1999/xlink" viewBox="0 0 77.21 69.09"><defs><style>.cls-1{fill:url(#radial-gradient);}.cls-2{fill:url(#radial-gradient-2);}.cls-3{fill:url(#linear-gradient);}.cls-4{fill:#e8e8f2;}</style><radialGradient id="radial-gradient" cx="57.94" cy="9.27" r="9.27" gradientUnits="userSpaceOnUse"><stop offset="0" stop-color="#fff"/><stop offset="0.14" stop-color="#e3daff"/><stop offset="0.34" stop-color="#c3aeff"/><stop offset="0.53" stop-color="#aa8cff"/><stop offset="0.7" stop-color="#9874ff"/><stop offset="0.87" stop-color="#8d65ff"/><stop offset="1" stop-color="#8960ff"/></radialGradient><radialGradient id="radial-gradient-2" cx="71.94" cy="33.27" r="5.27" xlink:href="#radial-gradient"/><linearGradient id="linear-gradient" x1="-45.99" y1="10.35" x2="41.17" y2="36.87" gradientUnits="userSpaceOnUse"><stop offset="0.25" stop-color="#fff"/><stop offset="0.36" stop-color="#e8e0ff"/><stop offset="0.58" stop-color="#bfa9ff"/><stop offset="0.76" stop-color="#a281ff"/><stop offset="0.91" stop-color="#9069ff"/><stop offset="1" stop-color="#8960ff"/></linearGradient></defs><g id="Layer_2" data-name="Layer 2"><g id="Layer_1-2" data-name="Layer 1"><polygon class="cls-1" points="60.28 6.93 67.21 9.27 60.28 11.61 57.94 18.53 55.6 11.61 48.67 9.27 55.6 6.93 57.94 0 60.28 6.93"/><polygon class="cls-2" points="73.27 31.94 77.21 33.27 73.27 34.6 71.94 38.53 70.61 34.6 66.67 33.27 70.61 31.94 71.94 28 73.27 31.94"/><path class="cls-3" d="M76.79,50.7A32,32,0,0,1,48.33,69.08H46.9a32,32,0,0,1-4.47-63.6A32,32,0,0,0,70.9,51.08h1.43A31.83,31.83,0,0,0,76.79,50.7Z"/><path class="cls-4" d="M30.25,44.78a6.81,6.81,0,0,1-6.81,6.8H6.8A6.81,6.81,0,0,1,6.8,38H7a8,8,0,0,1,16,0l.48,0a6.83,6.83,0,0,1,6.81,6.81Z"/></g></g></svg>