<svg xmlns="http://www.w3.org/2000/svg" xmlns:xlink="http://www.w3.org/1999/xlink" viewBox="0 0 86 85"><defs><style>.cls-1{fill:#fff;}.cls-2{fill:url(#linear-gradient);}.cls-3{fill:url(#linear-gradient-2);}.cls-4{fill:url(#linear-gradient-3);}.cls-5{fill:url(#linear-gradient-4);}.cls-6{fill:url(#linear-gradient-5);}.cls-7{fill:url(#linear-gradient-6);}</style><linearGradient id="linear-gradient" x1="30" y1="82" x2="36" y2="82" gradientUnits="userSpaceOnUse"><stop offset="0" stop-color="#fff"/><stop offset="1" stop-color="#409fff"/></linearGradient><linearGradient id="linear-gradient-2" x1="70" y1="71" x2="76" y2="71" xlink:href="#linear-gradient"/><linearGradient id="linear-gradient-3" x1="80" y1="33" x2="86" y2="33" xlink:href="#linear-gradient"/><linearGradient id="linear-gradient-4" x1="52" y1="3" x2="58" y2="3" xlink:href="#linear-gradient"/><linearGradient id="linear-gradient-5" x1="11" y1="11" x2="17" y2="11" xlink:href="#linear-gradient"/><linearGradient id="linear-gradient-6" x1="0" y1="52" x2="6" y2="52" xlink:href="#linear-gradient"/></defs><g id="Layer_2" data-name="Layer 2"><g id="Layer_1-2" data-name="Layer 1"><path class="cls-1" d="M78.35,41.15A2.59,2.59,0,0,0,75.52,40a2.71,2.71,0,0,0-.68.28l0,0-6.35,3.52A7.84,7.84,0,0,0,66.88,45l-.94.91L58.1,43.61V41.89a14.76,14.76,0,0,0-1.91-7.37L55.35,33l5.88-5.77,1.26.36a7.36,7.36,0,0,0,1.93.26l7.23.09h.22a2.61,2.61,0,0,0,.57-.08,2.56,2.56,0,0,0-.68-5h0l-9.56-.2.11-9.51V13a2.56,2.56,0,0,0-2.58-2.53,2.49,2.49,0,0,0-.61.08,2.55,2.55,0,0,0-1.93,2.5l-.08,7.25a7.21,7.21,0,0,0,.24,2l.33,1.27-6,5.92-1.45-.75a14.69,14.69,0,0,0-6.06-1.61l-1.68-.07-2-7.86.92-.91a7.33,7.33,0,0,0,1.19-1.52l3.67-6.17.08-.13a2.53,2.53,0,0,0,.25-1.94,2.56,2.56,0,0,0-4.69-.6l0,0-5,8.15-8.1-4.82a2.56,2.56,0,0,0-2.62,4.4l6.18,3.7a7.35,7.35,0,0,0,1.87.79l1.28.35,2,7.8L36,29.17a14.63,14.63,0,0,0-4.56,4.3l-.92,1.34-8.12-2.32-.32-1.27a7.11,7.11,0,0,0-.72-1.84L17.87,23.1,17.78,23a2.56,2.56,0,0,0-2.84-1.2,2.7,2.7,0,0,0-.66.27,2.56,2.56,0,0,0-.93,3.5l0,0L17.93,34,9.61,38.51l-.15.08a2.56,2.56,0,0,0,1.94,4.69,2.44,2.44,0,0,0,.67-.28l0,0,6.36-3.52A7.37,7.37,0,0,0,20,38.31L21,37.4l7.92,2.27,0,1.74a14.8,14.8,0,0,0,1.82,7.39l.83,1.5L25.68,56l-1.26-.35a7.06,7.06,0,0,0-2-.27l-7.21-.08h-.07a.75.75,0,0,0-.15,0,2.62,2.62,0,0,0-.57.07,2.57,2.57,0,0,0,.68,5h0l9.56.19-.11,9.49v.1a2.56,2.56,0,0,0,2.58,2.54,2.55,2.55,0,0,0,2.54-2.58l.09-7.24a7.71,7.71,0,0,0-.25-2l-.32-1.27,5.93-5.8,1.45.77a14.82,14.82,0,0,0,6.21,1.67l1.68.07,2,7.8-1,.91a7.75,7.75,0,0,0-1.28,1.62L40.63,72.9a2.56,2.56,0,0,0,2.86,3.74A2.58,2.58,0,0,0,45,75.52l5-8.13,8.09,4.84a2.54,2.54,0,0,0,1.94.28,2.51,2.51,0,0,0,1.57-1.17,2.57,2.57,0,0,0-.89-3.51l-6.18-3.69a7.43,7.43,0,0,0-1.78-.77L51.51,63l-2-7.87L51,54.28a14.9,14.9,0,0,0,4.68-4.4l.91-1.36,8,2.28.31,1.28a7.42,7.42,0,0,0,.72,1.83l3.5,6.3,0,.07,0,0A2.58,2.58,0,0,0,72,61.54a2.7,2.7,0,0,0,.66-.27,2.57,2.57,0,0,0,.93-3.51v0L69,49.35l8.3-4.61,0,0a.3.3,0,0,0,.11-.06A2.57,2.57,0,0,0,78.35,41.15ZM45.81,50.93A9.49,9.49,0,1,1,52.68,39.4,9.5,9.5,0,0,1,45.81,50.93Z"/><circle class="cls-2" cx="33" cy="82" r="3"/><circle class="cls-3" cx="73" cy="71" r="3"/><circle class="cls-4" cx="83" cy="33" r="3"/><circle class="cls-5" cx="55" cy="3" r="3"/><circle class="cls-6" cx="14" cy="11" r="3"/><circle class="cls-7" cx="3" cy="52" r="3"/></g></g></svg>