<svg xmlns="http://www.w3.org/2000/svg" viewBox="0 0 89.58 95.63"><defs><style>.cls-1{fill:#ff7a56;}.cls-2{fill:#ffca4c;}.cls-3{fill:#fff;}</style></defs><g id="Layer_2" data-name="Layer 2"><g id="Layer_1-2" data-name="Layer 1"><path class="cls-1" d="M72.07,72A10.32,10.32,0,1,1,59,58.57l1.26-.47V31.33a2.19,2.19,0,0,1,4.38,0V58.1l1.27.47A10.46,10.46,0,0,1,72.07,72Z"/><path class="cls-2" d="M37.94,2.49v8.6a6.61,6.61,0,0,1-5.56,6.51,18.16,18.16,0,0,0-.59,35.6,2.47,2.47,0,0,1,1.86,3,2.49,2.49,0,0,1-2.42,1.93,3,3,0,0,1-.42,0,24,24,0,0,1-3.26-.92l-1.28-.46-5.15,8.83a2.48,2.48,0,0,1-4.63-1.24,2.46,2.46,0,0,1,.34-1.24L22,54.23l-1.07-.88a23.4,23.4,0,0,1-3.23-3.22l-.86-1.05-9,5a2.52,2.52,0,0,1-1.32.38,2.5,2.5,0,0,1-2.42-3.08,2.5,2.5,0,0,1,1.12-1.54l9.13-5.11-.49-1.31a22.05,22.05,0,0,1-1.13-4.16l-.23-1.36h-10a2.49,2.49,0,0,1,0-5h10l.22-1.36a24.36,24.36,0,0,1,1.06-4.05l.46-1.27L5.32,21.09A2.53,2.53,0,0,1,4,19.63,2.49,2.49,0,0,1,6.4,16.36a2.51,2.51,0,0,1,1.11.26l.26.15,8.88,5.17.88-1.09a24.56,24.56,0,0,1,3.21-3.24l1.05-.86-5-9a2.51,2.51,0,0,1-.31-1.9A2.49,2.49,0,0,1,21,5.17l5.09,9.1,1.31-.48a22.55,22.55,0,0,1,4.1-1.09l1.35-.23L33,2.5a2.49,2.49,0,1,1,5,0Z"/><path class="cls-3" d="M81.87,49.43,81.38,49V19c-.19-5.84-2.31-10.72-6.13-14.11a19.92,19.92,0,0,0-25.68,0C45.76,8.27,43.64,13.14,43.44,19V49l-.49.48C35.26,57,33.14,68.16,37.42,78.61a28.12,28.12,0,0,0,9.33,12.11,25.41,25.41,0,0,0,15.1,4.91H63a25.41,25.41,0,0,0,15.1-4.91,28.12,28.12,0,0,0,9.34-12.11C91.68,68.15,89.56,57,81.87,49.43ZM84.61,69.7a22.23,22.23,0,1,1-37-17.82A2.5,2.5,0,0,0,48.42,50V19a14,14,0,0,1,28,0V50a2.49,2.49,0,0,0,.82,1.85A22.48,22.48,0,0,1,79,53.63,22.07,22.07,0,0,1,84.61,69.7Z"/></g></g></svg>