<svg width="24" height="20" viewBox="0 0 24 20" fill="none" xmlns="http://www.w3.org/2000/svg">
<path d="M21.2599 0H2.73996C1.22904 0 0 1.32169 0 2.94621V17.0538C0 18.6783 1.22916 20 2.73996 20H21.2599C22.7707 20 24 18.6783 24 17.0538V2.94621C24 1.32169 22.7707 0 21.2599 0ZM12 18.4517H2.73996C2.0232 18.4517 1.44 17.8248 1.44 17.0539V2.94621C1.44 2.17537 2.0232 1.5484 2.73996 1.5484H12V18.4517ZM21.9096 6.91992C21.844 8.09993 21.2294 10.4375 19.4053 12.0612C19.9591 12.1931 20.5608 12.2642 21.1957 12.2642V13.8126C19.9296 13.8126 18.7672 13.565 17.7794 13.1255C16.8568 13.5514 15.7432 13.8126 14.4044 13.8126V12.2642C15.0203 12.2642 15.5953 12.1996 16.1284 12.0709C15.1189 11.1656 14.5225 9.96625 14.5225 8.61541H15.9624C15.9624 9.75825 16.6416 10.7467 17.7485 11.4055C18.3054 11.0623 18.7927 10.6168 19.2082 10.0699C19.8835 9.18135 20.2284 8.19618 20.3786 7.48379H14.4044V5.9354H17.0801V4.3888H18.5201V5.93552H21.0467C21.285 5.93552 21.5149 6.04275 21.6776 6.22972C21.8383 6.41282 21.9236 6.66521 21.9096 6.91992Z" fill="url(#paint0_linear_2_937)"/>
<path d="M5.16438 12.3565L4.63039 13.8091H2.71387L5.87647 5.92651H7.79299L10.8825 13.8091H8.89255L8.36898 12.3565H5.16438ZM6.77718 7.91956L5.70895 10.8362H7.82443L6.77718 7.91956Z" fill="url(#paint1_linear_2_937)"/>
<defs>
<linearGradient id="paint0_linear_2_937" x1="12" y1="0" x2="12" y2="20" gradientUnits="userSpaceOnUse">
<stop stop-color="#08BF67"/>
<stop offset="1" stop-color="#00A040"/>
</linearGradient>
<linearGradient id="paint1_linear_2_937" x1="6.79818" y1="5.92651" x2="6.79818" y2="13.8091" gradientUnits="userSpaceOnUse">
<stop stop-color="#08BF67"/>
<stop offset="1" stop-color="#00A040"/>
</linearGradient>
</defs>
</svg>
