<svg width="22" height="24" viewBox="0 0 22 24" fill="none" xmlns="http://www.w3.org/2000/svg">
<path d="M21.1198 4.17859C21.12 4.08221 21.1011 3.98679 21.0643 3.89807C21.0274 3.80935 20.9734 3.72917 20.9055 3.66236L17.4284 0.209431C17.3428 0.123029 17.2371 0.0602685 17.1213 0.0270301C17.0054 -0.00620836 16.8833 -0.00883671 16.7662 0.0193912C16.6491 0.0476192 16.5409 0.105779 16.4518 0.188422C16.3627 0.271065 16.2955 0.375485 16.2567 0.491898C16.2519 0.511379 15.6184 2.39125 13.818 2.2695C13.2657 2.23019 12.7337 2.04118 12.2766 1.72191C11.8196 1.40264 11.4539 0.964629 11.2173 0.452937C11.1644 0.320371 11.0741 0.206933 10.9579 0.127121C10.8417 0.04731 10.7048 0.00475133 10.5648 0.004885H10.56C10.4201 0.00536103 10.2835 0.0475438 10.1667 0.126264C10.05 0.204983 9.95821 0.31682 9.90269 0.448067C9.66739 0.961166 9.30219 1.4006 8.84493 1.72086C8.38766 2.04111 7.85497 2.23053 7.30203 2.2695C5.53015 2.39125 4.88713 0.56495 4.86332 0.491898C4.82445 0.375485 4.75732 0.271065 4.66821 0.188422C4.57911 0.105779 4.47094 0.0476192 4.35384 0.0193912C4.23675 -0.00883671 4.11456 -0.00620836 3.99873 0.0270301C3.8829 0.0602685 3.77722 0.123029 3.69159 0.209431L0.214516 3.66236C0.146581 3.72917 0.09257 3.80935 0.0557344 3.89807C0.0188989 3.98679 2.04818e-07 4.08221 0.000176069 4.17859C-0.00197117 4.27554 0.0155416 4.37189 0.0516112 4.46158C0.0876809 4.55126 0.141526 4.63234 0.209753 4.6997C1.71966 6.2484 1.52914 8.40587 0.600329 12.0974C-0.323716 15.7744 0.619381 20.815 10.3457 23.9659C10.4851 24.0114 10.6349 24.0114 10.7743 23.9659C20.5006 20.815 21.4437 15.7744 20.5197 12.0974C19.5909 8.40587 19.4003 6.2484 20.9102 4.6997C20.9785 4.63234 21.0323 4.55126 21.0684 4.46158C21.1045 4.37189 21.122 4.27554 21.1198 4.17859ZM11.2745 12.6526V15.638C11.2745 15.8318 11.1992 16.0176 11.0652 16.1546C10.9312 16.2916 10.7495 16.3685 10.56 16.3685C10.3705 16.3685 10.1888 16.2916 10.0548 16.1546C9.92081 16.0176 9.84553 15.8318 9.84553 15.638V12.6526C9.39813 12.4814 9.02372 12.155 8.78767 11.7304C8.55161 11.3058 8.4689 10.8098 8.55397 10.3292C8.63904 9.84859 8.88649 9.41376 9.25312 9.10064C9.61976 8.78752 10.0823 8.61599 10.56 8.61599C11.0377 8.61599 11.5002 8.78752 11.8669 9.10064C12.2335 9.41376 12.481 9.84859 12.566 10.3292C12.6511 10.8098 12.5684 11.3058 12.3323 11.7304C12.0963 12.155 11.7219 12.4814 11.2745 12.6526ZM11.1697 10.7046C11.1687 10.8277 11.1322 10.9477 11.0646 11.0496C10.9971 11.1514 10.9015 11.2306 10.79 11.277C10.6785 11.3234 10.5561 11.3351 10.4382 11.3105C10.3202 11.2859 10.212 11.2261 10.1272 11.1388C10.0424 11.0514 9.98485 10.9403 9.96171 10.8195C9.93857 10.6987 9.95092 10.5737 9.9972 10.46C10.0435 10.3464 10.1216 10.2493 10.2218 10.1811C10.3219 10.1128 10.4396 10.0763 10.56 10.0763C10.6404 10.0764 10.72 10.0928 10.7943 10.1245C10.8685 10.1562 10.9359 10.2025 10.9925 10.2609C11.0492 10.3193 11.094 10.3885 11.1244 10.4647C11.1548 10.5408 11.1702 10.6223 11.1697 10.7046Z" fill="url(#paint0_linear_2_957)"/>
<defs>
<linearGradient id="paint0_linear_2_957" x1="10.56" y1="0" x2="10.56" y2="24" gradientUnits="userSpaceOnUse">
<stop stop-color="#08BF67"/>
<stop offset="1" stop-color="#00A040"/>
</linearGradient>
</defs>
</svg>
