<svg width="24" height="25" viewBox="0 0 24 25" fill="none" xmlns="http://www.w3.org/2000/svg">
<path d="M21.6 0H2.4C1.76348 0 1.15303 0.28657 0.702944 0.796669C0.252856 1.30677 0 1.99861 0 2.72V21.76C0 22.4814 0.252856 23.1732 0.702944 23.6833C1.15303 24.1934 1.76348 24.48 2.4 24.48H21.6C22.2365 24.48 22.847 24.1934 23.2971 23.6833C23.7471 23.1732 24 22.4814 24 21.76V2.72C24 1.99861 23.7471 1.30677 23.2971 0.796669C22.847 0.28657 22.2365 0 21.6 0ZM10.8 19.04H3.6V16.32H10.8V19.04ZM20.4 13.6H3.6V10.88H20.4V13.6ZM20.4 8.16H3.6V5.44H20.4V8.16Z" fill="url(#paint0_linear_2_958)"/>
<defs>
<linearGradient id="paint0_linear_2_958" x1="12" y1="0" x2="12" y2="24.48" gradientUnits="userSpaceOnUse">
<stop stop-color="#08BF67"/>
<stop offset="1" stop-color="#00A040"/>
</linearGradient>
</defs>
</svg>
