<svg xmlns="http://www.w3.org/2000/svg" viewBox="0 0 125.14 84.01"><defs><style>.cls-1{fill:#ffca4c;}.cls-2{fill:#fff;}</style></defs><g id="Layer_2" data-name="Layer 2"><g id="Layer_1-2" data-name="Layer 1"><circle class="cls-1" cx="42" cy="42.5" r="29"/><circle class="cls-1" cx="70" cy="15" r="3"/><circle class="cls-1" cx="14" cy="71" r="3"/><circle class="cls-1" cx="3" cy="43" r="3"/><circle class="cls-1" cx="14" cy="15" r="3"/><circle class="cls-1" cx="42" cy="3" r="3"/><path class="cls-2" d="M64.21,84H63.4a16.64,16.64,0,0,1-7.1-1.92A9.43,9.43,0,0,0,49.91,81a8.41,8.41,0,0,0-4.2,2.14,2.5,2.5,0,1,1-3.42-3.64A13.38,13.38,0,0,1,49,76l.11,0a14.26,14.26,0,0,1,9.28,1.54A11.74,11.74,0,0,0,63.59,79a10.53,10.53,0,0,0,5.77-1.27A15.08,15.08,0,0,1,76.5,76a13.29,13.29,0,0,1,7.26,1.91A6.54,6.54,0,0,0,87.5,79a7.87,7.87,0,0,0,4.63-1.61,2.5,2.5,0,1,1,3,4A12.79,12.79,0,0,1,87.54,84h0a11.52,11.52,0,0,1-6.18-1.71A8.46,8.46,0,0,0,76.5,81a10.32,10.32,0,0,0-5,1.26A15.23,15.23,0,0,1,64.21,84Z"/><path class="cls-2" d="M93.21,68H92.4a16.64,16.64,0,0,1-7.1-1.92A9.37,9.37,0,0,0,78.91,65a8.41,8.41,0,0,0-4.2,2.14,2.5,2.5,0,0,1-3.42-3.64A13.38,13.38,0,0,1,78,60l.11,0a14.26,14.26,0,0,1,9.28,1.54A11.74,11.74,0,0,0,92.59,63a10.53,10.53,0,0,0,5.77-1.27A15.08,15.08,0,0,1,105.5,60a13.29,13.29,0,0,1,7.26,1.91A6.54,6.54,0,0,0,116.5,63a7.87,7.87,0,0,0,4.63-1.61,2.5,2.5,0,0,1,3,4A12.79,12.79,0,0,1,116.54,68h0a11.52,11.52,0,0,1-6.18-1.71A8.46,8.46,0,0,0,105.5,65a10.32,10.32,0,0,0-5,1.26A15.23,15.23,0,0,1,93.21,68Z"/><path class="cls-2" d="M68.72,52a17.4,17.4,0,0,1-2.57-.2,13.34,13.34,0,0,1-6.87-3.44,2.5,2.5,0,1,1,3.44-3.64A8.28,8.28,0,0,0,67,46.88a9.39,9.39,0,0,0,6.35-1.12,16.65,16.65,0,0,1,7.11-1.92,15.46,15.46,0,0,1,8.06,1.74,10.32,10.32,0,0,0,5,1.26,8.38,8.38,0,0,0,4.86-1.3,11.58,11.58,0,0,1,6.14-1.7,2.5,2.5,0,0,1,0,5,6.54,6.54,0,0,0-3.74,1.09,13.29,13.29,0,0,1-7.26,1.91,15.08,15.08,0,0,1-7.14-1.73,10.56,10.56,0,0,0-5.77-1.27,11.74,11.74,0,0,0-5.16,1.44A14.3,14.3,0,0,1,68.72,52Z"/></g></g></svg>