<svg xmlns="http://www.w3.org/2000/svg" viewBox="0 0 113.71 95.35"><defs><style>.cls-1{fill:#ffca4c;}.cls-2{fill:#fff;}</style></defs><g id="Layer_2" data-name="Layer 2"><g id="Layer_1-2" data-name="Layer 1"><circle class="cls-1" cx="32.83" cy="32.29" r="23.51"/><circle class="cls-1" cx="2.43" cy="43.47" r="2.43"/><circle class="cls-1" cx="4.08" cy="19.14" r="2.43"/><circle class="cls-1" cx="21.84" cy="2.43" r="2.43"/><circle class="cls-1" cx="46.53" cy="3.34" r="2.43"/><path class="cls-2" d="M113.71,60.35A22.49,22.49,0,0,1,102,80.07a2.5,2.5,0,0,1-2.4-4.38,17.5,17.5,0,0,0-8.43-32.84h0a17,17,0,0,0-3.48.36l-3,.62V40.35a21.5,21.5,0,0,0-42.92-1.79,22.67,22.67,0,0,1,15.15,13,2.49,2.49,0,0,1-1.33,3.27,2.41,2.41,0,0,1-1,.2,2.49,2.49,0,0,1-2.3-1.53A17.65,17.65,0,0,0,40,43.26l-1.11-.21h0A17.5,17.5,0,0,0,27.46,75.52,2.5,2.5,0,1,1,25,79.86a22.5,22.5,0,0,1,11.87-42,26.5,26.5,0,0,1,52.77,0c.53,0,1.07-.06,1.6-.06h0a22.5,22.5,0,0,1,22.5,22.5Z"/><path class="cls-2" d="M29.71,91.35a2.49,2.49,0,0,1-1.77-.73,2.52,2.52,0,0,1,0-3.54l17-17a2.5,2.5,0,1,1,3.54,3.54l-17,17A2.49,2.49,0,0,1,29.71,91.35Z"/><path class="cls-2" d="M74.71,95.35a2.49,2.49,0,0,1-1.77-.73,2.52,2.52,0,0,1,0-3.54l17-17a2.5,2.5,0,1,1,3.54,3.54l-17,17A2.49,2.49,0,0,1,74.71,95.35Z"/><path class="cls-2" d="M57.21,94.85a2.49,2.49,0,0,1-1.77-.73,2.52,2.52,0,0,1,0-3.54l10-10A2.5,2.5,0,1,1,69,84.12l-10,10A2.49,2.49,0,0,1,57.21,94.85Z"/><path class="cls-2" d="M78.21,74.85a2.49,2.49,0,0,1-1.77-.73,2.52,2.52,0,0,1,0-3.54l10-10A2.5,2.5,0,1,1,90,64.12l-10,10A2.49,2.49,0,0,1,78.21,74.85Z"/><path class="cls-2" d="M56.21,77.85a2.49,2.49,0,0,1-1.77-.73,2.52,2.52,0,0,1,0-3.54l10-10A2.5,2.5,0,1,1,68,67.12l-10,10A2.49,2.49,0,0,1,56.21,77.85Z"/></g></g></svg>