<svg xmlns="http://www.w3.org/2000/svg" viewBox="0 0 120.98 92.87"><defs><style>.cls-1{fill:#26adf8;}.cls-2{fill:#fff;}</style></defs><g id="Layer_2" data-name="Layer 2"><g id="Layer_1-2" data-name="Layer 1"><path class="cls-1" d="M121,37a17.91,17.91,0,0,1-17.89,17.89H59.33a17.9,17.9,0,0,1,0-35.79h.53a21.07,21.07,0,0,1,42,0c.42,0,.85-.05,1.28-.05A17.91,17.91,0,0,1,121,37Z"/><path class="cls-2" d="M100,53.18a22.43,22.43,0,0,1-5.87,15.21,2.51,2.51,0,0,1-3.54.21h0a2.49,2.49,0,0,1-.16-3.55,17.62,17.62,0,0,0,3.65-17.51A17.31,17.31,0,0,0,77.48,35.76h0a17.23,17.23,0,0,0-3.51.38l-3,.63,0-3.48a21.49,21.49,0,0,0-42.9-1.84A22.64,22.64,0,0,1,42.18,44,2.55,2.55,0,0,1,41,47.36a2.78,2.78,0,0,1-1.1.27,2.54,2.54,0,0,1-2.32-1.53,17.57,17.57,0,0,0-9.82-9.46l-2.72-.48A17.94,17.94,0,0,0,22.44,36h0a17.32,17.32,0,0,0-16.55,12A17.56,17.56,0,0,0,22.57,71h0a2.5,2.5,0,1,1,0,5h0a22.5,22.5,0,0,1-.18-45c.24,0,.44,0,.66,0a26.51,26.51,0,0,1,52.78-.15c.52,0,1.06-.06,1.59-.07h0A22.54,22.54,0,0,1,100,53.18Z"/><path class="cls-2" d="M28.88,92.87l-.74,0a15.2,15.2,0,0,1-6.56-1.77,8.64,8.64,0,0,0-5.9-1,7.71,7.71,0,0,0-3.87,2,2.31,2.31,0,0,1-3.17-3.36,12.41,12.41,0,0,1,6.24-3.16l.1,0a13.19,13.19,0,0,1,8.57,1.42,10.8,10.8,0,0,0,4.76,1.33,9.7,9.7,0,0,0,5.32-1.17,13.93,13.93,0,0,1,6.6-1.6,12.33,12.33,0,0,1,6.7,1.76,6,6,0,0,0,3.45,1,7.28,7.28,0,0,0,4.27-1.49,2.31,2.31,0,0,1,2.79,3.68,11.9,11.9,0,0,1-7,2.42h0a10.67,10.67,0,0,1-5.7-1.57,7.77,7.77,0,0,0-4.48-1.19,9.51,9.51,0,0,0-4.65,1.16A14.07,14.07,0,0,1,28.88,92.87Z"/><path class="cls-2" d="M55.65,78.1l-.74,0a15.46,15.46,0,0,1-6.57-1.76,8.6,8.6,0,0,0-5.89-1,7.71,7.71,0,0,0-3.87,2,2.31,2.31,0,0,1-3.17-3.36,12.41,12.41,0,0,1,6.24-3.16l.1,0a13.19,13.19,0,0,1,8.57,1.42,10.8,10.8,0,0,0,4.76,1.33A9.7,9.7,0,0,0,60.4,72.3,13.93,13.93,0,0,1,67,70.7a12.33,12.33,0,0,1,6.7,1.76,6,6,0,0,0,3.45,1A7.21,7.21,0,0,0,81.42,72a2.31,2.31,0,0,1,2.79,3.68,11.83,11.83,0,0,1-7,2.42h0a10.58,10.58,0,0,1-5.7-1.57A7.77,7.77,0,0,0,67,75.32a9.51,9.51,0,0,0-4.65,1.16A14.07,14.07,0,0,1,55.65,78.1Z"/><path class="cls-2" d="M33,64.25a17.37,17.37,0,0,1-2.37-.18,12.37,12.37,0,0,1-6.34-3.19,2.31,2.31,0,1,1,3.17-3.35,7.69,7.69,0,0,0,3.91,2,8.65,8.65,0,0,0,5.86-1,15.25,15.25,0,0,1,6.56-1.77,14.38,14.38,0,0,1,7.44,1.6,9.5,9.5,0,0,0,4.65,1.17,7.8,7.8,0,0,0,4.49-1.2,10.6,10.6,0,0,1,5.66-1.57,2.31,2.31,0,1,1,0,4.61,6,6,0,0,0-3.45,1,12.33,12.33,0,0,1-6.7,1.76,14.06,14.06,0,0,1-6.6-1.59A9.74,9.74,0,0,0,44,61.32a10.84,10.84,0,0,0-4.76,1.33A13.15,13.15,0,0,1,33,64.25Z"/></g></g></svg>