<svg xmlns="http://www.w3.org/2000/svg" xmlns:xlink="http://www.w3.org/1999/xlink" viewBox="0 0 100.02 83.58"><defs><style>.cls-1{fill:url(#linear-gradient);}.cls-2{fill:url(#linear-gradient-2);}.cls-3{fill:url(#linear-gradient-3);}.cls-4{fill:url(#linear-gradient-4);}.cls-5{fill:#fff;}.cls-6{fill:url(#linear-gradient-5);}</style><linearGradient id="linear-gradient" x1="49.66" y1="-64.27" x2="51.34" y2="-82.94" gradientTransform="matrix(1, 0, 0, -1, -0.01, -17.99)" gradientUnits="userSpaceOnUse"><stop offset="0" stop-color="#fff"/><stop offset="1" stop-color="#409fff"/></linearGradient><linearGradient id="linear-gradient-2" x1="38.88" y1="-103.99" x2="34.33" y2="-80.75" gradientTransform="matrix(1, 0, 0, -1, 0, -18)" xlink:href="#linear-gradient"/><linearGradient id="linear-gradient-3" x1="52.88" y1="-88.99" x2="48.33" y2="-65.75" xlink:href="#linear-gradient"/><linearGradient id="linear-gradient-4" x1="62.65" y1="-79.27" x2="64.33" y2="-97.94" gradientTransform="matrix(1, 0, 0, -1, 0, -18)" xlink:href="#linear-gradient"/><linearGradient id="linear-gradient-5" x1="65.88" y1="-103.99" x2="61.33" y2="-80.75" gradientTransform="matrix(1, 0, 0, -1, 0, -18)" xlink:href="#linear-gradient"/></defs><g id="Layer_2" data-name="Layer 2"><g id="Layer_1-2" data-name="Layer 1"><path class="cls-1" d="M51,51.51l5,5a7.07,7.07,0,0,1,0,10h0a7.07,7.07,0,0,1-10,0h0a7.07,7.07,0,0,1,0-10l5-5Z"/><path class="cls-2" d="M37,66.51l5,5a7.07,7.07,0,0,1,0,10h0a7.07,7.07,0,0,1-10,0h0a7.07,7.07,0,0,1,0-10h0l5-5Z"/><path class="cls-3" d="M51,51.51l5,5a7.07,7.07,0,0,1,0,10h0a7.07,7.07,0,0,1-10,0h0a7.07,7.07,0,0,1,0-10l5-5Z"/><path class="cls-4" d="M64,66.51l5,5a7.06,7.06,0,0,1,0,10h0a7.06,7.06,0,0,1-10,0h0a7.07,7.07,0,0,1,0-10h0l5-5Z"/><path class="cls-5" d="M100,46.5A22.52,22.52,0,0,1,77.52,69a2.5,2.5,0,1,1,0-5,17.5,17.5,0,0,0,0-35,17.09,17.09,0,0,0-3.49.36L71,30V26.5a21.5,21.5,0,0,0-42.9-2A22.69,22.69,0,0,1,42.26,37.25a2.51,2.51,0,0,1-1.33,3.28,2.58,2.58,0,0,1-1,.19,2.5,2.5,0,0,1-2.31-1.52,17.58,17.58,0,0,0-9.83-9.51l-2.67-.48A13.3,13.3,0,0,0,22.48,29a17.5,17.5,0,0,0,0,35s0,0,0,0a2.5,2.5,0,0,1,0,5h0a22.5,22.5,0,0,1,0-45h.67a26.5,26.5,0,0,1,52.77,0C76.45,24,77,24,77.52,24A22.53,22.53,0,0,1,100,46.5Z"/><path class="cls-6" d="M64,66.51l5,5a7.06,7.06,0,0,1,0,10h0a7.06,7.06,0,0,1-10,0h0a7.07,7.07,0,0,1,0-10h0l5-5Z"/></g></g></svg>