<svg xmlns="http://www.w3.org/2000/svg" xmlns:xlink="http://www.w3.org/1999/xlink" viewBox="0 0 100.03 82.23"><defs><style>.cls-1{fill:url(#linear-gradient);}.cls-2{fill:#fff;}</style><linearGradient id="linear-gradient" x1="51.6" y1="359.57" x2="46.67" y2="393.68" gradientTransform="matrix(1, 0, 0, -1, 0, 440)" gradientUnits="userSpaceOnUse"><stop offset="0" stop-color="#fff"/><stop offset="1" stop-color="#409fff"/></linearGradient></defs><g id="Layer_2" data-name="Layer 2"><g id="Layer_1-2" data-name="Layer 1"><path class="cls-1" d="M50,51.5l9,9a12.73,12.73,0,0,1,0,18h0a12.73,12.73,0,0,1-18,0h0a12.73,12.73,0,0,1,0-18h0l9-9Z"/><path class="cls-2" d="M100,46.5A22.53,22.53,0,0,1,77.53,69a2.5,2.5,0,0,1,0-5,17.5,17.5,0,0,0,0-35h0a17.09,17.09,0,0,0-3.49.36L71,30V26.5a21.5,21.5,0,0,0-42.9-2A22.66,22.66,0,0,1,42.26,37.24a2.5,2.5,0,0,1-1.33,3.28,2.59,2.59,0,0,1-1,.2,2.52,2.52,0,0,1-2.31-1.53,17.58,17.58,0,0,0-9.79-9.5l-2.71-.49a17.94,17.94,0,0,0-2.64-.2h0a17.5,17.5,0,0,0,0,35h0a2.5,2.5,0,1,1,0,5h0a22.5,22.5,0,0,1,0-45c.24,0,.44,0,.66,0a26.51,26.51,0,0,1,52.78,0c.53,0,1.07-.06,1.6-.06h0A22.53,22.53,0,0,1,100,46.5Z"/></g></g></svg>