<svg xmlns="http://www.w3.org/2000/svg" xmlns:xlink="http://www.w3.org/1999/xlink" viewBox="0 0 76.67 84.65"><defs><style>.cls-1{fill:url(#linear-gradient);}.cls-2{fill:#e8e8f2;}.cls-3{fill:url(#radial-gradient);}.cls-4{fill:url(#radial-gradient-2);}.cls-5{fill:url(#radial-gradient-3);}</style><linearGradient id="linear-gradient" x1="-21.94" y1="15.97" x2="18.22" y2="47.8" gradientUnits="userSpaceOnUse"><stop offset="0" stop-color="#fff"/><stop offset="1" stop-color="#8960ff"/></linearGradient><radialGradient id="radial-gradient" cx="50.41" cy="8.8" r="8.8" gradientUnits="userSpaceOnUse"><stop offset="0" stop-color="#fff"/><stop offset="0.14" stop-color="#e3daff"/><stop offset="0.34" stop-color="#c3aeff"/><stop offset="0.53" stop-color="#aa8cff"/><stop offset="0.7" stop-color="#9874ff"/><stop offset="0.87" stop-color="#8d65ff"/><stop offset="1" stop-color="#8960ff"/></radialGradient><radialGradient id="radial-gradient-2" cx="70.81" cy="60.87" r="5.87" xlink:href="#radial-gradient"/><radialGradient id="radial-gradient-3" cx="47.94" cy="46.33" r="11.73" xlink:href="#radial-gradient"/></defs><g id="Layer_2" data-name="Layer 2"><g id="Layer_1-2" data-name="Layer 1"><path class="cls-1" d="M53.4,76.67c-.8.67-1.65,1.31-2.54,1.92a31.83,31.83,0,0,1-17.53,5.56H31.9a32,32,0,0,1-5.09-63.5A32,32,0,0,0,46.9,77.15h1.43A31,31,0,0,0,53.4,76.67Z"/><path class="cls-2" d="M30.25,77.85a6.81,6.81,0,0,1-6.81,6.8H6.8A6.81,6.81,0,0,1,6.8,71H7a8,8,0,0,1,16,0l.48,0a6.83,6.83,0,0,1,6.81,6.81Z"/><polygon class="cls-3" points="52.63 6.58 59.21 8.8 52.63 11.02 50.41 17.6 48.19 11.02 41.61 8.8 48.19 6.58 50.41 0 52.63 6.58"/><polygon class="cls-4" points="72.29 59.38 76.67 60.87 72.29 62.35 70.81 66.73 69.33 62.35 64.94 60.87 69.33 59.38 70.81 55 72.29 59.38"/><polygon class="cls-5" points="50.9 43.37 59.67 46.33 50.9 49.3 47.94 58.07 44.98 49.3 36.21 46.33 44.98 43.37 47.94 34.6 50.9 43.37"/></g></g></svg>