<svg xmlns="http://www.w3.org/2000/svg" xmlns:xlink="http://www.w3.org/1999/xlink" viewBox="0 0 76.67 84.65"><defs><style>.cls-1{fill:url(#linear-gradient);}.cls-2{fill:#e8e8f2;}.cls-3{fill:url(#radial-gradient);}.cls-4{fill:url(#radial-gradient-2);}.cls-5{fill:url(#radial-gradient-3);}</style><linearGradient id="linear-gradient" x1="-3173.94" y1="15.97" x2="-3133.78" y2="47.8" gradientTransform="matrix(-1, 0, 0, 1, -3075.33, 0)" gradientUnits="userSpaceOnUse"><stop offset="0" stop-color="#fff"/><stop offset="1" stop-color="#8960ff"/></linearGradient><radialGradient id="radial-gradient" cx="-3101.59" cy="8.8" r="8.8" gradientTransform="matrix(-1, 0, 0, 1, -3075.33, 0)" gradientUnits="userSpaceOnUse"><stop offset="0" stop-color="#fff"/><stop offset="0.14" stop-color="#e3daff"/><stop offset="0.34" stop-color="#c3aeff"/><stop offset="0.53" stop-color="#aa8cff"/><stop offset="0.7" stop-color="#9874ff"/><stop offset="0.87" stop-color="#8d65ff"/><stop offset="1" stop-color="#8960ff"/></radialGradient><radialGradient id="radial-gradient-2" cx="-3081.19" cy="60.87" r="5.87" xlink:href="#radial-gradient"/><radialGradient id="radial-gradient-3" cx="-3104.06" cy="46.33" r="11.73" xlink:href="#radial-gradient"/></defs><g id="Layer_2" data-name="Layer 2"><g id="Layer_1-2" data-name="Layer 1"><path class="cls-1" d="M23.27,76.67c.8.67,1.65,1.31,2.54,1.92a31.83,31.83,0,0,0,17.53,5.56h1.43a32,32,0,0,0,5.09-63.5,32,32,0,0,1-20.09,56.5H28.34A31,31,0,0,1,23.27,76.67Z"/><path class="cls-2" d="M46.43,77.85a6.81,6.81,0,0,0,6.8,6.8H69.87a6.81,6.81,0,0,0,0-13.61h-.2a8,8,0,0,0-16,0l-.49,0a6.81,6.81,0,0,0-6.8,6.81Z"/><polygon class="cls-3" points="24.04 6.58 17.47 8.8 24.04 11.02 26.27 17.6 28.49 11.02 35.07 8.8 28.49 6.58 26.27 0 24.04 6.58"/><polygon class="cls-4" points="4.38 59.38 0 60.87 4.38 62.35 5.87 66.73 7.35 62.35 11.73 60.87 7.35 59.38 5.87 55 4.38 59.38"/><polygon class="cls-5" points="25.77 43.37 17 46.33 25.77 49.3 28.73 58.07 31.7 49.3 40.47 46.33 31.7 43.37 28.73 34.6 25.77 43.37"/></g></g></svg>