<svg xmlns="http://www.w3.org/2000/svg" xmlns:xlink="http://www.w3.org/1999/xlink" viewBox="0 0 77.21 69.09"><defs><style>.cls-1{fill:url(#radial-gradient);}.cls-2{fill:url(#radial-gradient-2);}.cls-3{fill:url(#linear-gradient);}.cls-4{fill:#e8e8f2;}.cls-5{fill:#4d4d4d;opacity:0.44;}.cls-6{fill:url(#linear-gradient-2);}</style><radialGradient id="radial-gradient" cx="-1282.06" cy="9.27" r="9.27" gradientTransform="matrix(-1, 0, 0, 1, -1262.79, 0)" gradientUnits="userSpaceOnUse"><stop offset="0" stop-color="#fff"/><stop offset="0.14" stop-color="#e3daff"/><stop offset="0.34" stop-color="#c3aeff"/><stop offset="0.53" stop-color="#aa8cff"/><stop offset="0.7" stop-color="#9874ff"/><stop offset="0.87" stop-color="#8d65ff"/><stop offset="1" stop-color="#8960ff"/></radialGradient><radialGradient id="radial-gradient-2" cx="-1268.06" cy="33.27" r="5.27" xlink:href="#radial-gradient"/><linearGradient id="linear-gradient" x1="-1385.99" y1="10.35" x2="-1298.83" y2="36.87" gradientTransform="matrix(-1, 0, 0, 1, -1262.79, 0)" gradientUnits="userSpaceOnUse"><stop offset="0.25" stop-color="#fff"/><stop offset="0.36" stop-color="#e8e0ff"/><stop offset="0.58" stop-color="#bfa9ff"/><stop offset="0.76" stop-color="#a281ff"/><stop offset="0.91" stop-color="#9069ff"/><stop offset="1" stop-color="#8960ff"/></linearGradient><linearGradient id="linear-gradient-2" x1="64.66" y1="6.48" x2="71.98" y2="20.63" gradientTransform="matrix(1, 0, 0, 1, 0, 0)" xlink:href="#linear-gradient"/></defs><g id="Layer_2" data-name="Layer 2"><g id="Layer_1-2" data-name="Layer 1"><polygon class="cls-1" points="16.93 6.93 10 9.27 16.93 11.61 19.27 18.53 21.61 11.61 28.53 9.27 21.61 6.93 19.27 0 16.93 6.93"/><polygon class="cls-2" points="3.94 31.94 0 33.27 3.94 34.6 5.27 38.53 6.6 34.6 10.53 33.27 6.6 31.94 5.27 28 3.94 31.94"/><path class="cls-3" d="M.42,50.7A32,32,0,0,0,28.88,69.08h1.43a32,32,0,0,0,4.47-63.6A32,32,0,0,1,6.31,51.08H4.88A31.83,31.83,0,0,1,.42,50.7Z"/><path class="cls-4" d="M47,44.78a6.81,6.81,0,0,0,6.8,6.8H70.41a6.81,6.81,0,0,0,0-13.61h-.2a8,8,0,0,0-16,0l-.49,0A6.83,6.83,0,0,0,47,44.78Z"/><circle class="cls-5" cx="18.89" cy="30.58" r="3"/><circle class="cls-6" cx="69.89" cy="16.58" r="3"/></g></g></svg>