<svg xmlns="http://www.w3.org/2000/svg" xmlns:xlink="http://www.w3.org/1999/xlink" viewBox="0 0 77.73 85.07"><defs><style>.cls-1{fill:url(#radial-gradient);}.cls-2{fill:url(#radial-gradient-2);}.cls-3{fill:url(#radial-gradient-3);}.cls-4{fill:url(#linear-gradient);}</style><radialGradient id="radial-gradient" cx="68.93" cy="35.2" r="8.8" gradientUnits="userSpaceOnUse"><stop offset="0" stop-color="#fff"/><stop offset="0.14" stop-color="#e3daff"/><stop offset="0.34" stop-color="#c3aeff"/><stop offset="0.53" stop-color="#aa8cff"/><stop offset="0.7" stop-color="#9874ff"/><stop offset="0.87" stop-color="#8d65ff"/><stop offset="1" stop-color="#8960ff"/></radialGradient><radialGradient id="radial-gradient-2" cx="51.33" cy="76.27" r="5.87" xlink:href="#radial-gradient"/><radialGradient id="radial-gradient-3" cx="45.47" cy="11.73" r="11.73" xlink:href="#radial-gradient"/><linearGradient id="linear-gradient" x1="-9.6" y1="25.98" x2="30.57" y2="56.68" gradientUnits="userSpaceOnUse"><stop offset="0" stop-color="#fff"/><stop offset="1" stop-color="#8960ff"/></linearGradient></defs><g id="Layer_2" data-name="Layer 2"><g id="Layer_1-2" data-name="Layer 1"><polygon class="cls-1" points="71.16 32.98 77.73 35.2 71.16 37.42 68.93 44 66.71 37.42 60.13 35.2 66.71 32.98 68.93 26.4 71.16 32.98"/><polygon class="cls-2" points="52.81 74.78 57.2 76.27 52.81 77.75 51.33 82.13 49.85 77.75 45.47 76.27 49.85 74.78 51.33 70.4 52.81 74.78"/><polygon class="cls-3" points="48.43 8.77 57.2 11.73 48.43 14.7 45.47 23.47 42.5 14.7 33.73 11.73 42.5 8.77 45.47 0 48.43 8.77"/><polygon class="cls-4" points="36.74 48.33 58.67 55.73 36.74 63.14 29.33 85.07 21.93 63.14 0 55.73 21.93 48.33 29.33 26.4 36.74 48.33"/></g></g></svg>