<svg xmlns="http://www.w3.org/2000/svg" xmlns:xlink="http://www.w3.org/1999/xlink" viewBox="0 0 115.37 78.29"><defs><style>.cls-1{fill:url(#linear-gradient);}.cls-2{fill:#fff;}.cls-3{fill:url(#linear-gradient-2);}.cls-4{opacity:0.8;fill:url(#linear-gradient-3);}.cls-5{fill:url(#radial-gradient);}</style><linearGradient id="linear-gradient" x1="-36.35" y1="-1447.59" x2="3.07" y2="-1512.34" gradientTransform="matrix(0.96, -0.27, -0.27, -0.96, -307.91, -1415)" gradientUnits="userSpaceOnUse"><stop offset="0" stop-color="#fff"/><stop offset="1" stop-color="#8960ff"/></linearGradient><linearGradient id="linear-gradient-2" x1="26.94" y1="12.3" x2="33.83" y2="1" gradientTransform="matrix(1, 0, 0, 1, 0, 0)" xlink:href="#linear-gradient"/><linearGradient id="linear-gradient-3" x1="-1.06" y1="29.3" x2="5.83" y2="18" gradientTransform="matrix(1, 0, 0, 1, 0, 0)" xlink:href="#linear-gradient"/><radialGradient id="radial-gradient" cx="-4548.95" cy="23.68" r="5.27" gradientTransform="matrix(-1, 0, 0, 1, -4526.57, 0)" gradientUnits="userSpaceOnUse"><stop offset="0" stop-color="#fff"/><stop offset="0.14" stop-color="#e3daff"/><stop offset="0.34" stop-color="#c3aeff"/><stop offset="0.53" stop-color="#aa8cff"/><stop offset="0.7" stop-color="#9874ff"/><stop offset="0.87" stop-color="#8d65ff"/><stop offset="1" stop-color="#8960ff"/></radialGradient></defs><g id="Layer_2" data-name="Layer 2"><g id="Layer_1-2" data-name="Layer 1"><path class="cls-1" d="M115.37,32.21a22.91,22.91,0,1,1-14.48-29,23.46,23.46,0,0,1,2.8,1.14,16.46,16.46,0,0,0,11.68,27.84Z"/><path class="cls-2" d="M101.84,39.89a22.44,22.44,0,0,0-15.9-6.6c-.54,0-1.08,0-1.61.06a26.5,26.5,0,0,0-52.77-.05h-.67a22.5,22.5,0,0,0,0,45h55a22.49,22.49,0,0,0,15.9-38.4Zm-15.9,33.4h-55a17.5,17.5,0,0,1,0-35h0a16.68,16.68,0,0,1,2.64.21h0l1.12.2A17.63,17.63,0,0,1,47.07,49a2.51,2.51,0,0,0,2.3,1.53,2.6,2.6,0,0,0,1-.2A2.5,2.5,0,0,0,51.67,47,22.66,22.66,0,0,0,36.52,34a21.5,21.5,0,0,1,42.92,1.79v3.49l3-.63a17.82,17.82,0,0,1,3.49-.36,17.5,17.5,0,0,1,0,35Z"/><circle class="cls-3" cx="32" cy="4" r="4"/><circle class="cls-4" cx="4" cy="21" r="4"/><polygon class="cls-5" points="21.05 22.35 17.11 23.68 21.05 25.01 22.38 28.95 23.7 25.01 27.64 23.68 23.7 22.35 22.38 18.42 21.05 22.35"/></g></g></svg>