<svg xmlns="http://www.w3.org/2000/svg" xmlns:xlink="http://www.w3.org/1999/xlink" viewBox="0 0 137 85.87"><defs><style>.cls-1{fill:url(#linear-gradient);}.cls-2{fill:url(#radial-gradient);}.cls-3{fill:url(#linear-gradient-2);}.cls-4{opacity:0.6;fill:url(#linear-gradient-3);}.cls-5{fill:#26adf8;}.cls-6{fill:#fff;}</style><linearGradient id="linear-gradient" x1="-12.08" y1="-36.26" x2="29.43" y2="41.66" gradientUnits="userSpaceOnUse"><stop offset="0" stop-color="#fff"/><stop offset="1" stop-color="#8960ff"/></linearGradient><radialGradient id="radial-gradient" cx="-4047.95" cy="5.27" r="5.27" gradientTransform="matrix(-1, 0, 0, 1, -4042.57, 0)" gradientUnits="userSpaceOnUse"><stop offset="0" stop-color="#fff"/><stop offset="0.14" stop-color="#e3daff"/><stop offset="0.34" stop-color="#c3aeff"/><stop offset="0.53" stop-color="#aa8cff"/><stop offset="0.7" stop-color="#9874ff"/><stop offset="0.87" stop-color="#8d65ff"/><stop offset="1" stop-color="#8960ff"/></radialGradient><linearGradient id="linear-gradient-2" x1="44.77" y1="-4.52" x2="52.09" y2="9.63" gradientUnits="userSpaceOnUse"><stop offset="0.25" stop-color="#fff"/><stop offset="0.36" stop-color="#e8e0ff"/><stop offset="0.58" stop-color="#bfa9ff"/><stop offset="0.76" stop-color="#a281ff"/><stop offset="0.91" stop-color="#9069ff"/><stop offset="1" stop-color="#8960ff"/></linearGradient><linearGradient id="linear-gradient-3" x1="-0.23" y1="52.48" x2="7.09" y2="66.63" xlink:href="#linear-gradient-2"/></defs><g id="Layer_2" data-name="Layer 2"><g id="Layer_1-2" data-name="Layer 1"><path class="cls-1" d="M39.11,53.78a24.79,24.79,0,0,1-13.58,4.31H24.42A24.8,24.8,0,0,1,25,8.49,24.8,24.8,0,0,1,39.11,53.78Z"/><polygon class="cls-2" points="4.04 3.94 0.11 5.27 4.04 6.6 5.38 10.53 6.71 6.6 10.64 5.27 6.71 3.94 5.38 0 4.04 3.94"/><circle class="cls-3" cx="50" cy="5.58" r="3"/><circle class="cls-4" cx="5" cy="62.58" r="3"/><path class="cls-5" d="M137,50.69a17.9,17.9,0,0,1-17.89,17.89H75.35a17.89,17.89,0,0,1,0-35.78h.54a21.07,21.07,0,0,1,42,0c.42,0,.85-.05,1.28-.05A17.92,17.92,0,0,1,137,50.69Z"/><path class="cls-6" d="M107.84,47.47a22.44,22.44,0,0,0-15.9-6.6c-.54,0-1.08,0-1.61.06a26.5,26.5,0,0,0-52.77,0h-.67a22.5,22.5,0,0,0,0,45h55a22.49,22.49,0,0,0,15.9-38.4Zm-15.9,33.4h-55a17.5,17.5,0,0,1,0-35h0a16.68,16.68,0,0,1,2.64.21h0l1.12.2A17.63,17.63,0,0,1,53.07,56.57a2.51,2.51,0,0,0,2.3,1.53,2.6,2.6,0,0,0,1-.2,2.5,2.5,0,0,0,1.32-3.28,22.66,22.66,0,0,0-15.15-13,21.5,21.5,0,0,1,42.92,1.79v3.49l3-.63a17.82,17.82,0,0,1,3.49-.36,17.5,17.5,0,0,1,0,35Z"/></g></g></svg>