<svg xmlns="http://www.w3.org/2000/svg" viewBox="0 0 102.5 97"><defs><style>.cls-1{fill:#ffca4c;}.cls-2{fill:#fff;}</style></defs><g id="Layer_2" data-name="Layer 2"><g id="Layer_1-2" data-name="Layer 1"><circle class="cls-1" cx="35.08" cy="35.5" r="24.22"/><circle class="cls-1" cx="58.47" cy="12.53" r="2.51"/><circle class="cls-1" cx="2.51" cy="35.92" r="2.51"/><circle class="cls-1" cx="11.69" cy="12.53" r="2.51"/><circle class="cls-1" cx="35.08" cy="2.51" r="2.51"/><path class="cls-2" d="M97.84,51.89a22.44,22.44,0,0,0-15.9-6.6c-.54,0-1.08,0-1.61.06a26.5,26.5,0,0,0-52.77-.05h-.67A22.57,22.57,0,0,0,7.18,57a2.47,2.47,0,0,0,.94,3.3h0a2.49,2.49,0,0,0,3.47-.93A17.58,17.58,0,0,1,26.9,50.29h0a16.68,16.68,0,0,1,2.64.21h0l1.12.2A17.63,17.63,0,0,1,43.07,61a2.51,2.51,0,0,0,2.3,1.53,2.6,2.6,0,0,0,1-.2A2.5,2.5,0,0,0,47.67,59,22.66,22.66,0,0,0,32.52,46a21.5,21.5,0,0,1,42.92,1.79v3.49l3-.63a17.82,17.82,0,0,1,3.49-.36A17.49,17.49,0,0,1,97,58.9,2.45,2.45,0,0,0,99.88,60l.18-.06a2.42,2.42,0,0,0,1.3-3.52A22.32,22.32,0,0,0,97.84,51.89Z"/><path class="cls-2" d="M99.28,74.5a12.74,12.74,0,0,1-7.65-2.39,8.48,8.48,0,0,0-9.94,0,13.42,13.42,0,0,1-15.29,0,8.46,8.46,0,0,0-9.93,0,13.42,13.42,0,0,1-15.29,0,7.89,7.89,0,0,0-5-1.61,7.86,7.86,0,0,0-5,1.61,12.78,12.78,0,0,1-7.64,2.39A12.68,12.68,0,0,1,16,72.11a7.89,7.89,0,0,0-5-1.61,2.5,2.5,0,0,1,0-5,12.75,12.75,0,0,1,7.64,2.39,7.89,7.89,0,0,0,5,1.61,7.86,7.86,0,0,0,5-1.61,12.8,12.8,0,0,1,7.64-2.39,12.74,12.74,0,0,1,7.65,2.39,8.46,8.46,0,0,0,9.93,0,13.42,13.42,0,0,1,15.29,0,8.46,8.46,0,0,0,9.93,0,13.44,13.44,0,0,1,15.3,0,7.87,7.87,0,0,0,5,1.61,2.5,2.5,0,0,1,0,5Z"/><path class="cls-2" d="M100,86a12.74,12.74,0,0,1-7.65-2.39,8.48,8.48,0,0,0-9.94,0,13.42,13.42,0,0,1-15.29,0,8.46,8.46,0,0,0-9.93,0,13.42,13.42,0,0,1-15.29,0,7.86,7.86,0,0,0-5-1.61,7.89,7.89,0,0,0-5,1.61A12.75,12.75,0,0,1,24.33,86a12.71,12.71,0,0,1-7.64-2.39,7.89,7.89,0,0,0-5-1.61,2.5,2.5,0,1,1,0-5,12.81,12.81,0,0,1,7.65,2.39,7.86,7.86,0,0,0,5,1.61,7.84,7.84,0,0,0,5-1.61A12.81,12.81,0,0,1,36.94,77a12.71,12.71,0,0,1,7.64,2.39,8.46,8.46,0,0,0,9.93,0,13.42,13.42,0,0,1,15.29,0,8.48,8.48,0,0,0,9.94,0,13.42,13.42,0,0,1,15.29,0A7.89,7.89,0,0,0,100,81a2.5,2.5,0,0,1,0,5Z"/><path class="cls-2" d="M100,97a12.74,12.74,0,0,1-7.65-2.39,8.48,8.48,0,0,0-9.94,0,13.42,13.42,0,0,1-15.29,0,8.46,8.46,0,0,0-9.93,0,13.42,13.42,0,0,1-15.29,0,7.86,7.86,0,0,0-5-1.61,7.89,7.89,0,0,0-5,1.61A12.75,12.75,0,0,1,24.33,97a12.71,12.71,0,0,1-7.64-2.39,7.89,7.89,0,0,0-5-1.61,2.5,2.5,0,1,1,0-5,12.81,12.81,0,0,1,7.65,2.39,7.86,7.86,0,0,0,5,1.61,7.84,7.84,0,0,0,5-1.61A12.81,12.81,0,0,1,36.94,88a12.71,12.71,0,0,1,7.64,2.39,8.46,8.46,0,0,0,9.93,0,13.42,13.42,0,0,1,15.29,0,8.48,8.48,0,0,0,9.94,0,13.42,13.42,0,0,1,15.29,0A7.89,7.89,0,0,0,100,92a2.5,2.5,0,0,1,0,5Z"/></g></g></svg>