<svg xmlns="http://www.w3.org/2000/svg" viewBox="0 0 95.61 73.71"><defs><style>.cls-1{fill:#fff;}</style></defs><g id="Layer_2" data-name="Layer 2"><g id="Layer_1-2" data-name="Layer 1"><path class="cls-1" d="M91,30.6A22.44,22.44,0,0,0,75.05,24c-.54,0-1.08,0-1.61.06a26.5,26.5,0,0,0-52.77,0H20A22.37,22.37,0,0,0,4.1,30.61,22.68,22.68,0,0,0,.29,35.68,2.49,2.49,0,0,0,1.23,39h0a2.49,2.49,0,0,0,3.47-.93,17.6,17.6,0,0,1,2.94-3.9A17.4,17.4,0,0,1,20,29h0a16.68,16.68,0,0,1,2.64.21h0l1.12.2A17.63,17.63,0,0,1,36.18,39.7a2.51,2.51,0,0,0,2.3,1.53,2.6,2.6,0,0,0,1-.2,2.5,2.5,0,0,0,1.32-3.28,22.66,22.66,0,0,0-15.15-13A21.5,21.5,0,0,1,68.55,26.5V30l3-.63A17.82,17.82,0,0,1,75.05,29a17.51,17.51,0,0,1,15.07,8.61A2.44,2.44,0,0,0,93,38.73l.18-.06a2.42,2.42,0,0,0,1.3-3.52A22,22,0,0,0,91,30.6Z"/><path class="cls-1" d="M92.39,51.21H4.11a2.5,2.5,0,0,1,0-5H92.39a2.5,2.5,0,0,1,0,5Z"/><path class="cls-1" d="M93.11,62.71H4.84a2.5,2.5,0,1,1,0-5H93.11a2.5,2.5,0,0,1,0,5Z"/><path class="cls-1" d="M93.11,73.71H4.84a2.5,2.5,0,0,1,0-5H93.11a2.5,2.5,0,0,1,0,5Z"/></g></g></svg>