<svg xmlns="http://www.w3.org/2000/svg" viewBox="0 0 70 60"><defs><style>.cls-1{fill:#fff;}</style></defs><g id="Layer_2" data-name="Layer 2"><g id="Layer_1-2" data-name="Layer 1"><path class="cls-1" d="M44.5,60A12.52,12.52,0,0,1,32,47.5a12.35,12.35,0,0,1,.42-3.21,2.5,2.5,0,1,1,4.83,1.28A7.3,7.3,0,0,0,37,47.5,7.5,7.5,0,1,0,44.5,40h-33a2.5,2.5,0,0,1,0-5h33a12.5,12.5,0,0,1,0,25Z"/><path class="cls-1" d="M56.5,30H2.5a2.5,2.5,0,0,1,0-5h54A8.5,8.5,0,1,0,48,16.5a8.66,8.66,0,0,0,.12,1.44,2.5,2.5,0,1,1-4.93.84A13.5,13.5,0,1,1,56.5,30Z"/><path class="cls-1" d="M31.5,19h-20a2.5,2.5,0,0,1,0-5h20a4.5,4.5,0,1,0-4.35-5.65,2.5,2.5,0,0,1-4.84-1.27A9.5,9.5,0,1,1,31.5,19Z"/></g></g></svg>